Neuton-Light.ufo
<glyph name="exclam" format="1">
  <advance width="293"/>
  <unicode hex="0021"/>
  <outline>
    <contour>
      <point x="55" y="79" type="curve" smooth="yes"/>
      <point x="55" y="140"/>
      <point x="95" y="184"/>
      <point x="145" y="184" type="curve" smooth="yes"/>
      <point x="196" y="184"/>
      <point x="238" y="139"/>
      <point x="238" y="78" type="curve" smooth="yes"/>
      <point x="238" y="14"/>
      <point x="203" y="-35"/>
      <point x="145" y="-35" type="curve" smooth="yes"/>
      <point x="89" y="-35"/>
      <point x="55" y="17"/>
    </contour>
    <contour>
      <point x="71" y="1254" type="curve" smooth="yes"/>
      <point x="71" y="1281"/>
      <point x="135" y="1293"/>
      <point x="171" y="1293" type="curve" smooth="yes"/>
      <point x="198" y="1293"/>
      <point x="230" y="1285"/>
      <point x="230" y="1254" type="curve" smooth="yes"/>
      <point x="230" y="1085"/>
      <point x="205" y="684"/>
      <point x="178" y="361" type="curve"/>
      <point x="111" y="376" type="line"/>
      <point x="91" y="697"/>
      <point x="71" y="1142"/>
    </contour>
  </outline>
</glyph>
<glyph name="quotedbl" format="1">
  <advance width="453"/>
  <unicode hex="0022"/>
  <outline>
    <contour>
      <point x="60" y="1303" type="line"/>
      <point x="205" y="1291" type="line"/>
      <point x="169" y="899" type="line"/>
      <point x="96" y="891" type="line"/>
    </contour>
    <contour>
      <point x="246" y="1303" type="line"/>
      <point x="393" y="1291" type="line"/>
      <point x="357" y="899" type="line"/>
      <point x="283" y="891" type="line"/>
    </contour>
  </outline>
</glyph>
<glyph name="numbersign" format="1">
  <advance width="1095"/>
  <unicode hex="0023"/>
  <outline>
    <contour>
      <point x="348" y="-19" type="line"/>
      <point x="255" y="-26" type="line"/>
      <point x="432" y="1150" type="line"/>
      <point x="525" y="1160" type="line"/>
    </contour>
    <contour>
      <point x="114" y="712" type="line"/>
      <point x="142" y="813" type="line"/>
      <point x="1052" y="813" type="line"/>
      <point x="1027" y="712" type="line"/>
    </contour>
    <contour>
      <point x="43" y="326" type="line"/>
      <point x="70" y="427" type="line"/>
      <point x="978" y="427" type="line"/>
      <point x="952" y="326" type="line"/>
    </contour>
    <contour>
      <point x="666" y="-19" type="line"/>
      <point x="572" y="-26" type="line"/>
      <point x="749" y="1150" type="line"/>
      <point x="842" y="1159" type="line"/>
    </contour>
  </outline>
</glyph>
<glyph name="dollar" format="1">
  <advance width="850"/>
  <unicode hex="0024"/>
  <outline>
    <contour>
      <point x="47" y="119" type="curve"/>
      <point x="69" y="395" type="line"/>
      <point x="144" y="384" type="line"/>
      <point x="177" y="181" type="line"/>
      <point x="218" y="109"/>
      <point x="315" y="57"/>
      <point x="418" y="57" type="curve" smooth="yes"/>
      <point x="533" y="57"/>
      <point x="657" y="126"/>
      <point x="657" y="274" type="curve" smooth="yes"/>
      <point x="657" y="554"/>
      <point x="83" y="577"/>
      <point x="83" y="938" type="curve" smooth="yes"/>
      <point x="83" y="1151"/>
      <point x="265" y="1270"/>
      <point x="444" y="1270" type="curve" smooth="yes"/>
      <point x="552" y="1270"/>
      <point x="658" y="1235"/>
      <point x="731" y="1165" type="curve"/>
      <point x="731" y="1161"/>
      <point x="704" y="869"/>
      <point x="704" y="869" type="curve"/>
      <point x="631" y="878" type="line"/>
      <point x="605" y="1096" type="line"/>
      <point x="578" y="1147"/>
      <point x="495" y="1200"/>
      <point x="414" y="1200" type="curve" smooth="yes"/>
      <point x="308" y="1200"/>
      <point x="219" y="1132"/>
      <point x="219" y="1001" type="curve" smooth="yes"/>
      <point x="219" y="699"/>
      <point x="804" y="680"/>
      <point x="804" y="331" type="curve" smooth="yes"/>
      <point x="804" y="122"/>
      <point x="618" y="-25"/>
      <point x="380" y="-25" type="curve" smooth="yes"/>
      <point x="236" y="-25"/>
      <point x="111" y="40"/>
    </contour>
    <contour>
      <point x="349" y="-179" type="line"/>
      <point x="361" y="9" type="line"/>
      <point x="389" y="54" type="line"/>
      <point x="389" y="631" type="line"/>
      <point x="393" y="700" type="line"/>
      <point x="393" y="1208" type="line"/>
      <point x="367" y="1244" type="line"/>
      <point x="354" y="1395" type="line"/>
      <point x="491" y="1411" type="line"/>
      <point x="476" y="1244" type="line"/>
      <point x="449" y="1204" type="line"/>
      <point x="449" y="666" type="line"/>
      <point x="451" y="583" type="line"/>
      <point x="451" y="54" type="line"/>
      <point x="481" y="20" type="line"/>
      <point x="494" y="-164" type="line"/>
    </contour>
  </outline>
</glyph>
<glyph name="percent" format="1">
  <advance width="1177"/>
  <unicode hex="0025"/>
  <outline>
    <contour>
      <point x="46" y="899" type="curve" smooth="yes"/>
      <point x="46" y="1068"/>
      <point x="165" y="1213"/>
      <point x="288" y="1213" type="curve" smooth="yes"/>
      <point x="306" y="1213"/>
      <point x="318" y="1211"/>
      <point x="324" y="1209" type="curve"/>
      <point x="324" y="1153" type="line"/>
      <point x="309" y="1164"/>
      <point x="303" y="1168"/>
      <point x="284" y="1168" type="curve" smooth="yes"/>
      <point x="202" y="1168"/>
      <point x="174" y="1013"/>
      <point x="174" y="899" type="curve" smooth="yes"/>
      <point x="174" y="781"/>
      <point x="212" y="637"/>
      <point x="287" y="637" type="curve" smooth="yes"/>
      <point x="371" y="637"/>
      <point x="404" y="779"/>
      <point x="404" y="899" type="curve" smooth="yes"/>
      <point x="404" y="1042"/>
      <point x="382" y="1137"/>
      <point x="358" y="1196" type="curve"/>
      <point x="885" y="1211" type="line"/>
      <point x="894" y="1142" type="line"/>
      <point x="469" y="1150" type="line"/>
      <point x="509" y="1103"/>
      <point x="532" y="949"/>
      <point x="532" y="899" type="curve" smooth="yes"/>
      <point x="532" y="726"/>
      <point x="405" y="584"/>
      <point x="287" y="584" type="curve" smooth="yes"/>
      <point x="160" y="584"/>
      <point x="46" y="707"/>
    </contour>
    <contour>
      <point x="154" y="-26" type="line"/>
      <point x="530" y="588" type="line"/>
      <point x="885" y="1211" type="line"/>
      <point x="1015" y="1207" type="line"/>
      <point x="1013" y="1191" type="line"/>
      <point x="647" y="591" type="line"/>
      <point x="300" y="-40" type="line"/>
    </contour>
    <contour>
      <point x="642" y="277" type="curve" smooth="yes"/>
      <point x="642" y="446"/>
      <point x="761" y="591"/>
      <point x="884" y="591" type="curve" smooth="yes"/>
      <point x="1026" y="591"/>
      <point x="1128" y="453"/>
      <point x="1128" y="274" type="curve" smooth="yes"/>
      <point x="1128" y="105"/>
      <point x="1004" y="-36"/>
      <point x="886" y="-36" type="curve" smooth="yes"/>
      <point x="759" y="-36"/>
      <point x="642" y="87"/>
    </contour>
    <contour>
      <point x="771" y="277" type="curve" smooth="yes"/>
      <point x="771" y="159"/>
      <point x="811" y="16"/>
      <point x="886" y="16" type="curve" smooth="yes"/>
      <point x="970" y="16"/>
      <point x="1002" y="158"/>
      <point x="1002" y="280" type="curve" smooth="yes"/>
      <point x="1002" y="400"/>
      <point x="960" y="546"/>
      <point x="884" y="546" type="curve" smooth="yes"/>
      <point x="799" y="546"/>
      <point x="771" y="391"/>
    </contour>
  </outline>
</glyph>
<glyph name="ampersand" format="1">
  <advance width="1277"/>
  <unicode hex="0026"/>
  <outline>
    <contour>
      <point x="51" y="278" type="curve" smooth="yes"/>
      <point x="51" y="450"/>
      <point x="178" y="577"/>
      <point x="348" y="687" type="curve"/>
      <point x="281" y="757"/>
      <point x="206" y="865"/>
      <point x="206" y="975" type="curve" smooth="yes"/>
      <point x="206" y="1131"/>
      <point x="342" y="1272"/>
      <point x="502" y="1272" type="curve" smooth="yes"/>
      <point x="669" y="1272"/>
      <point x="775" y="1184"/>
      <point x="775" y="1016" type="curve" smooth="yes"/>
      <point x="775" y="894"/>
      <point x="675" y="795"/>
      <point x="533" y="700" type="curve"/>
      <point x="533" y="693" type="line"/>
      <point x="776" y="417" type="line"/>
      <point x="959" y="720" type="line"/>
      <point x="802" y="757" type="line"/>
      <point x="808" y="812" type="line"/>
      <point x="1233" y="812" type="line"/>
      <point x="1225" y="757" type="line"/>
      <point x="1056" y="723" type="line"/>
      <point x="837" y="356" type="line"/>
      <point x="989" y="176"/>
      <point x="1106" y="88"/>
      <point x="1181" y="64" type="curve" smooth="yes"/>
      <point x="1220" y="52" type="line"/>
      <point x="1210" y="-2" type="line"/>
      <point x="1170" y="-16"/>
      <point x="1144" y="-20"/>
      <point x="1104" y="-20" type="curve" smooth="yes"/>
      <point x="1000" y="-20"/>
      <point x="908" y="60"/>
      <point x="852" y="122" type="curve" smooth="yes"/>
      <point x="757" y="227" type="line"/>
      <point x="668" y="97"/>
      <point x="560" y="-20"/>
      <point x="367" y="-20" type="curve" smooth="yes"/>
      <point x="175" y="-20"/>
      <point x="51" y="105"/>
    </contour>
    <contour>
      <point x="201" y="337" type="curve" smooth="yes"/>
      <point x="201" y="201"/>
      <point x="282" y="86"/>
      <point x="419" y="86" type="curve" smooth="yes"/>
      <point x="542" y="86"/>
      <point x="636" y="181"/>
      <point x="698" y="286" type="curve"/>
      <point x="400" y="626" type="line"/>
      <point x="390" y="627" type="line"/>
      <point x="291" y="555"/>
      <point x="201" y="465"/>
    </contour>
    <contour>
      <point x="326" y="1025" type="curve" smooth="yes"/>
      <point x="326" y="930"/>
      <point x="408" y="824"/>
      <point x="478" y="752" type="curve"/>
      <point x="571" y="819"/>
      <point x="640" y="884"/>
      <point x="640" y="994" type="curve" smooth="yes"/>
      <point x="640" y="1106"/>
      <point x="581" y="1200"/>
      <point x="478" y="1200" type="curve" smooth="yes"/>
      <point x="384" y="1200"/>
      <point x="326" y="1115"/>
    </contour>
  </outline>
</glyph>
<glyph name="quotesingle" format="1">
  <advance width="265"/>
  <unicode hex="0027"/>
  <outline>
    <contour>
      <point x="59" y="1303" type="line"/>
      <point x="205" y="1291" type="line"/>
      <point x="169" y="899" type="line"/>
      <point x="96" y="891" type="line"/>
    </contour>
  </outline>
</glyph>
<glyph name="parenright" format="1">
  <advance width="477"/>
  <unicode hex="0029"/>
  <outline>
    <contour>
      <point x="47" y="1201" type="curve"/>
      <point x="84" y="1256" type="line"/>
      <point x="150" y="1200"/>
      <point x="421" y="975"/>
      <point x="421" y="450" type="curve" smooth="yes"/>
      <point x="421" y="-66"/>
      <point x="140" y="-328"/>
      <point x="89" y="-375" type="curve"/>
      <point x="41" y="-330" type="line"/>
      <point x="86" y="-257"/>
      <point x="276" y="40"/>
      <point x="276" y="456" type="curve" smooth="yes"/>
      <point x="276" y="881"/>
      <point x="133" y="1088"/>
    </contour>
  </outline>
</glyph>
<glyph name="asterisk" format="1">
  <advance width="801"/>
  <unicode hex="002A"/>
  <outline>
    <contour>
      <point x="338" y="1291" type="line"/>
      <point x="461" y="1280" type="line"/>
      <point x="436" y="981" type="line"/>
      <point x="726" y="1106" type="line"/>
      <point x="753" y="990" type="line"/>
      <point x="462" y="923" type="line"/>
      <point x="674" y="686" type="line"/>
      <point x="569" y="623" type="line"/>
      <point x="413" y="882" type="line"/>
      <point x="252" y="604" type="line"/>
      <point x="159" y="685" type="line"/>
      <point x="357" y="912" type="line"/>
      <point x="47" y="978" type="line"/>
      <point x="95" y="1092" type="line"/>
      <point x="371" y="974" type="line"/>
    </contour>
  </outline>
</glyph>
<glyph name="plus" format="1">
  <advance width="637"/>
  <unicode hex="002B"/>
  <outline>
    <contour>
      <point x="54" y="417" type="line"/>
      <point x="66" y="503" type="line"/>
      <point x="275" y="503" type="line"/>
      <point x="275" y="742" type="line"/>
      <point x="363" y="730" type="line"/>
      <point x="364" y="503" type="line"/>
      <point x="584" y="503" type="line"/>
      <point x="573" y="417" type="line"/>
      <point x="364" y="417" type="line"/>
      <point x="366" y="173" type="line"/>
      <point x="275" y="186" type="line"/>
      <point x="275" y="417" type="line"/>
    </contour>
  </outline>
</glyph>
<glyph name="comma" format="1">
  <advance width="414"/>
  <unicode hex="002C"/>
  <outline>
    <contour>
      <point x="55" y="-240" type="line"/>
      <point x="192" y="-195"/>
      <point x="235" y="-123"/>
      <point x="235" y="-50" type="curve" smooth="yes"/>
      <point x="235" y="21"/>
      <point x="187" y="74"/>
      <point x="123" y="74" type="curve" smooth="yes"/>
      <point x="114" y="74"/>
      <point x="103" y="73"/>
      <point x="94" y="71" type="curve"/>
      <point x="89" y="86"/>
      <point x="86" y="96"/>
      <point x="86" y="112" type="curve" smooth="yes"/>
      <point x="86" y="180"/>
      <point x="140" y="218"/>
      <point x="194" y="218" type="curve" smooth="yes"/>
      <point x="267" y="218"/>
      <point x="353" y="154"/>
      <point x="353" y="9" type="curve" smooth="yes"/>
      <point x="353" y="-85"/>
      <point x="309" y="-230"/>
      <point x="73" y="-298" type="curve"/>
    </contour>
  </outline>
</glyph>
<glyph name="hyphen" format="1">
  <advance width="545"/>
  <unicode hex="002D"/>
  <outline>
    <contour>
      <point x="65" y="409" type="line"/>
      <point x="76" y="489" type="line"/>
      <point x="484" y="507" type="line"/>
      <point x="473" y="426" type="line"/>
    </contour>
  </outline>
</glyph>
<glyph name="period" format="1">
  <advance width="309"/>
  <unicode hex="002E"/>
  <outline>
    <contour>
      <point x="64" y="81" type="curve" smooth="yes"/>
      <point x="64" y="145"/>
      <point x="100" y="186"/>
      <point x="154" y="186" type="curve" smooth="yes"/>
      <point x="208" y="186"/>
      <point x="247" y="144"/>
      <point x="247" y="80" type="curve" smooth="yes"/>
      <point x="247" y="13"/>
      <point x="211" y="-32"/>
      <point x="155" y="-32" type="curve" smooth="yes"/>
      <point x="99" y="-32"/>
      <point x="64" y="15"/>
    </contour>
  </outline>
</glyph>
<glyph name="slash" format="1">
  <advance width="651"/>
  <unicode hex="002F"/>
  <outline>
    <contour>
      <point x="40" y="-361" type="line"/>
      <point x="503" y="1238" type="line"/>
      <point x="610" y="1244" type="line"/>
      <point x="144" y="-355" type="line"/>
    </contour>
  </outline>
</glyph>
<glyph name="zero" format="1">
  <advance width="917"/>
  <unicode hex="0030"/>
  <outline>
    <contour>
      <point x="55" y="587" type="curve" smooth="yes"/>
      <point x="55" y="989"/>
      <point x="243" y="1203"/>
      <point x="464" y="1203" type="curve" smooth="yes"/>
      <point x="705" y="1203"/>
      <point x="860" y="995"/>
      <point x="860" y="587" type="curve" smooth="yes"/>
      <point x="860" y="145"/>
      <point x="662" y="-27"/>
      <point x="463" y="-27" type="curve" smooth="yes"/>
      <point x="238" y="-27"/>
      <point x="55" y="133"/>
    </contour>
    <contour>
      <point x="223" y="584" type="curve" smooth="yes"/>
      <point x="223" y="228"/>
      <point x="302" y="48"/>
      <point x="465" y="48" type="curve" smooth="yes"/>
      <point x="625" y="48"/>
      <point x="691" y="227"/>
      <point x="691" y="587" type="curve" smooth="yes"/>
      <point x="691" y="921"/>
      <point x="622" y="1125"/>
      <point x="461" y="1125" type="curve" smooth="yes"/>
      <point x="289" y="1125"/>
      <point x="223" y="920"/>
    </contour>
  </outline>
</glyph>
<glyph name="one" format="1">
  <advance width="792"/>
  <unicode hex="0031"/>
  <outline>
    <contour>
      <point x="45" y="1" type="line"/>
      <point x="49" y="61" type="line"/>
      <point x="323" y="103" type="line"/>
      <point x="323" y="1060" type="line"/>
      <point x="64" y="1060" type="line"/>
      <point x="69" y="1121" type="line"/>
      <point x="455" y="1185" type="line"/>
      <point x="482" y="1185" type="line"/>
      <point x="482" y="98" type="line"/>
      <point x="750" y="70" type="line"/>
      <point x="741" y="1" type="line"/>
    </contour>
  </outline>
</glyph>
<glyph name="two" format="1">
  <advance width="910"/>
  <unicode hex="0032"/>
  <outline>
    <contour>
      <point x="45" y="74" type="line"/>
      <point x="283" y="278" type="line" smooth="yes"/>
      <point x="513" y="475"/>
      <point x="644" y="628"/>
      <point x="644" y="842" type="curve" smooth="yes"/>
      <point x="644" y="988"/>
      <point x="590" y="1128"/>
      <point x="430" y="1128" type="curve" smooth="yes"/>
      <point x="323" y="1128"/>
      <point x="253" y="1076"/>
      <point x="224" y="1021" type="curve"/>
      <point x="183" y="780" type="line"/>
      <point x="126" y="788" type="line"/>
      <point x="116" y="1057" type="line"/>
      <point x="170" y="1130"/>
      <point x="324" y="1209"/>
      <point x="476" y="1209" type="curve" smooth="yes"/>
      <point x="680" y="1209"/>
      <point x="818" y="1094"/>
      <point x="818" y="860" type="curve" smooth="yes"/>
      <point x="818" y="594"/>
      <point x="568" y="397"/>
      <point x="295" y="180" type="curve" smooth="yes"/>
      <point x="216" y="118" type="line"/>
      <point x="715" y="118" type="line"/>
      <point x="810" y="361" type="line"/>
      <point x="865" y="353" type="line"/>
      <point x="818" y="0" type="line"/>
      <point x="51" y="0" type="line"/>
    </contour>
  </outline>
</glyph>
<glyph name="three" format="1">
  <advance width="835"/>
  <unicode hex="0033"/>
  <outline>
    <contour>
      <point x="47" y="90" type="curve"/>
      <point x="92" y="353" type="line"/>
      <point x="159" y="342" type="line"/>
      <point x="169" y="138" type="line"/>
      <point x="197" y="88"/>
      <point x="276" y="36"/>
      <point x="364" y="36" type="curve" smooth="yes"/>
      <point x="516" y="36"/>
      <point x="620" y="135"/>
      <point x="620" y="292" type="curve" smooth="yes"/>
      <point x="620" y="445"/>
      <point x="476" y="551"/>
      <point x="284" y="555" type="curve"/>
      <point x="278" y="605" type="line"/>
      <point x="368" y="645"/>
      <point x="573" y="742"/>
      <point x="573" y="929" type="curve" smooth="yes"/>
      <point x="573" y="1028"/>
      <point x="515" y="1137"/>
      <point x="391" y="1137" type="curve" smooth="yes"/>
      <point x="312" y="1137"/>
      <point x="258" y="1098"/>
      <point x="222" y="1057" type="curve"/>
      <point x="179" y="833" type="line"/>
      <point x="115" y="844" type="line"/>
      <point x="108" y="1092" type="line"/>
      <point x="157" y="1139"/>
      <point x="280" y="1211"/>
      <point x="442" y="1211" type="curve" smooth="yes"/>
      <point x="609" y="1211"/>
      <point x="740" y="1115"/>
      <point x="740" y="959" type="curve" smooth="yes"/>
      <point x="740" y="797"/>
      <point x="592" y="688"/>
      <point x="471" y="643" type="curve"/>
      <point x="471" y="633" type="line"/>
      <point x="649" y="608"/>
      <point x="786" y="505"/>
      <point x="786" y="345" type="curve" smooth="yes"/>
      <point x="786" y="127"/>
      <point x="576" y="-33"/>
      <point x="345" y="-33" type="curve" smooth="yes"/>
      <point x="205" y="-33"/>
      <point x="84" y="26"/>
    </contour>
  </outline>
</glyph>
<glyph name="four" format="1">
  <advance width="1004"/>
  <unicode hex="0034"/>
  <outline>
    <contour>
      <point x="45" y="415" type="line"/>
      <point x="662" y="1191" type="line"/>
      <point x="711" y="1176" type="line"/>
      <point x="705" y="1057"/>
      <point x="702" y="865"/>
      <point x="702" y="683" type="curve" smooth="yes"/>
      <point x="702" y="462" type="line"/>
      <point x="957" y="462" type="line"/>
      <point x="941" y="357" type="line"/>
      <point x="702" y="357" type="line"/>
      <point x="702" y="89" type="line"/>
      <point x="908" y="64" type="line"/>
      <point x="897" y="0" type="line"/>
      <point x="305" y="0" type="line"/>
      <point x="312" y="57" type="line"/>
      <point x="559" y="95" type="line"/>
      <point x="559" y="361" type="line"/>
      <point x="64" y="361" type="line"/>
    </contour>
    <contour>
      <point x="193" y="462" type="line"/>
      <point x="555" y="462" type="line"/>
      <point x="555" y="948" type="line"/>
    </contour>
  </outline>
</glyph>
<glyph name="five" format="1">
  <advance width="801"/>
  <unicode hex="0035"/>
  <outline>
    <contour>
      <point x="49" y="88" type="curve"/>
      <point x="77" y="369" type="line"/>
      <point x="144" y="355" type="line"/>
      <point x="162" y="155" type="line"/>
      <point x="216" y="89"/>
      <point x="289" y="58"/>
      <point x="370" y="58" type="curve" smooth="yes"/>
      <point x="514" y="58"/>
      <point x="603" y="158"/>
      <point x="603" y="308" type="curve" smooth="yes"/>
      <point x="603" y="510"/>
      <point x="421" y="621"/>
      <point x="139" y="639" type="curve"/>
      <point x="254" y="1171" type="line"/>
      <point x="703" y="1198" type="line"/>
      <point x="682" y="1049" type="line"/>
      <point x="297" y="1032" type="line"/>
      <point x="253" y="771" type="line"/>
      <point x="608" y="748"/>
      <point x="750" y="577"/>
      <point x="750" y="368" type="curve" smooth="yes"/>
      <point x="750" y="163"/>
      <point x="572" y="-16"/>
      <point x="327" y="-16" type="curve" smooth="yes"/>
      <point x="222" y="-16"/>
      <point x="128" y="12"/>
    </contour>
  </outline>
</glyph>
<glyph name="six" format="1">
  <advance width="862"/>
  <unicode hex="0036"/>
  <outline>
    <contour>
      <point x="55" y="422" type="curve" smooth="yes"/>
      <point x="55" y="758"/>
      <point x="308" y="1104"/>
      <point x="629" y="1214" type="curve"/>
      <point x="658" y="1164" type="line"/>
      <point x="377" y="1039"/>
      <point x="268" y="808"/>
      <point x="228" y="609" type="curve"/>
      <point x="237" y="609" type="line"/>
      <point x="289" y="657"/>
      <point x="370" y="709"/>
      <point x="492" y="709" type="curve" smooth="yes"/>
      <point x="687" y="709"/>
      <point x="810" y="563"/>
      <point x="810" y="362" type="curve" smooth="yes"/>
      <point x="810" y="140"/>
      <point x="636" y="-21"/>
      <point x="419" y="-21" type="curve" smooth="yes"/>
      <point x="156" y="-21"/>
      <point x="55" y="188"/>
    </contour>
    <contour>
      <point x="218" y="407" type="curve" smooth="yes"/>
      <point x="218" y="199"/>
      <point x="311" y="44"/>
      <point x="434" y="44" type="curve" smooth="yes"/>
      <point x="592" y="44"/>
      <point x="647" y="156"/>
      <point x="647" y="327" type="curve" smooth="yes"/>
      <point x="647" y="482"/>
      <point x="570" y="619"/>
      <point x="419" y="619" type="curve" smooth="yes"/>
      <point x="328" y="619"/>
      <point x="250" y="576"/>
      <point x="225" y="540" type="curve"/>
      <point x="220" y="506"/>
      <point x="218" y="442"/>
    </contour>
  </outline>
</glyph>
<glyph name="seven" format="1">
  <advance width="879"/>
  <unicode hex="0037"/>
  <outline>
    <contour>
      <point x="46" y="829" type="line"/>
      <point x="74" y="1182" type="line"/>
      <point x="837" y="1182" type="line"/>
      <point x="837" y="1130" type="line"/>
      <point x="404" y="-33" type="line"/>
      <point x="245" y="-16" type="line"/>
      <point x="719" y="1047" type="line"/>
      <point x="168" y="1047" type="line"/>
      <point x="100" y="820" type="line"/>
    </contour>
  </outline>
</glyph>
<glyph name="eight" format="1">
  <advance width="810"/>
  <unicode hex="0038"/>
  <outline>
    <contour>
      <point x="49" y="281" type="curve" smooth="yes"/>
      <point x="49" y="394"/>
      <point x="123" y="498"/>
      <point x="279" y="590" type="curve"/>
      <point x="279" y="597" type="line"/>
      <point x="167" y="673"/>
      <point x="95" y="765"/>
      <point x="95" y="897" type="curve" smooth="yes"/>
      <point x="95" y="1061"/>
      <point x="231" y="1202"/>
      <point x="424" y="1202" type="curve" smooth="yes"/>
      <point x="614" y="1202"/>
      <point x="720" y="1078"/>
      <point x="720" y="927" type="curve" smooth="yes"/>
      <point x="720" y="791"/>
      <point x="630" y="679"/>
      <point x="526" y="625" type="curve"/>
      <point x="523" y="619" type="line"/>
      <point x="678" y="514"/>
      <point x="762" y="430"/>
      <point x="762" y="291" type="curve" smooth="yes"/>
      <point x="762" y="107"/>
      <point x="604" y="-27"/>
      <point x="377" y="-27" type="curve" smooth="yes"/>
      <point x="193" y="-27"/>
      <point x="49" y="99"/>
    </contour>
    <contour>
      <point x="189" y="312" type="curve" smooth="yes"/>
      <point x="189" y="140"/>
      <point x="324" y="47"/>
      <point x="431" y="47" type="curve" smooth="yes"/>
      <point x="553" y="47"/>
      <point x="632" y="116"/>
      <point x="632" y="233" type="curve" smooth="yes"/>
      <point x="632" y="346"/>
      <point x="522" y="437"/>
      <point x="332" y="557" type="curve"/>
      <point x="255" y="500"/>
      <point x="189" y="437"/>
    </contour>
    <contour>
      <point x="215" y="955" type="curve" smooth="yes"/>
      <point x="215" y="854"/>
      <point x="288" y="772"/>
      <point x="469" y="656" type="curve"/>
      <point x="540" y="703"/>
      <point x="596" y="771"/>
      <point x="596" y="890" type="curve" smooth="yes"/>
      <point x="596" y="1031"/>
      <point x="504" y="1141"/>
      <point x="398" y="1141" type="curve" smooth="yes"/>
      <point x="283" y="1141"/>
      <point x="215" y="1058"/>
    </contour>
  </outline>
</glyph>
<glyph name="nine" format="1">
  <advance width="845"/>
  <unicode hex="0039"/>
  <outline>
    <contour>
      <point x="48" y="818" type="curve" smooth="yes"/>
      <point x="48" y="1043"/>
      <point x="226" y="1209"/>
      <point x="430" y="1209" type="curve" smooth="yes"/>
      <point x="689" y="1209"/>
      <point x="792" y="994"/>
      <point x="792" y="760" type="curve" smooth="yes"/>
      <point x="792" y="392"/>
      <point x="553" y="42"/>
      <point x="178" y="-27" type="curve"/>
      <point x="159" y="31" type="line"/>
      <point x="485" y="128"/>
      <point x="588" y="354"/>
      <point x="618" y="576" type="curve"/>
      <point x="608" y="576" type="line"/>
      <point x="545" y="516"/>
      <point x="462" y="472"/>
      <point x="349" y="472" type="curve" smooth="yes"/>
      <point x="156" y="472"/>
      <point x="48" y="619"/>
    </contour>
    <contour>
      <point x="206" y="853" type="curve" smooth="yes"/>
      <point x="206" y="698"/>
      <point x="279" y="565"/>
      <point x="430" y="565" type="curve" smooth="yes"/>
      <point x="519" y="565"/>
      <point x="593" y="608"/>
      <point x="621" y="651" type="curve"/>
      <point x="629" y="696"/>
      <point x="630" y="755"/>
      <point x="630" y="793" type="curve" smooth="yes"/>
      <point x="630" y="997"/>
      <point x="535" y="1144"/>
      <point x="415" y="1144" type="curve" smooth="yes"/>
      <point x="263" y="1144"/>
      <point x="206" y="1036"/>
    </contour>
  </outline>
</glyph>
<glyph name="colon" format="1">
  <advance width="302"/>
  <unicode hex="003A"/>
  <outline>
    <contour>
      <point x="63" y="110" type="curve" smooth="yes"/>
      <point x="63" y="171"/>
      <point x="99" y="211"/>
      <point x="151" y="211" type="curve" smooth="yes"/>
      <point x="202" y="211"/>
      <point x="239" y="172"/>
      <point x="239" y="110" type="curve" smooth="yes"/>
      <point x="239" y="45"/>
      <point x="206" y="0"/>
      <point x="152" y="0" type="curve" smooth="yes"/>
      <point x="98" y="0"/>
      <point x="63" y="46"/>
    </contour>
    <contour>
      <point x="65" y="740" type="curve" smooth="yes"/>
      <point x="65" y="802"/>
      <point x="101" y="842"/>
      <point x="153" y="842" type="curve" smooth="yes"/>
      <point x="204" y="842"/>
      <point x="241" y="801"/>
      <point x="241" y="739" type="curve" smooth="yes"/>
      <point x="241" y="674"/>
      <point x="207" y="630"/>
      <point x="153" y="630" type="curve" smooth="yes"/>
      <point x="99" y="630"/>
      <point x="65" y="676"/>
    </contour>
  </outline>
</glyph>
<glyph name="equal" format="1">
  <advance width="754"/>
  <unicode hex="003D"/>
  <outline>
    <contour>
      <point x="62" y="330" type="line"/>
      <point x="73" y="415" type="line"/>
      <point x="688" y="415" type="line"/>
      <point x="677" y="330" type="line"/>
    </contour>
    <contour>
      <point x="65" y="569" type="line"/>
      <point x="76" y="655" type="line"/>
      <point x="691" y="655" type="line"/>
      <point x="680" y="569" type="line"/>
    </contour>
  </outline>
</glyph>
<glyph name="greater" format="1">
  <advance width="766"/>
  <unicode hex="003E"/>
  <outline>
    <contour>
      <point x="42" y="-25" type="line"/>
      <point x="533" y="437" type="line"/>
      <point x="62" y="914" type="line"/>
      <point x="97" y="974" type="line"/>
      <point x="718" y="456" type="line"/>
      <point x="719" y="427" type="line"/>
      <point x="84" y="-82" type="line"/>
    </contour>
  </outline>
</glyph>
<glyph name="question" format="1">
  <advance width="617"/>
  <unicode hex="003F"/>
  <outline>
    <contour>
      <point x="43" y="1159" type="curve" smooth="yes"/>
      <point x="43" y="1217"/>
      <point x="117" y="1287"/>
      <point x="241" y="1287" type="curve" smooth="yes"/>
      <point x="408" y="1287"/>
      <point x="570" y="1110"/>
      <point x="570" y="893" type="curve" smooth="yes"/>
      <point x="570" y="661"/>
      <point x="271" y="670"/>
      <point x="271" y="508" type="curve" smooth="yes"/>
      <point x="271" y="468"/>
      <point x="286" y="420"/>
      <point x="306" y="371" type="curve"/>
      <point x="248" y="354" type="line"/>
      <point x="212" y="395"/>
      <point x="167" y="484"/>
      <point x="167" y="565" type="curve" smooth="yes"/>
      <point x="167" y="786"/>
      <point x="476" y="765"/>
      <point x="476" y="943" type="curve" smooth="yes"/>
      <point x="476" y="1048"/>
      <point x="390" y="1147"/>
      <point x="294" y="1147" type="curve" smooth="yes"/>
      <point x="218" y="1147"/>
      <point x="145" y="1119"/>
      <point x="102" y="1073" type="curve"/>
      <point x="72" y="1087"/>
      <point x="43" y="1119"/>
    </contour>
    <contour>
      <point x="194" y="79" type="curve" smooth="yes"/>
      <point x="194" y="140"/>
      <point x="235" y="184"/>
      <point x="285" y="184" type="curve" smooth="yes"/>
      <point x="336" y="184"/>
      <point x="377" y="139"/>
      <point x="377" y="78" type="curve" smooth="yes"/>
      <point x="377" y="14"/>
      <point x="343" y="-35"/>
      <point x="285" y="-35" type="curve" smooth="yes"/>
      <point x="229" y="-35"/>
      <point x="194" y="17"/>
    </contour>
  </outline>
</glyph>
<glyph name="at" format="1">
  <advance width="1325"/>
  <unicode hex="0040"/>
  <outline>
    <contour>
      <point x="56" y="329" type="curve" smooth="yes"/>
      <point x="56" y="708"/>
      <point x="333" y="1045"/>
      <point x="757" y="1045" type="curve" smooth="yes"/>
      <point x="1038" y="1045"/>
      <point x="1272" y="856"/>
      <point x="1272" y="582" type="curve" smooth="yes"/>
      <point x="1272" y="311"/>
      <point x="1075" y="69"/>
      <point x="801" y="69" type="curve" smooth="yes"/>
      <point x="738" y="69"/>
      <point x="727" y="123"/>
      <point x="730" y="187" type="curve"/>
      <point x="721" y="187" type="line"/>
      <point x="681" y="127"/>
      <point x="597" y="60"/>
      <point x="521" y="60" type="curve" smooth="yes"/>
      <point x="422" y="60"/>
      <point x="357" y="154"/>
      <point x="357" y="325" type="curve" smooth="yes"/>
      <point x="357" y="610"/>
      <point x="569" y="790"/>
      <point x="738" y="790" type="curve" smooth="yes"/>
      <point x="791" y="790"/>
      <point x="832" y="786"/>
      <point x="890" y="773" type="curve"/>
      <point x="908" y="752" type="line"/>
      <point x="866" y="385" type="line" smooth="yes"/>
      <point x="846" y="213"/>
      <point x="832" y="152"/>
      <point x="878" y="152" type="curve" smooth="yes"/>
      <point x="1030" y="152"/>
      <point x="1164" y="314"/>
      <point x="1164" y="545" type="curve" smooth="yes"/>
      <point x="1164" y="811"/>
      <point x="956" y="972"/>
      <point x="720" y="972" type="curve" smooth="yes"/>
      <point x="400" y="972"/>
      <point x="178" y="693"/>
      <point x="178" y="355" type="curve" smooth="yes"/>
      <point x="178" y="52"/>
      <point x="370" y="-149"/>
      <point x="697" y="-149" type="curve" smooth="yes"/>
      <point x="847" y="-149"/>
      <point x="1009" y="-71"/>
      <point x="1056" y="-31" type="curve"/>
      <point x="1085" y="-82" type="line"/>
      <point x="997" y="-140"/>
      <point x="878" y="-227"/>
      <point x="660" y="-227" type="curve" smooth="yes"/>
      <point x="355" y="-227"/>
      <point x="56" y="-55"/>
    </contour>
    <contour>
      <point x="480" y="369" type="curve" smooth="yes"/>
      <point x="480" y="218"/>
      <point x="513" y="160"/>
      <point x="564" y="160" type="curve" smooth="yes"/>
      <point x="617" y="160"/>
      <point x="697" y="208"/>
      <point x="732" y="248" type="curve"/>
      <point x="786" y="703" type="line"/>
      <point x="763" y="709"/>
      <point x="715" y="714"/>
      <point x="684" y="714" type="curve" smooth="yes"/>
      <point x="564" y="714"/>
      <point x="480" y="550"/>
    </contour>
  </outline>
</glyph>
<glyph name="C" format="1">
  <advance width="1096"/>
  <unicode hex="0043"/>
  <outline>
    <contour>
      <point x="50" y="599" type="curve" smooth="yes"/>
      <point x="50" y="894"/>
      <point x="233" y="1270"/>
      <point x="653" y="1270" type="curve" smooth="yes"/>
      <point x="786" y="1270"/>
      <point x="908" y="1244"/>
      <point x="1004" y="1171" type="curve"/>
      <point x="973" y="836" type="line"/>
      <point x="905" y="846" type="line"/>
      <point x="869" y="1086" type="line"/>
      <point x="823" y="1146"/>
      <point x="745" y="1195"/>
      <point x="601" y="1195" type="curve" smooth="yes"/>
      <point x="388" y="1195"/>
      <point x="213" y="978"/>
      <point x="213" y="651" type="curve" smooth="yes"/>
      <point x="213" y="284"/>
      <point x="406" y="84"/>
      <point x="669" y="84" type="curve" smooth="yes"/>
      <point x="813" y="84"/>
      <point x="942" y="166"/>
      <point x="1026" y="252" type="curve"/>
      <point x="1055" y="195" type="line"/>
      <point x="984" y="100"/>
      <point x="812" y="-25"/>
      <point x="600" y="-25" type="curve" smooth="yes"/>
      <point x="294" y="-25"/>
      <point x="50" y="207"/>
    </contour>
  </outline>
</glyph>
<glyph name="E" format="1">
  <advance width="1098"/>
  <unicode hex="0045"/>
  <outline>
    <contour>
      <point x="47" y="1185" type="line"/>
      <point x="56" y="1244" type="line"/>
      <point x="1007" y="1244" type="line"/>
      <point x="976" y="925" type="line"/>
      <point x="909" y="934" type="line"/>
      <point x="879" y="1173" type="line"/>
      <point x="376" y="1173" type="line"/>
      <point x="376" y="668" type="line"/>
      <point x="691" y="668" type="line"/>
      <point x="731" y="797" type="line"/>
      <point x="803" y="808" type="line"/>
      <point x="770" y="419" type="line"/>
      <point x="704" y="408" type="line"/>
      <point x="679" y="594" type="line"/>
      <point x="376" y="594" type="line"/>
      <point x="376" y="75" type="line"/>
      <point x="905" y="75" type="line"/>
      <point x="991" y="324" type="line"/>
      <point x="1053" y="313" type="line"/>
      <point x="1023" y="0" type="line"/>
      <point x="53" y="0" type="line"/>
      <point x="59" y="58" type="line"/>
      <point x="228" y="96" type="line"/>
      <point x="228" y="1151" type="line"/>
    </contour>
  </outline>
</glyph>
<glyph name="F" format="1">
  <advance width="1053"/>
  <unicode hex="0046"/>
  <outline>
    <contour>
      <point x="48" y="1185" type="line"/>
      <point x="56" y="1244" type="line"/>
      <point x="1006" y="1244" type="line"/>
      <point x="969" y="923" type="line"/>
      <point x="901" y="933" type="line"/>
      <point x="873" y="1173" type="line"/>
      <point x="376" y="1173" type="line"/>
      <point x="376" y="652" type="line"/>
      <point x="687" y="652" type="line"/>
      <point x="728" y="782" type="line"/>
      <point x="799" y="792" type="line"/>
      <point x="770" y="402" type="line"/>
      <point x="701" y="391" type="line"/>
      <point x="677" y="579" type="line"/>
      <point x="376" y="579" type="line"/>
      <point x="375" y="96" type="line"/>
      <point x="616" y="68" type="line"/>
      <point x="604" y="0" type="line"/>
      <point x="53" y="0" type="line"/>
      <point x="58" y="58" type="line"/>
      <point x="227" y="96" type="line"/>
      <point x="227" y="1151" type="line"/>
    </contour>
  </outline>
</glyph>
<glyph name="J" format="1">
  <advance width="656"/>
  <unicode hex="004A"/>
  <outline>
    <contour>
      <point x="38" y="-259" type="line"/>
      <point x="199" y="-114"/>
      <point x="283" y="23"/>
      <point x="283" y="209" type="curve" smooth="yes"/>
      <point x="283" y="1154" type="line"/>
      <point x="101" y="1187" type="line"/>
      <point x="109" y="1244" type="line"/>
      <point x="612" y="1244" type="line"/>
      <point x="603" y="1187" type="line"/>
      <point x="433" y="1156" type="line"/>
      <point x="431" y="372" type="line" smooth="yes"/>
      <point x="429" y="-28"/>
      <point x="345" y="-144"/>
      <point x="76" y="-325" type="curve"/>
    </contour>
  </outline>
</glyph>
<glyph name="N" format="1">
  <advance width="1368"/>
  <unicode hex="004E"/>
  <outline>
    <contour>
      <point x="46" y="1188" type="line"/>
      <point x="56" y="1244" type="line"/>
      <point x="383" y="1244" type="line"/>
      <point x="1050" y="225" type="line"/>
      <point x="1050" y="1154" type="line"/>
      <point x="865" y="1187" type="line"/>
      <point x="874" y="1244" type="line"/>
      <point x="1324" y="1244" type="line"/>
      <point x="1313" y="1187" type="line"/>
      <point x="1147" y="1156" type="line"/>
      <point x="1147" y="-3" type="line"/>
      <point x="1043" y="-24" type="line"/>
      <point x="330" y="1047" type="line"/>
      <point x="330" y="90" type="line"/>
      <point x="514" y="63" type="line"/>
      <point x="504" y="0" type="line"/>
      <point x="56" y="0" type="line"/>
      <point x="62" y="58" type="line"/>
      <point x="229" y="96" type="line"/>
      <point x="229" y="1147" type="line"/>
    </contour>
  </outline>
</glyph>
<glyph name="O" format="1">
  <advance width="1266"/>
  <unicode hex="004F"/>
  <outline>
    <contour>
      <point x="50" y="620" type="curve" smooth="yes"/>
      <point x="50" y="1005"/>
      <point x="288" y="1274"/>
      <point x="669" y="1274" type="curve" smooth="yes"/>
      <point x="1021" y="1274"/>
      <point x="1218" y="984"/>
      <point x="1218" y="624" type="curve" smooth="yes"/>
      <point x="1218" y="299"/>
      <point x="1010" y="-27"/>
      <point x="599" y="-27" type="curve" smooth="yes"/>
      <point x="268" y="-27"/>
      <point x="50" y="263"/>
    </contour>
    <contour>
      <point x="217" y="678" type="curve" smooth="yes"/>
      <point x="217" y="346"/>
      <point x="356" y="58"/>
      <point x="647" y="58" type="curve" smooth="yes"/>
      <point x="944" y="58"/>
      <point x="1052" y="331"/>
      <point x="1052" y="574" type="curve" smooth="yes"/>
      <point x="1052" y="906"/>
      <point x="907" y="1197"/>
      <point x="620" y="1197" type="curve" smooth="yes"/>
      <point x="323" y="1197"/>
      <point x="217" y="939"/>
    </contour>
  </outline>
</glyph>
<glyph name="P" format="1">
  <advance width="1039"/>
  <unicode hex="0050"/>
  <outline>
    <contour>
      <point x="46" y="0" type="line"/>
      <point x="54" y="58" type="line"/>
      <point x="217" y="96" type="line"/>
      <point x="217" y="1129" type="line"/>
      <point x="51" y="1155" type="line"/>
      <point x="59" y="1211" type="line"/>
      <point x="188" y="1231"/>
      <point x="329" y="1256"/>
      <point x="500" y="1256" type="curve" smooth="yes"/>
      <point x="762" y="1256"/>
      <point x="993" y="1166"/>
      <point x="993" y="893" type="curve" smooth="yes"/>
      <point x="993" y="652"/>
      <point x="766" y="488"/>
      <point x="519" y="488" type="curve" smooth="yes"/>
      <point x="493" y="488"/>
      <point x="468" y="489"/>
      <point x="445" y="491" type="curve"/>
      <point x="430" y="553" type="line"/>
      <point x="483" y="555" type="line" smooth="yes"/>
      <point x="724" y="564"/>
      <point x="827" y="687"/>
      <point x="827" y="865" type="curve" smooth="yes"/>
      <point x="827" y="1036"/>
      <point x="719" y="1192"/>
      <point x="474" y="1192" type="curve" smooth="yes"/>
      <point x="433" y="1192"/>
      <point x="368" y="1186"/>
      <point x="368" y="1186" type="curve"/>
      <point x="368" y="94" type="line"/>
      <point x="603" y="65" type="line"/>
      <point x="592" y="0" type="line"/>
    </contour>
  </outline>
</glyph>
<glyph name="S" format="1">
  <advance width="850"/>
  <unicode hex="0053"/>
  <outline>
    <contour>
      <point x="48" y="119" type="curve"/>
      <point x="70" y="395" type="line"/>
      <point x="145" y="384" type="line"/>
      <point x="178" y="181" type="line"/>
      <point x="219" y="109"/>
      <point x="316" y="57"/>
      <point x="419" y="57" type="curve" smooth="yes"/>
      <point x="534" y="57"/>
      <point x="658" y="126"/>
      <point x="658" y="274" type="curve" smooth="yes"/>
      <point x="658" y="554"/>
      <point x="84" y="577"/>
      <point x="84" y="938" type="curve" smooth="yes"/>
      <point x="84" y="1151"/>
      <point x="266" y="1270"/>
      <point x="445" y="1270" type="curve" smooth="yes"/>
      <point x="553" y="1270"/>
      <point x="659" y="1235"/>
      <point x="732" y="1165" type="curve"/>
      <point x="732" y="1161"/>
      <point x="705" y="869"/>
      <point x="705" y="869" type="curve"/>
      <point x="632" y="878" type="line"/>
      <point x="606" y="1096" type="line"/>
      <point x="579" y="1147"/>
      <point x="496" y="1200"/>
      <point x="415" y="1200" type="curve" smooth="yes"/>
      <point x="309" y="1200"/>
      <point x="220" y="1132"/>
      <point x="220" y="1001" type="curve" smooth="yes"/>
      <point x="220" y="699"/>
      <point x="805" y="680"/>
      <point x="805" y="331" type="curve" smooth="yes"/>
      <point x="805" y="122"/>
      <point x="619" y="-25"/>
      <point x="381" y="-25" type="curve" smooth="yes"/>
      <point x="237" y="-25"/>
      <point x="112" y="40"/>
    </contour>
  </outline>
</glyph>
<glyph name="U" format="1">
  <advance width="1398"/>
  <unicode hex="0055"/>
  <outline>
    <contour>
      <point x="43" y="1187" type="line"/>
      <point x="52" y="1244" type="line"/>
      <point x="550" y="1244" type="line"/>
      <point x="543" y="1187" type="line"/>
      <point x="374" y="1156" type="line"/>
      <point x="374" y="503" type="line" smooth="yes"/>
      <point x="374" y="188"/>
      <point x="522" y="73"/>
      <point x="734" y="73" type="curve" smooth="yes"/>
      <point x="948" y="73"/>
      <point x="1077" y="202"/>
      <point x="1077" y="466" type="curve" smooth="yes"/>
      <point x="1078" y="1154" type="line"/>
      <point x="894" y="1187" type="line"/>
      <point x="902" y="1244" type="line"/>
      <point x="1353" y="1244" type="line"/>
      <point x="1344" y="1187" type="line"/>
      <point x="1178" y="1156" type="line"/>
      <point x="1173" y="503" type="line" smooth="yes"/>
      <point x="1171" y="160"/>
      <point x="1035" y="-27"/>
      <point x="693" y="-27" type="curve" smooth="yes"/>
      <point x="462" y="-27"/>
      <point x="226" y="61"/>
      <point x="226" y="465" type="curve" smooth="yes"/>
      <point x="226" y="1154" type="line"/>
    </contour>
  </outline>
</glyph>
<glyph name="V" format="1">
  <advance width="1325"/>
  <unicode hex="0056"/>
  <outline>
    <contour>
      <point x="44" y="1188" type="line"/>
      <point x="51" y="1244" type="line"/>
      <point x="533" y="1244" type="line"/>
      <point x="526" y="1188" type="line"/>
      <point x="357" y="1156" type="line"/>
      <point x="687" y="206" type="line"/>
      <point x="1035" y="1152" type="line"/>
      <point x="850" y="1188" type="line"/>
      <point x="856" y="1244" type="line"/>
      <point x="1278" y="1244" type="line"/>
      <point x="1273" y="1188" type="line"/>
      <point x="1143" y="1156" type="line"/>
      <point x="709" y="-4" type="line"/>
      <point x="607" y="-25" type="line"/>
      <point x="191" y="1152" type="line"/>
    </contour>
  </outline>
</glyph>
<glyph name="X" format="1">
  <advance width="1294"/>
  <unicode hex="0058"/>
  <outline>
    <contour>
      <point x="46" y="0" type="line"/>
      <point x="55" y="56" type="line"/>
      <point x="181" y="92" type="line"/>
      <point x="572" y="620" type="line"/>
      <point x="208" y="1154" type="line"/>
      <point x="71" y="1189" type="line"/>
      <point x="79" y="1244" type="line"/>
      <point x="545" y="1244" type="line"/>
      <point x="538" y="1189" type="line"/>
      <point x="382" y="1152" type="line"/>
      <point x="671" y="727" type="line"/>
      <point x="985" y="1155" type="line"/>
      <point x="814" y="1187" type="line"/>
      <point x="823" y="1244" type="line"/>
      <point x="1225" y="1244" type="line"/>
      <point x="1221" y="1188" type="line"/>
      <point x="1095" y="1159" type="line"/>
      <point x="727" y="654" type="line"/>
      <point x="1105" y="84" type="line"/>
      <point x="1241" y="58" type="line"/>
      <point x="1231" y="0" type="line"/>
      <point x="766" y="0" type="line"/>
      <point x="775" y="51" type="line"/>
      <point x="937" y="90" type="line"/>
      <point x="628" y="550" type="line"/>
      <point x="295" y="89" type="line"/>
      <point x="461" y="62" type="line"/>
      <point x="449" y="0" type="line"/>
    </contour>
  </outline>
</glyph>
<glyph name="Y" format="1">
  <advance width="1214"/>
  <unicode hex="0059"/>
  <outline>
    <contour>
      <point x="44" y="1188" type="line"/>
      <point x="53" y="1244" type="line"/>
      <point x="516" y="1244" type="line"/>
      <point x="508" y="1188" type="line"/>
      <point x="345" y="1156" type="line"/>
      <point x="641" y="605" type="line"/>
      <point x="928" y="1152" type="line"/>
      <point x="744" y="1188" type="line"/>
      <point x="750" y="1244" type="line"/>
      <point x="1167" y="1244" type="line"/>
      <point x="1161" y="1188" type="line"/>
      <point x="1034" y="1156" type="line"/>
      <point x="687" y="509" type="line"/>
      <point x="687" y="91" type="line"/>
      <point x="859" y="63" type="line"/>
      <point x="850" y="0" type="line"/>
      <point x="367" y="0" type="line"/>
      <point x="375" y="58" type="line"/>
      <point x="537" y="96" type="line"/>
      <point x="537" y="497" type="line"/>
      <point x="183" y="1152" type="line"/>
    </contour>
  </outline>
</glyph>
<glyph name="Z" format="1">
  <advance width="1070"/>
  <unicode hex="005A"/>
  <outline>
    <contour>
      <point x="49" y="71" type="line"/>
      <point x="823" y="1170" type="line"/>
      <point x="236" y="1170" type="line"/>
      <point x="158" y="903" type="line"/>
      <point x="94" y="918" type="line"/>
      <point x="103" y="1244" type="line"/>
      <point x="1006" y="1244" type="line"/>
      <point x="1008" y="1188" type="line"/>
      <point x="223" y="79" type="line"/>
      <point x="841" y="79" type="line"/>
      <point x="956" y="347" type="line"/>
      <point x="1025" y="336" type="line"/>
      <point x="977" y="0" type="line"/>
      <point x="56" y="0" type="line"/>
    </contour>
  </outline>
</glyph>
<glyph name="bracketright" format="1">
  <advance width="485"/>
  <unicode hex="005D"/>
  <outline>
    <contour>
      <point x="42" y="-306" type="line"/>
      <point x="279" y="-286" type="line"/>
      <point x="279" y="1164" type="line"/>
      <point x="44" y="1185" type="line"/>
      <point x="52" y="1256" type="line"/>
      <point x="409" y="1256" type="line"/>
      <point x="410" y="-375" type="line"/>
      <point x="50" y="-375" type="line"/>
    </contour>
  </outline>
</glyph>
<glyph name="asciicircum" format="1">
  <advance width="743"/>
  <unicode hex="005E"/>
  <outline>
    <contour>
      <point x="51" y="826" type="line"/>
      <point x="340" y="1238" type="line"/>
      <point x="396" y="1251" type="line"/>
      <point x="690" y="824" type="line"/>
      <point x="642" y="792" type="line"/>
      <point x="365" y="1098" type="line"/>
      <point x="355" y="1098" type="line"/>
      <point x="93" y="797" type="line"/>
    </contour>
  </outline>
</glyph>
<glyph name="grave" format="1">
  <advance width="393"/>
  <unicode hex="0060"/>
  <outline>
    <contour>
      <point x="77" y="1661" type="line"/>
      <point x="181" y="1698" type="line"/>
      <point x="314" y="1363" type="line"/>
      <point x="263" y="1332" type="line"/>
    </contour>
  </outline>
</glyph>
<glyph name="a" format="1">
  <advance width="821"/>
  <unicode hex="0061"/>
  <outline>
    <contour>
      <point x="45.5" y="158.5" type="curve" smooth="yes"/>
      <point x="45.5" y="325.5"/>
      <point x="199" y="447"/>
      <point x="521" y="461" type="curve"/>
      <point x="521" y="528" type="line" smooth="yes"/>
      <point x="521" y="697.5"/>
      <point x="474.391" y="812.942"/>
      <point x="328.5" y="812.942" type="curve" smooth="yes"/>
      <point x="223.509" y="812.942"/>
      <point x="206.936" y="737.312"/>
      <point x="197.5" y="590.5" type="curve"/>
      <point x="148.189" y="590.5"/>
      <point x="84.5" y="605.142"/>
      <point x="84.5" y="680.5" type="curve" smooth="yes"/>
      <point x="84.5" y="787.239"/>
      <point x="254.5" y="884.942"/>
      <point x="401" y="884.942" type="curve" smooth="yes"/>
      <point x="573.079" y="884.942"/>
      <point x="647.5" y="789.562"/>
      <point x="647.5" y="581" type="curve" smooth="yes"/>
      <point x="647.5" y="229.5" type="line" smooth="yes"/>
      <point x="647.5" y="137.5"/>
      <point x="657.5" y="88"/>
      <point x="747.5" y="73" type="curve" smooth="yes"/>
      <point x="805.5" y="62" type="line"/>
      <point x="796.5" y="2" type="line"/>
      <point x="763" y="-5.5"/>
      <point x="728.5" y="-18"/>
      <point x="678" y="-18" type="curve" smooth="yes"/>
      <point x="578.672" y="-18"/>
      <point x="537.5" y="50.5"/>
      <point x="537.5" y="115.5" type="curve" smooth="yes"/>
      <point x="537.5" y="129.5" type="line"/>
      <point x="529.5" y="129.5" type="line"/>
      <point x="502" y="74.8654"/>
      <point x="408.021" y="-25"/>
      <point x="251.5" y="-25" type="curve" smooth="yes"/>
      <point x="143.962" y="-25"/>
      <point x="45.5" y="42.3077"/>
    </contour>
    <contour>
      <point x="187" y="197" type="curve" smooth="yes"/>
      <point x="187" y="135.993"/>
      <point x="233.857" y="70.5"/>
      <point x="318" y="70.5" type="curve" smooth="yes"/>
      <point x="410.521" y="70.5"/>
      <point x="488.202" y="127.084"/>
      <point x="521" y="186.5" type="curve"/>
      <point x="521" y="410" type="line"/>
      <point x="317.479" y="387.586"/>
      <point x="187" y="323.5"/>
    </contour>
  </outline>
</glyph>
<glyph name="b" format="1">
  <advance width="978"/>
  <unicode hex="0062"/>
  <outline>
    <contour>
      <point x="43" y="1221" type="line"/>
      <point x="52" y="1275" type="line"/>
      <point x="310" y="1295" type="line"/>
      <point x="325" y="1279" type="line"/>
      <point x="325" y="837" type="line"/>
      <point x="311" y="733" type="line"/>
      <point x="323" y="733" type="line"/>
      <point x="402" y="822"/>
      <point x="499" y="886"/>
      <point x="612" y="886" type="curve" smooth="yes"/>
      <point x="805" y="886"/>
      <point x="930" y="718"/>
      <point x="930" y="466" type="curve" smooth="yes"/>
      <point x="930" y="149"/>
      <point x="705" y="-24"/>
      <point x="445" y="-24" type="curve" smooth="yes"/>
      <point x="355" y="-24"/>
      <point x="272" y="0"/>
      <point x="196" y="49" type="curve"/>
      <point x="196" y="1179" type="line"/>
    </contour>
    <contour>
      <point x="325" y="126" type="line"/>
      <point x="366" y="85"/>
      <point x="446" y="62"/>
      <point x="533" y="62" type="curve" smooth="yes"/>
      <point x="658" y="62"/>
      <point x="788" y="182"/>
      <point x="788" y="406" type="curve" smooth="yes"/>
      <point x="788" y="615"/>
      <point x="725" y="785"/>
      <point x="545" y="785" type="curve" smooth="yes"/>
      <point x="480" y="785"/>
      <point x="404" y="752"/>
      <point x="325" y="668" type="curve"/>
    </contour>
  </outline>
</glyph>
<glyph name="c" format="1">
  <advance width="765"/>
  <unicode hex="0063"/>
  <outline>
    <contour>
      <point x="52" y="405" type="curve" smooth="yes"/>
      <point x="52" y="702"/>
      <point x="235" y="888"/>
      <point x="452" y="888" type="curve" smooth="yes"/>
      <point x="620" y="888"/>
      <point x="683" y="805"/>
      <point x="683" y="726" type="curve" smooth="yes"/>
      <point x="683" y="673"/>
      <point x="654" y="638"/>
      <point x="588" y="627" type="curve"/>
      <point x="551" y="729"/>
      <point x="500" y="810"/>
      <point x="404" y="810" type="curve" smooth="yes"/>
      <point x="285" y="810"/>
      <point x="192" y="692"/>
      <point x="192" y="480" type="curve" smooth="yes"/>
      <point x="192" y="247"/>
      <point x="300" y="69"/>
      <point x="484" y="69" type="curve" smooth="yes"/>
      <point x="583" y="69"/>
      <point x="655" y="109"/>
      <point x="703" y="148" type="curve"/>
      <point x="724" y="102" type="line"/>
      <point x="673" y="33"/>
      <point x="547" y="-30"/>
      <point x="418" y="-30" type="curve" smooth="yes"/>
      <point x="187" y="-30"/>
      <point x="52" y="165"/>
    </contour>
  </outline>
</glyph>
<glyph name="d" format="1">
  <advance width="983"/>
  <unicode hex="0064"/>
  <outline>
    <contour>
      <point x="51" y="393" type="curve" smooth="yes"/>
      <point x="51" y="692"/>
      <point x="265" y="889"/>
      <point x="477" y="889" type="curve" smooth="yes"/>
      <point x="543" y="889"/>
      <point x="628" y="866"/>
      <point x="661" y="841" type="curve"/>
      <point x="669" y="841" type="line"/>
      <point x="655" y="972" type="line"/>
      <point x="655" y="1181" type="line"/>
      <point x="503" y="1224" type="line"/>
      <point x="512" y="1277" type="line"/>
      <point x="770" y="1299" type="line"/>
      <point x="785" y="1282" type="line"/>
      <point x="785" y="222" type="line" smooth="yes"/>
      <point x="785" y="91"/>
      <point x="833" y="81"/>
      <point x="884" y="70" type="curve" smooth="yes"/>
      <point x="937" y="58" type="line"/>
      <point x="928" y="-2" type="line"/>
      <point x="888" y="-14"/>
      <point x="861" y="-22"/>
      <point x="807" y="-22" type="curve" smooth="yes"/>
      <point x="711" y="-22"/>
      <point x="669" y="42"/>
      <point x="669" y="124" type="curve" smooth="yes"/>
      <point x="669" y="131" type="line"/>
      <point x="659" y="131" type="line"/>
      <point x="603" y="54"/>
      <point x="509" y="-21"/>
      <point x="370" y="-21" type="curve" smooth="yes"/>
      <point x="192" y="-21"/>
      <point x="51" y="122"/>
    </contour>
    <contour>
      <point x="189" y="452" type="curve" smooth="yes"/>
      <point x="189" y="217"/>
      <point x="278" y="77"/>
      <point x="433" y="77" type="curve" smooth="yes"/>
      <point x="517" y="77"/>
      <point x="616" y="135"/>
      <point x="659" y="193" type="curve"/>
      <point x="659" y="685" type="line"/>
      <point x="603" y="766"/>
      <point x="509" y="810"/>
      <point x="428" y="810" type="curve" smooth="yes"/>
      <point x="284" y="810"/>
      <point x="189" y="674"/>
    </contour>
  </outline>
</glyph>
<glyph name="e" format="1">
  <advance width="765"/>
  <unicode hex="0065"/>
  <outline>
    <contour>
      <point x="52" y="420" type="curve" smooth="yes"/>
      <point x="52" y="720"/>
      <point x="251" y="886"/>
      <point x="444" y="886" type="curve" smooth="yes"/>
      <point x="590" y="886"/>
      <point x="694" y="793"/>
      <point x="694" y="582" type="curve" smooth="yes"/>
      <point x="694" y="551"/>
      <point x="686" y="486"/>
      <point x="677" y="451" type="curve"/>
      <point x="193" y="445" type="line"/>
      <point x="197" y="257"/>
      <point x="282" y="78"/>
      <point x="480" y="78" type="curve" smooth="yes"/>
      <point x="564" y="78"/>
      <point x="626" y="97"/>
      <point x="701" y="148" type="curve"/>
      <point x="720" y="104" type="line"/>
      <point x="652" y="25"/>
      <point x="544" y="-30"/>
      <point x="411" y="-30" type="curve" smooth="yes"/>
      <point x="222" y="-30"/>
      <point x="52" y="117"/>
    </contour>
    <contour>
      <point x="195" y="507" type="curve"/>
      <point x="546" y="530" type="line"/>
      <point x="552" y="547"/>
      <point x="553" y="589"/>
      <point x="553" y="610" type="curve" smooth="yes"/>
      <point x="553" y="730"/>
      <point x="493" y="809"/>
      <point x="395" y="809" type="curve" smooth="yes"/>
      <point x="290" y="809"/>
      <point x="200" y="709"/>
    </contour>
  </outline>
</glyph>
<glyph name="f" format="1">
  <advance width="636"/>
  <unicode hex="0066"/>
  <outline>
    <contour>
      <point x="43" y="0" type="line"/>
      <point x="55" y="51" type="line"/>
      <point x="207" y="87" type="line"/>
      <point x="207" y="791" type="line"/>
      <point x="58" y="791" type="line"/>
      <point x="70" y="845" type="line"/>
      <point x="208" y="867" type="line"/>
      <point x="237" y="1170"/>
      <point x="413" y="1305"/>
      <point x="555" y="1305" type="curve" smooth="yes"/>
      <point x="661" y="1305"/>
      <point x="733" y="1260"/>
      <point x="733" y="1192" type="curve" smooth="yes"/>
      <point x="733" y="1148"/>
      <point x="697" y="1112"/>
      <point x="664" y="1099" type="curve"/>
      <point x="626" y="1153"/>
      <point x="562" y="1220"/>
      <point x="487" y="1220" type="curve" smooth="yes"/>
      <point x="410" y="1220"/>
      <point x="344" y="1149"/>
      <point x="342" y="981" type="curve"/>
      <point x="341" y="861" type="line"/>
      <point x="599" y="861" type="line"/>
      <point x="586" y="791" type="line"/>
      <point x="341" y="791" type="line"/>
      <point x="341" y="91" type="line"/>
      <point x="587" y="61" type="line"/>
      <point x="580" y="0" type="line"/>
    </contour>
  </outline>
</glyph>
<glyph name="g" format="1">
  <advance width="902"/>
  <unicode hex="0067"/>
  <outline>
    <contour>
      <point x="38" y="-165" type="curve" smooth="yes"/>
      <point x="38" y="-62"/>
      <point x="147" y="-4"/>
      <point x="208" y="28" type="curve"/>
      <point x="208" y="35" type="line"/>
      <point x="154" y="60"/>
      <point x="112" y="105"/>
      <point x="112" y="162" type="curve" smooth="yes"/>
      <point x="112" y="212"/>
      <point x="192" y="283"/>
      <point x="264" y="322" type="curve"/>
      <point x="264" y="327" type="line"/>
      <point x="213" y="346"/>
      <point x="113" y="442"/>
      <point x="113" y="578" type="curve" smooth="yes"/>
      <point x="113" y="744"/>
      <point x="261" y="885"/>
      <point x="432" y="885" type="curve" smooth="yes"/>
      <point x="508" y="885"/>
      <point x="572" y="858"/>
      <point x="623" y="822" type="curve"/>
      <point x="638" y="822"/>
      <point x="842" y="838"/>
      <point x="842" y="838" type="curve"/>
      <point x="858" y="820" type="line"/>
      <point x="823" y="725" type="line"/>
      <point x="811" y="723" type="line"/>
      <point x="670" y="764" type="line"/>
      <point x="667" y="753" type="line"/>
      <point x="682" y="727"/>
      <point x="711" y="649"/>
      <point x="711" y="588" type="curve" smooth="yes"/>
      <point x="711" y="416"/>
      <point x="543" y="291"/>
      <point x="396" y="291" type="curve" smooth="yes"/>
      <point x="356" y="291"/>
      <point x="315" y="302"/>
      <point x="303" y="306" type="curve"/>
      <point x="273" y="277"/>
      <point x="237" y="245"/>
      <point x="237" y="210" type="curve" smooth="yes"/>
      <point x="237" y="158"/>
      <point x="288" y="132"/>
      <point x="407" y="132" type="curve" smooth="yes"/>
      <point x="561" y="132" type="line" smooth="yes"/>
      <point x="722" y="132"/>
      <point x="831" y="110"/>
      <point x="829" y="-58" type="curve" smooth="yes"/>
      <point x="827" y="-231"/>
      <point x="616" y="-387"/>
      <point x="384" y="-387" type="curve" smooth="yes"/>
      <point x="188" y="-387"/>
      <point x="38" y="-313"/>
    </contour>
    <contour>
      <point x="174" y="-116" type="curve" smooth="yes"/>
      <point x="174" y="-251"/>
      <point x="286" y="-299"/>
      <point x="450" y="-299" type="curve" smooth="yes"/>
      <point x="579" y="-299"/>
      <point x="701" y="-240"/>
      <point x="701" y="-107" type="curve" smooth="yes"/>
      <point x="701" y="-18"/>
      <point x="664" y="17"/>
      <point x="480" y="17" type="curve" smooth="yes"/>
      <point x="268" y="17" type="line"/>
      <point x="268" y="17"/>
      <point x="174" y="-15"/>
    </contour>
    <contour>
      <point x="240" y="599" type="curve" smooth="yes"/>
      <point x="240" y="471"/>
      <point x="324" y="359"/>
      <point x="423" y="359" type="curve" smooth="yes"/>
      <point x="512" y="359"/>
      <point x="581" y="424"/>
      <point x="581" y="565" type="curve" smooth="yes"/>
      <point x="581" y="696"/>
      <point x="514" y="825"/>
      <point x="408" y="825" type="curve" smooth="yes"/>
      <point x="290" y="825"/>
      <point x="240" y="730"/>
    </contour>
  </outline>
</glyph>
<glyph name="h" format="1">
  <advance width="1064"/>
  <unicode hex="0068"/>
  <outline>
    <contour>
      <point x="46" y="0" type="line"/>
      <point x="57" y="57" type="line"/>
      <point x="211" y="87" type="line"/>
      <point x="211" y="1184" type="line"/>
      <point x="54" y="1226" type="line"/>
      <point x="63" y="1280" type="line"/>
      <point x="327" y="1301" type="line"/>
      <point x="343" y="1284" type="line"/>
      <point x="343" y="839" type="line"/>
      <point x="330" y="733" type="line"/>
      <point x="338" y="733" type="line"/>
      <point x="417" y="819"/>
      <point x="527" y="891"/>
      <point x="642" y="891" type="curve" smooth="yes"/>
      <point x="781" y="891"/>
      <point x="875" y="816"/>
      <point x="875" y="588" type="curve" smooth="yes"/>
      <point x="875" y="86" type="line"/>
      <point x="1017" y="58" type="line"/>
      <point x="1008" y="0" type="line"/>
      <point x="597" y="0" type="line"/>
      <point x="606" y="54" type="line"/>
      <point x="743" y="86" type="line"/>
      <point x="746" y="561" type="line"/>
      <point x="746" y="568" type="line" smooth="yes"/>
      <point x="746" y="729"/>
      <point x="663" y="783"/>
      <point x="572" y="783" type="curve" smooth="yes"/>
      <point x="482" y="783"/>
      <point x="414" y="747"/>
      <point x="343" y="670" type="curve"/>
      <point x="343" y="87" type="line"/>
      <point x="488" y="58" type="line"/>
      <point x="478" y="0" type="line"/>
    </contour>
  </outline>
</glyph>
<glyph name="i" format="1">
  <advance width="556"/>
  <unicode hex="0069"/>
  <outline>
    <contour>
      <point x="45" y="0" type="line"/>
      <point x="57" y="55" type="line"/>
      <point x="208" y="87" type="line"/>
      <point x="208" y="772" type="line"/>
      <point x="56" y="814" type="line"/>
      <point x="64" y="865" type="line"/>
      <point x="323" y="887" type="line"/>
      <point x="339" y="871" type="line"/>
      <point x="339" y="87" type="line"/>
      <point x="499" y="57" type="line"/>
      <point x="488" y="0" type="line"/>
    </contour>
    <component base="dotaccent" xOffset="107" yOffset="995"/>
  </outline>
</glyph>
<glyph name="j" format="1">
  <advance width="463"/>
  <unicode hex="006A"/>
  <outline>
    <contour>
      <point x="38" y="-315" type="line"/>
      <point x="146" y="-234"/>
      <point x="250" y="-111"/>
      <point x="250" y="160" type="curve" smooth="yes"/>
      <point x="250" y="760" type="line"/>
      <point x="99" y="801" type="line"/>
      <point x="108" y="855" type="line"/>
      <point x="366" y="875" type="line"/>
      <point x="383" y="858" type="line"/>
      <point x="383" y="151" type="line" smooth="yes"/>
      <point x="383" y="-116"/>
      <point x="265" y="-266"/>
      <point x="123" y="-356" type="curve" smooth="yes"/>
      <point x="79" y="-383" type="line"/>
    </contour>
    <contour>
      <point x="216" y="1191" type="curve" smooth="yes"/>
      <point x="216" y="1256"/>
      <point x="254" y="1299"/>
      <point x="309" y="1299" type="curve" smooth="yes"/>
      <point x="363" y="1299"/>
      <point x="403" y="1256"/>
      <point x="403" y="1191" type="curve" smooth="yes"/>
      <point x="403" y="1124"/>
      <point x="366" y="1077"/>
      <point x="309" y="1077" type="curve" smooth="yes"/>
      <point x="252" y="1077"/>
      <point x="216" y="1125"/>
    </contour>
  </outline>
</glyph>
<glyph name="k" format="1">
  <advance width="1020"/>
  <unicode hex="006B"/>
  <outline>
    <contour>
      <point x="47" y="0" type="line"/>
      <point x="57" y="55" type="line"/>
      <point x="211" y="87" type="line"/>
      <point x="211" y="1181" type="line"/>
      <point x="55" y="1222" type="line"/>
      <point x="61" y="1274" type="line"/>
      <point x="324" y="1296" type="line"/>
      <point x="340" y="1279" type="line"/>
      <point x="340" y="87" type="line"/>
      <point x="500" y="57" type="line"/>
      <point x="491" y="0" type="line"/>
    </contour>
    <contour>
      <point x="370" y="429" type="line"/>
      <point x="370" y="447" type="line"/>
      <point x="656" y="781" type="line"/>
      <point x="522" y="818" type="line"/>
      <point x="530" y="873" type="line"/>
      <point x="923" y="873" type="line"/>
      <point x="913" y="819" type="line"/>
      <point x="763" y="782" type="line"/>
      <point x="498" y="473" type="line"/>
      <point x="598" y="355" type="line" smooth="yes"/>
      <point x="760" y="162"/>
      <point x="804" y="80"/>
      <point x="930" y="64" type="curve" smooth="yes"/>
      <point x="969" y="59" type="line"/>
      <point x="960" y="0" type="line"/>
      <point x="945" y="-5"/>
      <point x="894" y="-20"/>
      <point x="849" y="-20" type="curve" smooth="yes"/>
      <point x="733" y="-20"/>
      <point x="673" y="43"/>
      <point x="504" y="258" type="curve"/>
    </contour>
  </outline>
</glyph>
<glyph name="l" format="1">
  <advance width="544"/>
  <unicode hex="006C"/>
  <outline>
    <contour>
      <point x="46" y="0" type="line"/>
      <point x="56" y="55" type="line"/>
      <point x="210" y="87" type="line"/>
      <point x="210" y="1186" type="line"/>
      <point x="54" y="1227" type="line"/>
      <point x="60" y="1279" type="line"/>
      <point x="322" y="1300" type="line"/>
      <point x="339" y="1284" type="line"/>
      <point x="339" y="87" type="line"/>
      <point x="500" y="57" type="line"/>
      <point x="488" y="0" type="line"/>
    </contour>
  </outline>
</glyph>
<glyph name="m" format="1">
  <advance width="1596"/>
  <unicode hex="006D"/>
  <outline>
    <contour>
      <point x="48" y="0" type="line"/>
      <point x="57" y="54" type="line"/>
      <point x="209" y="86" type="line"/>
      <point x="209" y="753" type="line"/>
      <point x="52" y="793" type="line"/>
      <point x="58" y="845" type="line"/>
      <point x="327" y="875" type="line"/>
      <point x="339" y="861" type="line"/>
      <point x="328" y="728" type="line"/>
      <point x="336" y="728" type="line"/>
      <point x="400" y="807"/>
      <point x="517" y="889"/>
      <point x="643" y="889" type="curve" smooth="yes"/>
      <point x="743" y="889"/>
      <point x="831" y="836"/>
      <point x="856" y="723" type="curve"/>
      <point x="867" y="723" type="line"/>
      <point x="929" y="802"/>
      <point x="1042" y="885"/>
      <point x="1168" y="885" type="curve" smooth="yes"/>
      <point x="1344" y="885"/>
      <point x="1404" y="770"/>
      <point x="1404" y="597" type="curve" smooth="yes"/>
      <point x="1404" y="87" type="line"/>
      <point x="1546" y="60" type="line"/>
      <point x="1533" y="2" type="line"/>
      <point x="1136" y="2" type="line"/>
      <point x="1142" y="54" type="line"/>
      <point x="1272" y="86" type="line"/>
      <point x="1272" y="573" type="line" smooth="yes"/>
      <point x="1272" y="705"/>
      <point x="1209" y="780"/>
      <point x="1096" y="780" type="curve" smooth="yes"/>
      <point x="995" y="780"/>
      <point x="918" y="709"/>
      <point x="872" y="660" type="curve"/>
      <point x="872" y="86" type="line"/>
      <point x="1011" y="58" type="line"/>
      <point x="1003" y="0" type="line"/>
      <point x="605" y="0" type="line"/>
      <point x="613" y="54" type="line"/>
      <point x="746" y="86" type="line"/>
      <point x="746" y="573" type="line" smooth="yes"/>
      <point x="746" y="697"/>
      <point x="681" y="781"/>
      <point x="573" y="781" type="curve" smooth="yes"/>
      <point x="482" y="781"/>
      <point x="394" y="733"/>
      <point x="340" y="666" type="curve"/>
      <point x="340" y="86" type="line"/>
      <point x="483" y="58" type="line"/>
      <point x="473" y="0" type="line"/>
    </contour>
  </outline>
</glyph>
<glyph name="n" format="1">
  <advance width="1070"/>
  <unicode hex="006E"/>
  <outline>
    <contour>
      <point x="48" y="0" type="line"/>
      <point x="56" y="52" type="line"/>
      <point x="209" y="86" type="line"/>
      <point x="209" y="755" type="line"/>
      <point x="54" y="794" type="line"/>
      <point x="61" y="846" type="line"/>
      <point x="326" y="876" type="line"/>
      <point x="338" y="862" type="line"/>
      <point x="328" y="730" type="line"/>
      <point x="336" y="730" type="line"/>
      <point x="393" y="801"/>
      <point x="514" y="890"/>
      <point x="647" y="890" type="curve" smooth="yes"/>
      <point x="784" y="890"/>
      <point x="878" y="798"/>
      <point x="878" y="600" type="curve" smooth="yes"/>
      <point x="878" y="86" type="line"/>
      <point x="1019" y="58" type="line"/>
      <point x="1012" y="0" type="line"/>
      <point x="599" y="0" type="line"/>
      <point x="607" y="52" type="line"/>
      <point x="747" y="86" type="line"/>
      <point x="747" y="568" type="line" smooth="yes"/>
      <point x="747" y="721"/>
      <point x="669" y="781"/>
      <point x="577" y="781" type="curve" smooth="yes"/>
      <point x="482" y="781"/>
      <point x="417" y="748"/>
      <point x="339" y="670" type="curve"/>
      <point x="339" y="86" type="line"/>
      <point x="485" y="58" type="line"/>
      <point x="475" y="0" type="line"/>
    </contour>
  </outline>
</glyph>
<glyph name="o" format="1">
  <advance width="893"/>
  <unicode hex="006F"/>
  <outline>
    <contour>
      <point x="51" y="411" type="curve" smooth="yes"/>
      <point x="51" y="714"/>
      <point x="245" y="891"/>
      <point x="469" y="891" type="curve" smooth="yes"/>
      <point x="701" y="891"/>
      <point x="845" y="694"/>
      <point x="845" y="439" type="curve" smooth="yes"/>
      <point x="845" y="160"/>
      <point x="663" y="-27"/>
      <point x="444" y="-27" type="curve" smooth="yes"/>
      <point x="206" y="-27"/>
      <point x="51" y="151"/>
    </contour>
    <contour>
      <point x="192" y="483" type="curve" smooth="yes"/>
      <point x="192" y="262"/>
      <point x="287" y="54"/>
      <point x="479" y="54" type="curve" smooth="yes"/>
      <point x="622" y="54"/>
      <point x="704" y="205"/>
      <point x="704" y="380" type="curve" smooth="yes"/>
      <point x="704" y="581"/>
      <point x="613" y="806"/>
      <point x="426" y="806" type="curve" smooth="yes"/>
      <point x="275" y="806"/>
      <point x="192" y="659"/>
    </contour>
  </outline>
</glyph>
<glyph name="p" format="1">
  <advance width="957"/>
  <unicode hex="0070"/>
  <outline>
    <contour>
      <point x="40" y="-373" type="line"/>
      <point x="46" y="-315" type="line"/>
      <point x="198" y="-285" type="line"/>
      <point x="198" y="754" type="line"/>
      <point x="44" y="792" type="line"/>
      <point x="52" y="845" type="line"/>
      <point x="317" y="873" type="line"/>
      <point x="330" y="859" type="line"/>
      <point x="321" y="722" type="line"/>
      <point x="328" y="722" type="line"/>
      <point x="379" y="793"/>
      <point x="477" y="886"/>
      <point x="608" y="886" type="curve" smooth="yes"/>
      <point x="779" y="886"/>
      <point x="908" y="761"/>
      <point x="908" y="462" type="curve" smooth="yes"/>
      <point x="908" y="177"/>
      <point x="723" y="-20"/>
      <point x="470" y="-20" type="curve" smooth="yes"/>
      <point x="440" y="-20"/>
      <point x="401" y="-15"/>
      <point x="368" y="-9" type="curve"/>
      <point x="363" y="87" type="line"/>
      <point x="409" y="69"/>
      <point x="445" y="64"/>
      <point x="524" y="64" type="curve" smooth="yes"/>
      <point x="663" y="64"/>
      <point x="766" y="189"/>
      <point x="766" y="404" type="curve" smooth="yes"/>
      <point x="766" y="638"/>
      <point x="697" y="781"/>
      <point x="542" y="781" type="curve" smooth="yes"/>
      <point x="449" y="781"/>
      <point x="378" y="714"/>
      <point x="328" y="662" type="curve"/>
      <point x="328" y="-286" type="line"/>
      <point x="484" y="-312" type="line"/>
      <point x="474" y="-373" type="line"/>
    </contour>
  </outline>
</glyph>
<glyph name="q" format="1">
  <advance width="976"/>
  <unicode hex="0071"/>
  <outline>
    <contour>
      <point x="52" y="407" type="curve" smooth="yes"/>
      <point x="52" y="679"/>
      <point x="267" y="889"/>
      <point x="477" y="889" type="curve" smooth="yes"/>
      <point x="557" y="889"/>
      <point x="628" y="861"/>
      <point x="658" y="845" type="curve"/>
      <point x="752" y="878" type="line"/>
      <point x="775" y="878" type="line"/>
      <point x="775" y="-280" type="line"/>
      <point x="936" y="-306" type="line"/>
      <point x="927" y="-367" type="line"/>
      <point x="483" y="-367" type="line"/>
      <point x="491" y="-308" type="line"/>
      <point x="642" y="-280" type="line"/>
      <point x="642" y="691" type="line"/>
      <point x="607" y="745"/>
      <point x="534" y="809"/>
      <point x="428" y="809" type="curve" smooth="yes"/>
      <point x="298" y="809"/>
      <point x="191" y="672"/>
      <point x="191" y="468" type="curve" smooth="yes"/>
      <point x="191" y="203"/>
      <point x="286" y="78"/>
      <point x="429" y="78" type="curve" smooth="yes"/>
      <point x="474" y="78"/>
      <point x="561" y="94"/>
      <point x="611" y="127" type="curve"/>
      <point x="615" y="71" type="line"/>
      <point x="552" y="11"/>
      <point x="450" y="-21"/>
      <point x="369" y="-21" type="curve" smooth="yes"/>
      <point x="193" y="-21"/>
      <point x="52" y="107"/>
    </contour>
  </outline>
</glyph>
<glyph name="r" format="1">
  <advance width="733"/>
  <unicode hex="0072"/>
  <outline>
    <contour>
      <point x="48" y="0" type="line"/>
      <point x="56" y="52" type="line"/>
      <point x="211" y="86" type="line"/>
      <point x="211" y="757" type="line"/>
      <point x="51" y="796" type="line"/>
      <point x="60" y="848" type="line"/>
      <point x="319" y="877" type="line"/>
      <point x="335" y="860" type="line"/>
      <point x="321" y="615" type="line"/>
      <point x="335" y="615" type="line"/>
      <point x="383" y="788"/>
      <point x="478" y="895"/>
      <point x="575" y="895" type="curve" smooth="yes"/>
      <point x="645" y="895"/>
      <point x="686" y="850"/>
      <point x="686" y="799" type="curve" smooth="yes"/>
      <point x="686" y="766"/>
      <point x="663" y="731"/>
      <point x="624" y="704" type="curve"/>
      <point x="590" y="739"/>
      <point x="556" y="756"/>
      <point x="517" y="756" type="curve" smooth="yes"/>
      <point x="435" y="756"/>
      <point x="363" y="626"/>
      <point x="341" y="464" type="curve"/>
      <point x="341" y="88" type="line"/>
      <point x="571" y="61" type="line"/>
      <point x="563" y="0" type="line"/>
    </contour>
  </outline>
</glyph>
<glyph name="s" format="1">
  <advance width="667"/>
  <unicode hex="0073"/>
  <outline>
    <contour>
      <point x="46" y="154" type="curve" smooth="yes"/>
      <point x="46" y="216"/>
      <point x="93" y="257"/>
      <point x="152" y="264" type="curve"/>
      <point x="186" y="106"/>
      <point x="249" y="40"/>
      <point x="355" y="40" type="curve" smooth="yes"/>
      <point x="441" y="40"/>
      <point x="504" y="90"/>
      <point x="504" y="160" type="curve" smooth="yes"/>
      <point x="504" y="337"/>
      <point x="83" y="376"/>
      <point x="83" y="637" type="curve" smooth="yes"/>
      <point x="83" y="754"/>
      <point x="170" y="889"/>
      <point x="360" y="889" type="curve" smooth="yes"/>
      <point x="491" y="889"/>
      <point x="590" y="814"/>
      <point x="590" y="713" type="curve" smooth="yes"/>
      <point x="590" y="636"/>
      <point x="545" y="602"/>
      <point x="485" y="597" type="curve"/>
      <point x="477" y="636" type="line" smooth="yes"/>
      <point x="442" y="790"/>
      <point x="382" y="825"/>
      <point x="322" y="825" type="curve" smooth="yes"/>
      <point x="239" y="825"/>
      <point x="189" y="774"/>
      <point x="189" y="700" type="curve" smooth="yes"/>
      <point x="189" y="499"/>
      <point x="622" y="461"/>
      <point x="622" y="212" type="curve" smooth="yes"/>
      <point x="622" y="64"/>
      <point x="477" y="-35"/>
      <point x="323" y="-35" type="curve" smooth="yes"/>
      <point x="163" y="-35"/>
      <point x="46" y="45"/>
    </contour>
  </outline>
</glyph>
<glyph name="t" format="1">
  <advance width="650"/>
  <unicode hex="0074"/>
  <outline>
    <contour>
      <point x="40" y="771" type="line"/>
      <point x="40" y="811" type="line"/>
      <point x="140" y="856"/>
      <point x="204" y="944"/>
      <point x="254" y="1068" type="curve"/>
      <point x="301" y="1068" type="line"/>
      <point x="301" y="840" type="line"/>
      <point x="584" y="840" type="line"/>
      <point x="576" y="768" type="line"/>
      <point x="300" y="768" type="line"/>
      <point x="297" y="310" type="line" smooth="yes"/>
      <point x="297" y="142"/>
      <point x="341" y="98"/>
      <point x="435" y="98" type="curve" smooth="yes"/>
      <point x="509" y="98"/>
      <point x="590" y="163"/>
      <point x="590" y="163" type="curve"/>
      <point x="609" y="119" type="line"/>
      <point x="549" y="33"/>
      <point x="455" y="-24"/>
      <point x="354" y="-24" type="curve" smooth="yes"/>
      <point x="231" y="-24"/>
      <point x="161" y="53"/>
      <point x="163" y="251" type="curve" smooth="yes"/>
      <point x="167" y="771" type="line"/>
    </contour>
  </outline>
</glyph>
<glyph name="u" format="1">
  <advance width="1026"/>
  <unicode hex="0075"/>
  <outline>
    <contour>
      <point x="41" y="800" type="line"/>
      <point x="49" y="853" type="line"/>
      <point x="298" y="874" type="line"/>
      <point x="314" y="857" type="line"/>
      <point x="314" y="317" type="line" smooth="yes"/>
      <point x="314" y="153"/>
      <point x="380" y="86"/>
      <point x="486" y="86" type="curve" smooth="yes"/>
      <point x="576" y="86"/>
      <point x="647" y="137"/>
      <point x="692" y="187" type="curve"/>
      <point x="692" y="754" type="line"/>
      <point x="535" y="790" type="line"/>
      <point x="541" y="850" type="line"/>
      <point x="807" y="874" type="line"/>
      <point x="821" y="857" type="line"/>
      <point x="821" y="223" type="line" smooth="yes"/>
      <point x="821" y="123"/>
      <point x="844" y="85"/>
      <point x="920" y="70" type="curve" smooth="yes"/>
      <point x="974" y="58" type="line"/>
      <point x="967" y="-1" type="line"/>
      <point x="926" y="-13"/>
      <point x="891" y="-21"/>
      <point x="841" y="-21" type="curve" smooth="yes"/>
      <point x="750" y="-21"/>
      <point x="704" y="43"/>
      <point x="704" y="120" type="curve" smooth="yes"/>
      <point x="704" y="132" type="line"/>
      <point x="692" y="132" type="line"/>
      <point x="623" y="30"/>
      <point x="523" y="-24"/>
      <point x="414" y="-24" type="curve" smooth="yes"/>
      <point x="275" y="-24"/>
      <point x="186" y="60"/>
      <point x="186" y="275" type="curve" smooth="yes"/>
      <point x="186" y="757" type="line"/>
    </contour>
  </outline>
</glyph>
<glyph name="v" format="1">
  <advance width="978"/>
  <unicode hex="0076"/>
  <outline>
    <contour>
      <point x="42" y="806" type="line"/>
      <point x="49" y="861" type="line"/>
      <point x="455" y="861" type="line"/>
      <point x="450" y="808" type="line"/>
      <point x="304" y="771" type="line"/>
      <point x="513" y="161" type="line"/>
      <point x="725" y="769" type="line"/>
      <point x="565" y="806" type="line"/>
      <point x="576" y="861" type="line"/>
      <point x="935" y="861" type="line"/>
      <point x="926" y="808" type="line"/>
      <point x="817" y="771" type="line"/>
      <point x="536" y="-11" type="line"/>
      <point x="446" y="-26" type="line"/>
      <point x="164" y="769" type="line"/>
    </contour>
  </outline>
</glyph>
<glyph name="w" format="1">
  <advance width="1311"/>
  <unicode hex="0077"/>
  <outline>
    <contour>
      <point x="42" y="808" type="line"/>
      <point x="49" y="863" type="line"/>
      <point x="432" y="863" type="line"/>
      <point x="425" y="809" type="line"/>
      <point x="290" y="777" type="line"/>
      <point x="411" y="360" type="line"/>
      <point x="448" y="203" type="line"/>
      <point x="611" y="798" type="line"/>
      <point x="725" y="817" type="line"/>
      <point x="863" y="345" type="line"/>
      <point x="895" y="193" type="line"/>
      <point x="1056" y="775" type="line"/>
      <point x="905" y="808" type="line"/>
      <point x="912" y="863" type="line"/>
      <point x="1268" y="863" type="line"/>
      <point x="1260" y="809" type="line"/>
      <point x="1152" y="777" type="line"/>
      <point x="930" y="-9" type="line"/>
      <point x="845" y="-25" type="line"/>
      <point x="654" y="630" type="line"/>
      <point x="482" y="-9" type="line"/>
      <point x="395" y="-25" type="line"/>
      <point x="158" y="775" type="line"/>
    </contour>
  </outline>
</glyph>
<glyph name="x" format="1">
  <advance width="1011"/>
  <unicode hex="0078"/>
  <outline>
    <contour>
      <point x="47" y="0" type="line"/>
      <point x="56" y="52" type="line"/>
      <point x="164" y="86" type="line"/>
      <point x="430" y="431" type="line"/>
      <point x="184" y="783" type="line"/>
      <point x="66" y="815" type="line"/>
      <point x="73" y="870" type="line"/>
      <point x="467" y="870" type="line"/>
      <point x="457" y="817" type="line"/>
      <point x="342" y="785" type="line"/>
      <point x="526" y="527" type="line"/>
      <point x="723" y="781" type="line"/>
      <point x="585" y="815" type="line"/>
      <point x="597" y="870" type="line"/>
      <point x="946" y="870" type="line"/>
      <point x="935" y="816" type="line"/>
      <point x="831" y="783" type="line"/>
      <point x="580" y="459" type="line"/>
      <point x="842" y="84" type="line"/>
      <point x="956" y="52" type="line"/>
      <point x="948" y="0" type="line"/>
      <point x="543" y="0" type="line"/>
      <point x="555" y="51" type="line"/>
      <point x="682" y="84" type="line"/>
      <point x="486" y="362" type="line"/>
      <point x="274" y="86" type="line"/>
      <point x="416" y="54" type="line"/>
      <point x="407" y="0" type="line"/>
    </contour>
  </outline>
</glyph>
<glyph name="y" format="1">
  <advance width="992"/>
  <unicode hex="0079"/>
  <outline>
    <contour>
      <point x="40" y="-274" type="curve" smooth="yes"/>
      <point x="40" y="-241"/>
      <point x="50" y="-206"/>
      <point x="85" y="-176" type="curve"/>
      <point x="132" y="-212"/>
      <point x="175" y="-229"/>
      <point x="243" y="-229" type="curve" smooth="yes"/>
      <point x="299" y="-229"/>
      <point x="368" y="-194"/>
      <point x="425" y="-49" type="curve" smooth="yes"/>
      <point x="448" y="12" type="line"/>
      <point x="170" y="772" type="line"/>
      <point x="46" y="805" type="line"/>
      <point x="55" y="861" type="line"/>
      <point x="438" y="861" type="line"/>
      <point x="432" y="808" type="line"/>
      <point x="305" y="775" type="line"/>
      <point x="520" y="195" type="line"/>
      <point x="750" y="771" type="line"/>
      <point x="620" y="806" type="line"/>
      <point x="631" y="861" type="line"/>
      <point x="948" y="861" type="line"/>
      <point x="943" y="808" type="line"/>
      <point x="842" y="772" type="line"/>
      <point x="512" y="-53" type="line" smooth="yes"/>
      <point x="419" y="-286"/>
      <point x="340" y="-379"/>
      <point x="185" y="-379" type="curve" smooth="yes"/>
      <point x="101" y="-379"/>
      <point x="40" y="-332"/>
    </contour>
  </outline>
</glyph>
<glyph name="z" format="1">
  <advance width="796"/>
  <unicode hex="007A"/>
  <outline>
    <contour>
      <point x="56" y="63" type="line"/>
      <point x="572" y="788" type="line"/>
      <point x="187" y="788" type="line"/>
      <point x="131" y="583" type="line"/>
      <point x="75" y="592" type="line"/>
      <point x="85" y="861" type="line"/>
      <point x="732" y="861" type="line"/>
      <point x="734" y="809" type="line"/>
      <point x="211" y="78" type="line"/>
      <point x="624" y="78" type="line"/>
      <point x="699" y="275" type="line"/>
      <point x="750" y="269" type="line"/>
      <point x="720" y="0" type="line"/>
      <point x="60" y="0" type="line"/>
    </contour>
  </outline>
</glyph>
<glyph name="braceleft" format="1">
  <advance width="613"/>
  <unicode hex="007B"/>
  <outline>
    <contour>
      <point x="572" y="-378" type="line"/>
      <point x="564" y="-303" type="line"/>
      <point x="477" y="-297" type="line"/>
      <point x="271" y="-286"/>
      <point x="511" y="369"/>
      <point x="197" y="438" type="curve"/>
      <point x="197" y="443" type="line"/>
      <point x="511" y="520"/>
      <point x="268" y="1162"/>
      <point x="465" y="1175" type="curve"/>
      <point x="559" y="1182" type="line"/>
      <point x="567" y="1256" type="line"/>
      <point x="465" y="1256" type="line" smooth="yes"/>
      <point x="56" y="1256"/>
      <point x="390" y="527"/>
      <point x="93" y="484" type="curve"/>
      <point x="45" y="476" type="line"/>
      <point x="45" y="402" type="line"/>
      <point x="96" y="395" type="line" smooth="yes"/>
      <point x="389" y="355"/>
      <point x="54" y="-378"/>
      <point x="469" y="-378" type="curve" smooth="yes"/>
    </contour>
  </outline>
</glyph>
<glyph name="braceright" format="1">
  <advance width="614"/>
  <unicode hex="007D"/>
  <outline>
    <contour>
      <point x="41" y="-378" type="line"/>
      <point x="49" y="-303" type="line"/>
      <point x="136" y="-297" type="line"/>
      <point x="342" y="-286"/>
      <point x="101" y="369"/>
      <point x="415" y="438" type="curve"/>
      <point x="415" y="443" type="line"/>
      <point x="101" y="520"/>
      <point x="345" y="1162"/>
      <point x="148" y="1175" type="curve"/>
      <point x="54" y="1182" type="line"/>
      <point x="46" y="1256" type="line"/>
      <point x="148" y="1256" type="line" smooth="yes"/>
      <point x="557" y="1256"/>
      <point x="222" y="527"/>
      <point x="519" y="484" type="curve"/>
      <point x="568" y="476" type="line"/>
      <point x="568" y="402" type="line"/>
      <point x="516" y="395" type="line" smooth="yes"/>
      <point x="223" y="355"/>
      <point x="559" y="-378"/>
      <point x="144" y="-378" type="curve" smooth="yes"/>
    </contour>
  </outline>
</glyph>
<glyph name="asciitilde" format="1">
  <advance width="900"/>
  <unicode hex="007E"/>
  <outline>
    <contour>
      <point x="59" y="417" type="line"/>
      <point x="59" y="417"/>
      <point x="120" y="644"/>
      <point x="274" y="613" type="curve" smooth="yes"/>
      <point x="673" y="542" type="line" smooth="yes"/>
      <point x="742" y="527"/>
      <point x="790" y="624"/>
      <point x="790" y="624" type="curve"/>
      <point x="845" y="623" type="line"/>
      <point x="845" y="623"/>
      <point x="780" y="390"/>
      <point x="623" y="422" type="curve" smooth="yes"/>
      <point x="224" y="493" type="line" smooth="yes"/>
      <point x="158" y="508"/>
      <point x="106" y="404"/>
      <point x="106" y="404" type="curve"/>
    </contour>
  </outline>
</glyph>
<glyph name="cent" format="1">
  <advance width="767"/>
  <unicode hex="00A2"/>
  <outline>
    <contour>
      <point x="54" y="412" type="curve" smooth="yes"/>
      <point x="54" y="709"/>
      <point x="237" y="920"/>
      <point x="454" y="920" type="curve" smooth="yes"/>
      <point x="622" y="920"/>
      <point x="684" y="838"/>
      <point x="684" y="759" type="curve" smooth="yes"/>
      <point x="684" y="706"/>
      <point x="655" y="671"/>
      <point x="589" y="660" type="curve"/>
      <point x="552" y="762"/>
      <point x="502" y="843"/>
      <point x="406" y="843" type="curve" smooth="yes"/>
      <point x="287" y="843"/>
      <point x="194" y="698"/>
      <point x="194" y="486" type="curve" smooth="yes"/>
      <point x="194" y="253"/>
      <point x="301" y="69"/>
      <point x="485" y="69" type="curve" smooth="yes"/>
      <point x="584" y="69"/>
      <point x="656" y="109"/>
      <point x="704" y="148" type="curve"/>
      <point x="725" y="102" type="line"/>
      <point x="674" y="33"/>
      <point x="549" y="-30"/>
      <point x="420" y="-30" type="curve" smooth="yes"/>
      <point x="189" y="-30"/>
      <point x="54" y="172"/>
    </contour>
    <contour>
      <point x="342" y="1135" type="line"/>
      <point x="469" y="1152" type="line"/>
      <point x="444" y="884" type="line"/>
      <point x="374" y="884" type="line"/>
    </contour>
    <contour>
      <point x="353" y="-267" type="line"/>
      <point x="379" y="0" type="line"/>
      <point x="448" y="0" type="line"/>
      <point x="481" y="-250" type="line"/>
    </contour>
  </outline>
</glyph>
<glyph name="sterling" format="1">
  <advance width="1072"/>
  <unicode hex="00A3"/>
  <outline>
    <contour>
      <point x="43" y="0" type="line"/>
      <point x="50" y="58" type="line"/>
      <point x="218" y="96" type="line"/>
      <point x="247" y="199"/>
      <point x="255" y="313"/>
      <point x="258" y="461" type="curve"/>
      <point x="259" y="561" type="line"/>
      <point x="81" y="552" type="line"/>
      <point x="92" y="631" type="line"/>
      <point x="262" y="641" type="line"/>
      <point x="265" y="786" type="line"/>
      <point x="273" y="1107"/>
      <point x="406" y="1251"/>
      <point x="633" y="1251" type="curve" smooth="yes"/>
      <point x="714" y="1251"/>
      <point x="786" y="1244"/>
      <point x="865" y="1211" type="curve"/>
      <point x="834" y="892" type="line"/>
      <point x="767" y="902" type="line"/>
      <point x="736" y="1141" type="line"/>
      <point x="715" y="1152"/>
      <point x="654" y="1171"/>
      <point x="618" y="1171" type="curve" smooth="yes"/>
      <point x="458" y="1171"/>
      <point x="419" y="1089"/>
      <point x="416" y="702" type="curve"/>
      <point x="416" y="648" type="line"/>
      <point x="635" y="661" type="line"/>
      <point x="625" y="581" type="line"/>
      <point x="414" y="568" type="line"/>
      <point x="414" y="516" type="line"/>
      <point x="412" y="333"/>
      <point x="393" y="174"/>
      <point x="352" y="78" type="curve"/>
      <point x="851" y="77" type="line"/>
      <point x="962" y="336" type="line"/>
      <point x="1025" y="322" type="line"/>
      <point x="991" y="0" type="line"/>
    </contour>
  </outline>
</glyph>
<glyph name="currency" format="1">
  <advance width="712"/>
  <unicode hex="00A4"/>
  <outline>
    <contour>
      <point x="49" y="723" type="line"/>
      <point x="117" y="789" type="line"/>
      <point x="195" y="701" type="line"/>
      <point x="238" y="737"/>
      <point x="307" y="770"/>
      <point x="356" y="770" type="curve" smooth="yes"/>
      <point x="410" y="770"/>
      <point x="483" y="740"/>
      <point x="523" y="710" type="curve"/>
      <point x="600" y="790" type="line"/>
      <point x="659" y="720" type="line"/>
      <point x="575" y="646" type="line"/>
      <point x="596" y="609"/>
      <point x="619" y="539"/>
      <point x="619" y="492" type="curve" smooth="yes"/>
      <point x="619" y="441"/>
      <point x="595" y="371"/>
      <point x="568" y="334" type="curve"/>
      <point x="661" y="248" type="line"/>
      <point x="592" y="184" type="line"/>
      <point x="513" y="274" type="line"/>
      <point x="467" y="246"/>
      <point x="396" y="218"/>
      <point x="349" y="218" type="curve" smooth="yes"/>
      <point x="309" y="218"/>
      <point x="247" y="243"/>
      <point x="206" y="268" type="curve"/>
      <point x="129" y="179" type="line"/>
      <point x="62" y="247" type="line"/>
      <point x="146" y="325" type="line"/>
      <point x="119" y="366"/>
      <point x="93" y="437"/>
      <point x="93" y="490" type="curve" smooth="yes"/>
      <point x="93" y="536"/>
      <point x="116" y="602"/>
      <point x="140" y="638" type="curve"/>
    </contour>
    <contour>
      <point x="183" y="495" type="curve" smooth="yes"/>
      <point x="183" y="379"/>
      <point x="251" y="301"/>
      <point x="353" y="301" type="curve" smooth="yes"/>
      <point x="458" y="301"/>
      <point x="530" y="377"/>
      <point x="530" y="488" type="curve" smooth="yes"/>
      <point x="530" y="607"/>
      <point x="459" y="685"/>
      <point x="352" y="685" type="curve" smooth="yes"/>
      <point x="250" y="685"/>
      <point x="183" y="608"/>
    </contour>
  </outline>
</glyph>
<glyph name="yen" format="1">
  <advance width="1067"/>
  <unicode hex="00A5"/>
  <outline>
    <contour>
      <point x="42" y="1188" type="line"/>
      <point x="50" y="1244" type="line"/>
      <point x="489" y="1244" type="line"/>
      <point x="481" y="1188" type="line"/>
      <point x="331" y="1156" type="line"/>
      <point x="570" y="638" type="line"/>
      <point x="797" y="1151" type="line"/>
      <point x="626" y="1188" type="line"/>
      <point x="632" y="1244" type="line"/>
      <point x="1026" y="1244" type="line"/>
      <point x="1019" y="1188" type="line"/>
      <point x="893" y="1155" type="line"/>
      <point x="626" y="578" type="line"/>
      <point x="956" y="578" type="line"/>
      <point x="945" y="505" type="line"/>
      <point x="607" y="505" type="line"/>
      <point x="607" y="338" type="line"/>
      <point x="953" y="338" type="line"/>
      <point x="942" y="265" type="line"/>
      <point x="607" y="265" type="line"/>
      <point x="607" y="90" type="line"/>
      <point x="781" y="62" type="line"/>
      <point x="772" y="0" type="line"/>
      <point x="291" y="0" type="line"/>
      <point x="299" y="56" type="line"/>
      <point x="461" y="96" type="line"/>
      <point x="461" y="265" type="line"/>
      <point x="135" y="265" type="line"/>
      <point x="146" y="338" type="line"/>
      <point x="461" y="338" type="line"/>
      <point x="461" y="505" type="line"/>
      <point x="138" y="505" type="line"/>
      <point x="149" y="578" type="line"/>
      <point x="442" y="578" type="line"/>
      <point x="179" y="1152" type="line"/>
    </contour>
  </outline>
</glyph>
<glyph name="brokenbar" format="1">
  <advance width="241"/>
  <unicode hex="00A6"/>
  <outline>
    <contour>
      <point x="73" y="-370" type="line"/>
      <point x="73" y="419" type="line"/>
      <point x="168" y="411" type="line"/>
      <point x="168" y="-380" type="line"/>
    </contour>
    <contour>
      <point x="73" y="537" type="line"/>
      <point x="73" y="1257" type="line"/>
      <point x="167" y="1248" type="line"/>
      <point x="165" y="529" type="line"/>
    </contour>
  </outline>
</glyph>
<glyph name="section" format="1">
  <advance width="850"/>
  <unicode hex="00A7"/>
  <outline>
    <contour>
      <point x="43" y="-238" type="curve"/>
      <point x="64" y="39" type="line"/>
      <point x="140" y="29" type="line"/>
      <point x="172" y="-176" type="line"/>
      <point x="213" y="-248"/>
      <point x="311" y="-299"/>
      <point x="414" y="-299" type="curve" smooth="yes"/>
      <point x="529" y="-299"/>
      <point x="654" y="-229"/>
      <point x="654" y="-81" type="curve" smooth="yes"/>
      <point x="654" y="193"/>
      <point x="68" y="223"/>
      <point x="86" y="576" type="curve"/>
      <point x="432" y="369" type="line" smooth="yes"/>
      <point x="599" y="271"/>
      <point x="799" y="181"/>
      <point x="799" y="-25" type="curve" smooth="yes"/>
      <point x="799" y="-234"/>
      <point x="615" y="-381"/>
      <point x="377" y="-381" type="curve" smooth="yes"/>
      <point x="233" y="-381"/>
      <point x="107" y="-317"/>
    </contour>
    <contour>
      <point x="81" y="938" type="curve" smooth="yes"/>
      <point x="81" y="1151"/>
      <point x="262" y="1270"/>
      <point x="441" y="1270" type="curve" smooth="yes"/>
      <point x="549" y="1270"/>
      <point x="655" y="1235"/>
      <point x="728" y="1165" type="curve"/>
      <point x="728" y="1161"/>
      <point x="701" y="869"/>
      <point x="701" y="869" type="curve"/>
      <point x="628" y="878" type="line"/>
      <point x="602" y="1096" type="line"/>
      <point x="575" y="1147"/>
      <point x="493" y="1200"/>
      <point x="412" y="1200" type="curve" smooth="yes"/>
      <point x="306" y="1200"/>
      <point x="216" y="1132"/>
      <point x="216" y="1001" type="curve" smooth="yes"/>
      <point x="216" y="698"/>
      <point x="818" y="683"/>
      <point x="798" y="318" type="curve"/>
      <point x="421" y="546" type="line" smooth="yes"/>
      <point x="263" y="642"/>
      <point x="81" y="735"/>
    </contour>
  </outline>
</glyph>
<glyph name="dieresis" format="1">
  <advance width="582"/>
  <unicode hex="00A8"/>
  <outline>
    <contour>
      <point x="86" y="1465" type="curve" smooth="yes"/>
      <point x="86" y="1513.5"/>
      <point x="116.5" y="1542.5"/>
      <point x="156" y="1542.5" type="curve" smooth="yes"/>
      <point x="196.5" y="1542.5"/>
      <point x="228" y="1513.5"/>
      <point x="228" y="1465" type="curve" smooth="yes"/>
      <point x="228" y="1414"/>
      <point x="200" y="1383.5"/>
      <point x="157" y="1383.5" type="curve" smooth="yes"/>
      <point x="114.5" y="1383.5"/>
      <point x="86" y="1415"/>
    </contour>
    <contour>
      <point x="354.5" y="1465" type="curve" smooth="yes"/>
      <point x="354.5" y="1513.5"/>
      <point x="384.5" y="1542.5"/>
      <point x="424" y="1542.5" type="curve" smooth="yes"/>
      <point x="464.5" y="1542.5"/>
      <point x="496.5" y="1513.5"/>
      <point x="496.5" y="1465" type="curve" smooth="yes"/>
      <point x="496.5" y="1414"/>
      <point x="467.5" y="1383.5"/>
      <point x="424.5" y="1383.5" type="curve" smooth="yes"/>
      <point x="382" y="1383.5"/>
      <point x="354.5" y="1415"/>
    </contour>
  </outline>
</glyph>
<glyph name="copyright" format="1">
  <advance width="1352"/>
  <unicode hex="00A9"/>
  <outline>
    <contour>
      <point x="356.42" y="627.175" type="curve" smooth="yes"/>
      <point x="356.42" y="875.17"/>
      <point x="509.225" y="1030.48"/>
      <point x="690.42" y="1030.48" type="curve" smooth="yes"/>
      <point x="830.7" y="1030.48"/>
      <point x="883.305" y="961.175"/>
      <point x="883.305" y="895.21" type="curve" smooth="yes"/>
      <point x="883.305" y="850.955"/>
      <point x="859.09" y="821.73"/>
      <point x="803.98" y="812.545" type="curve"/>
      <point x="773.085" y="897.715"/>
      <point x="730.5" y="965.35"/>
      <point x="650.34" y="965.35" type="curve" smooth="yes"/>
      <point x="550.975" y="965.35"/>
      <point x="473.32" y="866.82"/>
      <point x="473.32" y="689.8" type="curve" smooth="yes"/>
      <point x="473.32" y="495.245"/>
      <point x="563.5" y="346.615"/>
      <point x="717.14" y="346.615" type="curve" smooth="yes"/>
      <point x="799.805" y="346.615"/>
      <point x="859.925" y="380.015"/>
      <point x="900.005" y="412.58" type="curve"/>
      <point x="917.54" y="374.17" type="line"/>
      <point x="874.955" y="316.555"/>
      <point x="769.745" y="263.95"/>
      <point x="662.03" y="263.95" type="curve" smooth="yes"/>
      <point x="469.145" y="263.95"/>
      <point x="356.42" y="426.775"/>
    </contour>
    <contour>
      <point x="52" y="633" type="curve" smooth="yes"/>
      <point x="52" y="1023"/>
      <point x="329" y="1301"/>
      <point x="667" y="1301" type="curve" smooth="yes"/>
      <point x="1054" y="1301"/>
      <point x="1298" y="1025"/>
      <point x="1298" y="636" type="curve" smooth="yes"/>
      <point x="1298" y="262"/>
      <point x="1032" y="-21"/>
      <point x="657" y="-21" type="curve" smooth="yes"/>
      <point x="291" y="-21"/>
      <point x="52" y="251"/>
    </contour>
    <contour>
      <point x="147" y="644" type="curve" smooth="yes"/>
      <point x="147" y="308"/>
      <point x="362" y="62"/>
      <point x="666" y="62" type="curve" smooth="yes"/>
      <point x="970" y="62"/>
      <point x="1204" y="302"/>
      <point x="1204" y="626" type="curve" smooth="yes"/>
      <point x="1204" y="965"/>
      <point x="995" y="1222"/>
      <point x="668" y="1222" type="curve" smooth="yes"/>
      <point x="368" y="1222"/>
      <point x="147" y="967"/>
    </contour>
  </outline>
</glyph>
<glyph name="ordfeminine" format="1">
  <advance width="718"/>
  <unicode hex="00AA"/>
  <outline>
    <contour>
      <point x="53" y="690" type="curve" smooth="yes"/>
      <point x="53" y="814"/>
      <point x="154" y="942"/>
      <point x="424" y="950" type="curve"/>
      <point x="424" y="980" type="line" smooth="yes"/>
      <point x="424" y="1118"/>
      <point x="405" y="1202"/>
      <point x="292" y="1202" type="curve" smooth="yes"/>
      <point x="213" y="1202"/>
      <point x="203" y="1140"/>
      <point x="191" y="1023" type="curve"/>
      <point x="134" y="1019"/>
      <point x="81" y="1050"/>
      <point x="81" y="1111" type="curve"/>
      <point x="81" y="1199"/>
      <point x="228" y="1268"/>
      <point x="342" y="1268" type="curve" smooth="yes"/>
      <point x="480" y="1268"/>
      <point x="547" y="1191"/>
      <point x="547" y="1022" type="curve" smooth="yes"/>
      <point x="547" y="756" type="line" smooth="yes"/>
      <point x="547" y="682"/>
      <point x="549" y="644"/>
      <point x="621" y="631" type="curve" smooth="yes"/>
      <point x="669" y="622" type="line"/>
      <point x="662" y="574" type="line"/>
      <point x="634" y="552"/>
      <point x="605" y="543"/>
      <point x="563" y="543" type="curve" smooth="yes"/>
      <point x="481" y="543"/>
      <point x="437" y="599"/>
      <point x="437" y="651" type="curve" smooth="yes"/>
      <point x="437" y="662" type="line"/>
      <point x="431" y="662" type="line"/>
      <point x="411" y="616"/>
      <point x="344" y="537"/>
      <point x="219" y="537" type="curve" smooth="yes"/>
      <point x="132" y="537"/>
      <point x="53" y="592"/>
    </contour>
    <contour>
      <point x="185" y="725" type="curve" smooth="yes"/>
      <point x="185" y="672"/>
      <point x="209" y="625"/>
      <point x="276" y="625" type="curve" smooth="yes"/>
      <point x="344" y="625"/>
      <point x="392" y="669"/>
      <point x="424" y="715" type="curve"/>
      <point x="424" y="900" type="line"/>
      <point x="268" y="875"/>
      <point x="185" y="827"/>
    </contour>
  </outline>
</glyph>
<glyph name="logicalnot" format="1">
  <advance width="876"/>
  <unicode hex="00AC"/>
  <outline>
    <contour>
      <point x="53" y="584" type="line"/>
      <point x="65" y="664" type="line"/>
      <point x="810" y="664" type="line"/>
      <point x="811" y="351" type="line"/>
      <point x="722" y="332" type="line"/>
      <point x="722" y="584" type="line"/>
    </contour>
  </outline>
</glyph>
<glyph name="softhyphen" format="1">
  <advance width="538"/>
  <unicode hex="00AD"/>
  <outline>
    <contour>
      <point x="61" y="420" type="line"/>
      <point x="69" y="509" type="line"/>
      <point x="477" y="570" type="line"/>
      <point x="469" y="480" type="line"/>
    </contour>
  </outline>
</glyph>
<glyph name="registered" format="1">
  <advance width="1065"/>
  <unicode hex="00AE"/>
  <outline>
    <contour>
      <point x="270" y="774" type="line"/>
      <point x="275" y="813" type="line"/>
      <point x="350" y="834" type="line"/>
      <point x="350" y="1266" type="line"/>
      <point x="273" y="1279" type="line"/>
      <point x="278" y="1317" type="line"/>
      <point x="344" y="1328"/>
      <point x="439" y="1338"/>
      <point x="506" y="1338" type="curve" smooth="yes"/>
      <point x="631" y="1338"/>
      <point x="725" y="1297"/>
      <point x="725" y="1198" type="curve" smooth="yes"/>
      <point x="725" y="1132"/>
      <point x="674" y="1069"/>
      <point x="594" y="1034" type="curve"/>
      <point x="593" y="1033" type="line"/>
      <point x="677" y="926" type="line" smooth="yes"/>
      <point x="735" y="851"/>
      <point x="754" y="838"/>
      <point x="794" y="821" type="curve" smooth="yes"/>
      <point x="813" y="814" type="line"/>
      <point x="807" y="773" type="line"/>
      <point x="788" y="766"/>
      <point x="769" y="765"/>
      <point x="745" y="765" type="curve" smooth="yes"/>
      <point x="673" y="765"/>
      <point x="631" y="805"/>
      <point x="580" y="899" type="curve" smooth="yes"/>
      <point x="519" y="1010" type="line"/>
      <point x="446" y="1010" type="line"/>
      <point x="446" y="835" type="line"/>
      <point x="531" y="817" type="line"/>
      <point x="526" y="774" type="line"/>
    </contour>
    <contour>
      <point x="446" y="1062" type="line"/>
      <point x="537" y="1062" type="line"/>
      <point x="583" y="1087"/>
      <point x="622" y="1124"/>
      <point x="622" y="1181" type="curve" smooth="yes"/>
      <point x="622" y="1253"/>
      <point x="574" y="1285"/>
      <point x="491" y="1285" type="curve" smooth="yes"/>
      <point x="470" y="1285"/>
      <point x="447" y="1284"/>
      <point x="446" y="1284" type="curve"/>
    </contour>
    <contour>
      <point x="49" y="1022" type="curve" smooth="yes"/>
      <point x="49" y="1338"/>
      <point x="260" y="1520"/>
      <point x="524" y="1520" type="curve" smooth="yes"/>
      <point x="800" y="1520"/>
      <point x="1016" y="1344"/>
      <point x="1016" y="1026" type="curve" smooth="yes"/>
      <point x="1016" y="722"/>
      <point x="788" y="542"/>
      <point x="514" y="542" type="curve" smooth="yes"/>
      <point x="256" y="542"/>
      <point x="49" y="730"/>
    </contour>
    <contour>
      <point x="121" y="1036" type="curve" smooth="yes"/>
      <point x="121" y="776"/>
      <point x="288" y="604"/>
      <point x="522" y="604" type="curve" smooth="yes"/>
      <point x="753" y="604"/>
      <point x="944" y="768"/>
      <point x="944" y="1016" type="curve" smooth="yes"/>
      <point x="944" y="1290"/>
      <point x="761" y="1457"/>
      <point x="524" y="1459" type="curve" smooth="yes"/>
      <point x="302" y="1461"/>
      <point x="121" y="1318"/>
    </contour>
  </outline>
</glyph>
<glyph name="macron" format="1">
  <advance width="610"/>
  <unicode hex="00AF"/>
  <outline>
    <contour>
      <point x="79" y="1380" type="line"/>
      <point x="90" y="1456" type="line"/>
      <point x="531" y="1456" type="line"/>
      <point x="521" y="1380" type="line"/>
    </contour>
  </outline>
</glyph>
<glyph name="degree" format="1">
  <advance width="482"/>
  <unicode hex="00B0"/>
  <outline>
    <contour>
      <point x="58" y="1107" type="curve" smooth="yes"/>
      <point x="58" y="1210"/>
      <point x="143" y="1304"/>
      <point x="251" y="1304" type="curve" smooth="yes"/>
      <point x="367" y="1304"/>
      <point x="422" y="1237"/>
      <point x="422" y="1128" type="curve" smooth="yes"/>
      <point x="422" y="1013"/>
      <point x="333" y="928"/>
      <point x="227" y="928" type="curve" smooth="yes"/>
      <point x="125" y="928"/>
      <point x="58" y="990"/>
    </contour>
    <contour>
      <point x="134" y="1129" type="curve" smooth="yes"/>
      <point x="134" y="1047"/>
      <point x="174" y="981"/>
      <point x="244" y="981" type="curve" smooth="yes"/>
      <point x="301" y="981"/>
      <point x="345" y="1027"/>
      <point x="345" y="1105" type="curve" smooth="yes"/>
      <point x="345" y="1183"/>
      <point x="304" y="1251"/>
      <point x="236" y="1251" type="curve" smooth="yes"/>
      <point x="170" y="1251"/>
      <point x="134" y="1199"/>
    </contour>
  </outline>
</glyph>
<glyph name="plusminus" format="1">
  <advance width="723"/>
  <unicode hex="00B1"/>
  <outline>
    <contour>
      <point x="48" y="26" type="line"/>
      <point x="65" y="110" type="line"/>
      <point x="676" y="113" type="line"/>
      <point x="659" y="29" type="line"/>
    </contour>
    <component base="plus" xOffset="36" yOffset="62"/>
  </outline>
</glyph>
<glyph name="two.superior" format="1">
  <advance width="655"/>
  <unicode hex="00B2"/>
  <outline>
    <contour>
      <point x="53" y="626" type="line"/>
      <point x="207" y="750" type="line" smooth="yes"/>
      <point x="341" y="860"/>
      <point x="412" y="940"/>
      <point x="412" y="1040" type="curve" smooth="yes"/>
      <point x="412" y="1118"/>
      <point x="381" y="1194"/>
      <point x="289" y="1194" type="curve" smooth="yes"/>
      <point x="227" y="1194"/>
      <point x="191" y="1177"/>
      <point x="174" y="1154" type="curve"/>
      <point x="150" y="1014" type="line"/>
      <point x="95" y="1019" type="line"/>
      <point x="90" y="1184" type="line"/>
      <point x="126" y="1238"/>
      <point x="232" y="1274"/>
      <point x="335" y="1274" type="curve" smooth="yes"/>
      <point x="473" y="1274"/>
      <point x="565" y="1208"/>
      <point x="565" y="1074" type="curve" smooth="yes"/>
      <point x="565" y="922"/>
      <point x="429" y="818"/>
      <point x="233" y="675" type="curve" smooth="yes"/>
      <point x="198" y="652" type="line"/>
      <point x="491" y="652" type="line"/>
      <point x="553" y="802" type="line"/>
      <point x="599" y="790" type="line"/>
      <point x="579" y="548" type="line"/>
      <point x="51" y="548" type="line"/>
    </contour>
  </outline>
</glyph>
<glyph name="three.superior" format="1">
  <advance width="620"/>
  <unicode hex="00B3"/>
  <outline>
    <contour>
      <point x="50" y="598" type="curve"/>
      <point x="83" y="768" type="line"/>
      <point x="142" y="762" type="line"/>
      <point x="148" y="634" type="line"/>
      <point x="167" y="606"/>
      <point x="215" y="579"/>
      <point x="268" y="579" type="curve" smooth="yes"/>
      <point x="360" y="579"/>
      <point x="421" y="638"/>
      <point x="421" y="728" type="curve" smooth="yes"/>
      <point x="421" y="816"/>
      <point x="314" y="876"/>
      <point x="198" y="878" type="curve"/>
      <point x="190" y="918" type="line"/>
      <point x="236" y="936"/>
      <point x="380" y="986"/>
      <point x="380" y="1094" type="curve" smooth="yes"/>
      <point x="380" y="1151"/>
      <point x="343" y="1217"/>
      <point x="273" y="1217" type="curve" smooth="yes"/>
      <point x="229" y="1217"/>
      <point x="200" y="1212"/>
      <point x="180" y="1190" type="curve"/>
      <point x="152" y="1049" type="line"/>
      <point x="89" y="1055" type="line"/>
      <point x="85" y="1210" type="line"/>
      <point x="117" y="1249"/>
      <point x="212" y="1288"/>
      <point x="320" y="1288" type="curve" smooth="yes"/>
      <point x="434" y="1288"/>
      <point x="527" y="1227"/>
      <point x="527" y="1129" type="curve" smooth="yes"/>
      <point x="527" y="1027"/>
      <point x="440" y="968"/>
      <point x="349" y="940" type="curve"/>
      <point x="349" y="933" type="line"/>
      <point x="487" y="917"/>
      <point x="568" y="844"/>
      <point x="568" y="745" type="curve" smooth="yes"/>
      <point x="568" y="610"/>
      <point x="419" y="511"/>
      <point x="256" y="511" type="curve" smooth="yes"/>
      <point x="158" y="511"/>
      <point x="76" y="546"/>
    </contour>
  </outline>
</glyph>
<glyph name="acute" format="1">
  <advance width="387"/>
  <unicode hex="00B4"/>
  <outline>
    <contour>
      <point x="79" y="1376" type="line"/>
      <point x="207" y="1706" type="line"/>
      <point x="310" y="1667" type="line"/>
      <point x="128" y="1346" type="line"/>
    </contour>
  </outline>
</glyph>
<glyph name="micro" format="1">
  <advance width="1017"/>
  <unicode hex="00B5"/>
  <outline>
    <contour>
      <point x="42" y="803" type="line"/>
      <point x="50" y="857" type="line"/>
      <point x="299" y="878" type="line"/>
      <point x="316" y="860" type="line"/>
      <point x="316" y="316" type="line" smooth="yes"/>
      <point x="316" y="152"/>
      <point x="380" y="82"/>
      <point x="486" y="82" type="curve" smooth="yes"/>
      <point x="576" y="82"/>
      <point x="644" y="138"/>
      <point x="693" y="186" type="curve"/>
      <point x="693" y="759" type="line"/>
      <point x="535" y="795" type="line"/>
      <point x="541" y="854" type="line"/>
      <point x="807" y="878" type="line"/>
      <point x="821" y="860" type="line"/>
      <point x="821" y="222" type="line" smooth="yes"/>
      <point x="821" y="120"/>
      <point x="846" y="83"/>
      <point x="922" y="68" type="curve" smooth="yes"/>
      <point x="974" y="57" type="line"/>
      <point x="968" y="-2" type="line"/>
      <point x="927" y="-14"/>
      <point x="891" y="-21"/>
      <point x="841" y="-21" type="curve" smooth="yes"/>
      <point x="750" y="-21"/>
      <point x="705" y="42"/>
      <point x="705" y="119" type="curve" smooth="yes"/>
      <point x="705" y="131" type="line"/>
      <point x="693" y="131" type="line"/>
      <point x="614" y="30"/>
      <point x="515" y="-24"/>
      <point x="415" y="-24" type="curve" smooth="yes"/>
      <point x="350" y="-24"/>
      <point x="291" y="-1"/>
      <point x="261" y="49" type="curve"/>
      <point x="255" y="49" type="line"/>
      <point x="258" y="31"/>
      <point x="259" y="-22"/>
      <point x="263" y="-86" type="curve"/>
      <point x="278" y="-388" type="line"/>
      <point x="167" y="-362" type="line"/>
      <point x="169" y="-335"/>
      <point x="187" y="180"/>
      <point x="187" y="494" type="curve" smooth="yes"/>
      <point x="187" y="761" type="line"/>
    </contour>
  </outline>
</glyph>
<glyph name="paragraph" format="1">
  <advance width="1191"/>
  <unicode hex="00B6"/>
  <outline>
    <contour>
      <point x="48" y="836" type="curve" smooth="yes"/>
      <point x="48" y="1074"/>
      <point x="262" y="1245"/>
      <point x="508" y="1245" type="curve" smooth="yes"/>
      <point x="773" y="1245" type="line"/>
      <point x="773" y="0" type="line"/>
      <point x="408" y="0" type="line"/>
      <point x="414" y="58" type="line"/>
      <point x="643" y="97" type="line"/>
      <point x="643" y="1169" type="line"/>
      <point x="602" y="1171"/>
      <point x="562" y="1171"/>
      <point x="553" y="1171" type="curve" smooth="yes"/>
      <point x="318" y="1171"/>
      <point x="217" y="1059"/>
      <point x="217" y="852" type="curve" smooth="yes"/>
      <point x="217" y="681"/>
      <point x="330" y="537"/>
      <point x="546" y="537" type="curve"/>
      <point x="528" y="463" type="line"/>
      <point x="267" y="463"/>
      <point x="48" y="544"/>
    </contour>
    <contour>
      <point x="840" y="0" type="line"/>
      <point x="840" y="1245" type="line"/>
      <point x="1142" y="1245" type="line"/>
      <point x="1135" y="1188" type="line"/>
      <point x="962" y="1157" type="line"/>
      <point x="962" y="89" type="line"/>
      <point x="1148" y="63" type="line"/>
      <point x="1139" y="-1" type="line"/>
    </contour>
  </outline>
</glyph>
<glyph name="periodcentered" format="1">
  <advance width="307"/>
  <unicode hex="00B7"/>
  <outline>
    <contour>
      <point x="62" y="503" type="curve" smooth="yes"/>
      <point x="62" y="567"/>
      <point x="100" y="608"/>
      <point x="154" y="608" type="curve" smooth="yes"/>
      <point x="208" y="608"/>
      <point x="246" y="567"/>
      <point x="246" y="503" type="curve" smooth="yes"/>
      <point x="246" y="436"/>
      <point x="210" y="391"/>
      <point x="154" y="391" type="curve" smooth="yes"/>
      <point x="98" y="391"/>
      <point x="62" y="437"/>
    </contour>
  </outline>
</glyph>
<glyph name="cedilla" format="1">
  <advance width="334"/>
  <unicode hex="00B8"/>
  <outline>
    <contour>
      <point x="57" y="-339" type="line"/>
      <point x="115" y="-319"/>
      <point x="160" y="-278"/>
      <point x="160" y="-248" type="curve" smooth="yes"/>
      <point x="160" y="-198"/>
      <point x="116" y="-163"/>
      <point x="80" y="-128" type="curve"/>
      <point x="171" y="3" type="line"/>
      <point x="238" y="3" type="line"/>
      <point x="184" y="-76" type="line"/>
      <point x="221" y="-109"/>
      <point x="273" y="-160"/>
      <point x="273" y="-227" type="curve" smooth="yes"/>
      <point x="273" y="-306"/>
      <point x="190" y="-355"/>
      <point x="73" y="-390" type="curve"/>
    </contour>
  </outline>
</glyph>
<glyph name="one.superior" format="1">
  <advance width="558"/>
  <unicode hex="00B9"/>
  <outline>
    <contour>
      <point x="51" y="548" type="line"/>
      <point x="54" y="608" type="line"/>
      <point x="212" y="631" type="line"/>
      <point x="212" y="1161" type="line"/>
      <point x="62" y="1161" type="line"/>
      <point x="66" y="1222" type="line"/>
      <point x="334" y="1258" type="line"/>
      <point x="353" y="1258" type="line"/>
      <point x="353" y="628" type="line"/>
      <point x="508" y="618" type="line"/>
      <point x="503" y="548" type="line"/>
    </contour>
  </outline>
</glyph>
<glyph name="ordmasculine" format="1">
  <advance width="770"/>
  <unicode hex="00BA"/>
  <outline>
    <contour>
      <point x="53" y="886" type="curve" smooth="yes"/>
      <point x="53" y="1128"/>
      <point x="218" y="1270"/>
      <point x="402" y="1270" type="curve" smooth="yes"/>
      <point x="594" y="1270"/>
      <point x="717" y="1113"/>
      <point x="717" y="909" type="curve" smooth="yes"/>
      <point x="717" y="685"/>
      <point x="563" y="536"/>
      <point x="382" y="536" type="curve" smooth="yes"/>
      <point x="185" y="536"/>
      <point x="53" y="678"/>
    </contour>
    <contour>
      <point x="188" y="944" type="curve" smooth="yes"/>
      <point x="188" y="761"/>
      <point x="252" y="604"/>
      <point x="411" y="604" type="curve" smooth="yes"/>
      <point x="529" y="604"/>
      <point x="582" y="722"/>
      <point x="582" y="862" type="curve" smooth="yes"/>
      <point x="582" y="1028"/>
      <point x="521" y="1198"/>
      <point x="367" y="1198" type="curve" smooth="yes"/>
      <point x="242" y="1198"/>
      <point x="188" y="1084"/>
    </contour>
  </outline>
</glyph>
<glyph name="onequarter" format="1">
  <advance width="1329"/>
  <unicode hex="00BC"/>
  <outline>
    <contour>
      <point x="702" y="250" type="line"/>
      <point x="1098" y="730" type="line"/>
      <point x="1148" y="721" type="line"/>
      <point x="1142" y="650"/>
      <point x="1140" y="534"/>
      <point x="1140" y="425" type="curve" smooth="yes"/>
      <point x="1140" y="274" type="line"/>
      <point x="1288" y="274" type="line"/>
      <point x="1279" y="188" type="line"/>
      <point x="1140" y="188" type="line"/>
      <point x="1140" y="74" type="line"/>
      <point x="1259" y="55" type="line"/>
      <point x="1253" y="0" type="line"/>
      <point x="859" y="0" type="line"/>
      <point x="864" y="50" type="line"/>
      <point x="1014" y="76" type="line"/>
      <point x="1014" y="192" type="line"/>
      <point x="712" y="192" type="line"/>
    </contour>
    <contour>
      <point x="808" y="274" type="line"/>
      <point x="1012" y="274" type="line"/>
      <point x="1012" y="532" type="line"/>
    </contour>
    <contour>
      <point x="45" y="550" type="line"/>
      <point x="48" y="610" type="line"/>
      <point x="206" y="633" type="line"/>
      <point x="206" y="1163" type="line"/>
      <point x="56" y="1163" type="line"/>
      <point x="60" y="1224" type="line"/>
      <point x="328" y="1260" type="line"/>
      <point x="347" y="1260" type="line"/>
      <point x="347" y="630" type="line"/>
      <point x="502" y="620" type="line"/>
      <point x="497" y="550" type="line"/>
    </contour>
    <contour>
      <point x="242" y="-26" type="line"/>
      <point x="618" y="588" type="line"/>
      <point x="972" y="1211" type="line"/>
      <point x="1108" y="1207" type="line"/>
      <point x="1106" y="1190" type="line"/>
      <point x="740" y="591" type="line"/>
      <point x="392" y="-40" type="line"/>
    </contour>
  </outline>
</glyph>
<glyph name="onehalf" format="1">
  <advance width="1403"/>
  <unicode hex="00BD"/>
  <outline>
    <contour>
      <point x="808" y="78" type="line"/>
      <point x="962" y="202" type="line" smooth="yes"/>
      <point x="1096" y="312"/>
      <point x="1167" y="392"/>
      <point x="1167" y="492" type="curve" smooth="yes"/>
      <point x="1167" y="570"/>
      <point x="1136" y="646"/>
      <point x="1044" y="646" type="curve" smooth="yes"/>
      <point x="982" y="646"/>
      <point x="946" y="629"/>
      <point x="929" y="606" type="curve"/>
      <point x="905" y="467" type="line"/>
      <point x="850" y="472" type="line"/>
      <point x="845" y="636" type="line"/>
      <point x="881" y="690"/>
      <point x="987" y="726"/>
      <point x="1090" y="726" type="curve" smooth="yes"/>
      <point x="1228" y="726"/>
      <point x="1320" y="660"/>
      <point x="1320" y="526" type="curve" smooth="yes"/>
      <point x="1320" y="374"/>
      <point x="1184" y="271"/>
      <point x="988" y="128" type="curve" smooth="yes"/>
      <point x="953" y="104" type="line"/>
      <point x="1246" y="104" type="line"/>
      <point x="1308" y="254" type="line"/>
      <point x="1354" y="242" type="line"/>
      <point x="1334" y="1" type="line"/>
      <point x="806" y="1" type="line"/>
    </contour>
    <contour>
      <point x="45" y="550" type="line"/>
      <point x="48" y="610" type="line"/>
      <point x="206" y="633" type="line"/>
      <point x="206" y="1163" type="line"/>
      <point x="56" y="1163" type="line"/>
      <point x="60" y="1224" type="line"/>
      <point x="328" y="1260" type="line"/>
      <point x="347" y="1260" type="line"/>
      <point x="347" y="630" type="line"/>
      <point x="502" y="620" type="line"/>
      <point x="497" y="550" type="line"/>
    </contour>
    <contour>
      <point x="232" y="-26" type="line"/>
      <point x="608" y="588" type="line"/>
      <point x="962" y="1211" type="line"/>
      <point x="1098" y="1207" type="line"/>
      <point x="1096" y="1190" type="line"/>
      <point x="730" y="591" type="line"/>
      <point x="382" y="-40" type="line"/>
    </contour>
  </outline>
</glyph>
<glyph name="threequarters" format="1">
  <advance width="1322"/>
  <unicode hex="00BE"/>
  <outline>
    <contour>
      <point x="45" y="595" type="curve"/>
      <point x="79" y="766" type="line"/>
      <point x="138" y="759" type="line"/>
      <point x="144" y="632" type="line"/>
      <point x="163" y="604"/>
      <point x="210" y="576"/>
      <point x="263" y="576" type="curve" smooth="yes"/>
      <point x="355" y="576"/>
      <point x="417" y="636"/>
      <point x="417" y="726" type="curve" smooth="yes"/>
      <point x="417" y="814"/>
      <point x="309" y="874"/>
      <point x="193" y="876" type="curve"/>
      <point x="185" y="915" type="line"/>
      <point x="231" y="933"/>
      <point x="375" y="984"/>
      <point x="375" y="1092" type="curve" smooth="yes"/>
      <point x="375" y="1149"/>
      <point x="339" y="1214"/>
      <point x="269" y="1214" type="curve" smooth="yes"/>
      <point x="225" y="1214"/>
      <point x="195" y="1210"/>
      <point x="175" y="1188" type="curve"/>
      <point x="147" y="1046" type="line"/>
      <point x="85" y="1052" type="line"/>
      <point x="81" y="1208" type="line"/>
      <point x="113" y="1247"/>
      <point x="208" y="1286"/>
      <point x="316" y="1286" type="curve" smooth="yes"/>
      <point x="430" y="1286"/>
      <point x="523" y="1224"/>
      <point x="523" y="1126" type="curve" smooth="yes"/>
      <point x="523" y="1024"/>
      <point x="436" y="965"/>
      <point x="345" y="937" type="curve"/>
      <point x="345" y="930" type="line"/>
      <point x="483" y="914"/>
      <point x="563" y="841"/>
      <point x="563" y="742" type="curve" smooth="yes"/>
      <point x="563" y="607"/>
      <point x="414" y="508"/>
      <point x="251" y="508" type="curve" smooth="yes"/>
      <point x="153" y="508"/>
      <point x="71" y="543"/>
    </contour>
    <contour>
      <point x="242" y="-26" type="line"/>
      <point x="619" y="588" type="line"/>
      <point x="972" y="1211" type="line"/>
      <point x="1109" y="1207" type="line"/>
      <point x="1106" y="1190" type="line"/>
      <point x="740" y="591" type="line"/>
      <point x="393" y="-40" type="line"/>
    </contour>
    <contour>
      <point x="695" y="250" type="line"/>
      <point x="1091" y="730" type="line"/>
      <point x="1141" y="721" type="line"/>
      <point x="1135" y="650"/>
      <point x="1133" y="534"/>
      <point x="1133" y="425" type="curve" smooth="yes"/>
      <point x="1133" y="274" type="line"/>
      <point x="1281" y="274" type="line"/>
      <point x="1272" y="188" type="line"/>
      <point x="1133" y="188" type="line"/>
      <point x="1133" y="74" type="line"/>
      <point x="1252" y="55" type="line"/>
      <point x="1246" y="0" type="line"/>
      <point x="852" y="0" type="line"/>
      <point x="857" y="50" type="line"/>
      <point x="1007" y="76" type="line"/>
      <point x="1007" y="192" type="line"/>
      <point x="705" y="192" type="line"/>
    </contour>
    <contour>
      <point x="801" y="274" type="line"/>
      <point x="1005" y="274" type="line"/>
      <point x="1005" y="532" type="line"/>
    </contour>
  </outline>
</glyph>
<glyph name="Eth" format="1">
  <advance width="1314"/>
  <unicode hex="00D0"/>
  <outline>
    <contour>
      <point x="51" y="574" type="line"/>
      <point x="61" y="650" type="line"/>
      <point x="232" y="662" type="line"/>
      <point x="232" y="1129" type="line"/>
      <point x="59" y="1155" type="line"/>
      <point x="69" y="1211" type="line"/>
      <point x="266" y="1242"/>
      <point x="416" y="1260"/>
      <point x="562" y="1260" type="curve" smooth="yes"/>
      <point x="1097" y="1260"/>
      <point x="1266" y="965"/>
      <point x="1266" y="657" type="curve" smooth="yes"/>
      <point x="1266" y="323"/>
      <point x="1025" y="0"/>
      <point x="522" y="0" type="curve" smooth="yes"/>
      <point x="50" y="0" type="line"/>
      <point x="61" y="58" type="line"/>
      <point x="232" y="101" type="line"/>
      <point x="232" y="587" type="line"/>
    </contour>
    <contour>
      <point x="378" y="79" type="line"/>
      <point x="574" y="79" type="line" smooth="yes"/>
      <point x="916" y="79"/>
      <point x="1101" y="305"/>
      <point x="1101" y="599" type="curve" smooth="yes"/>
      <point x="1101" y="934"/>
      <point x="907" y="1182"/>
      <point x="526" y="1182" type="curve" smooth="yes"/>
      <point x="485" y="1182"/>
      <point x="419" y="1181"/>
      <point x="378" y="1176" type="curve"/>
      <point x="378" y="672" type="line"/>
      <point x="650" y="692" type="line"/>
      <point x="640" y="616" type="line"/>
      <point x="378" y="597" type="line"/>
    </contour>
  </outline>
</glyph>
<glyph name="germandbls" format="1">
  <advance width="1101"/>
  <unicode hex="00DF"/>
  <outline>
    <contour>
      <point x="44" y="0" type="line"/>
      <point x="56" y="52" type="line"/>
      <point x="207" y="88" type="line"/>
      <point x="207" y="804" type="line"/>
      <point x="60" y="804" type="line"/>
      <point x="71" y="853" type="line"/>
      <point x="209" y="877" type="line"/>
      <point x="222" y="1106"/>
      <point x="351" y="1304"/>
      <point x="575" y="1304" type="curve" smooth="yes"/>
      <point x="726" y="1304"/>
      <point x="844" y="1205"/>
      <point x="844" y="1054" type="curve"/>
      <point x="844" y="876"/>
      <point x="627" y="792"/>
      <point x="627" y="682" type="curve" smooth="yes"/>
      <point x="627" y="491"/>
      <point x="1057" y="460"/>
      <point x="1057" y="214" type="curve" smooth="yes"/>
      <point x="1057" y="66"/>
      <point x="914" y="-33"/>
      <point x="760" y="-33" type="curve" smooth="yes"/>
      <point x="600" y="-33"/>
      <point x="481" y="49"/>
      <point x="481" y="158" type="curve" smooth="yes"/>
      <point x="481" y="229"/>
      <point x="533" y="263"/>
      <point x="587" y="269" type="curve"/>
      <point x="615" y="115"/>
      <point x="685" y="41"/>
      <point x="791" y="41" type="curve" smooth="yes"/>
      <point x="877" y="41"/>
      <point x="940" y="86"/>
      <point x="940" y="161" type="curve" smooth="yes"/>
      <point x="940" y="317"/>
      <point x="524" y="364"/>
      <point x="524" y="620" type="curve" smooth="yes"/>
      <point x="524" y="805"/>
      <point x="718" y="864"/>
      <point x="718" y="1012" type="curve"/>
      <point x="718" y="1129"/>
      <point x="625" y="1219"/>
      <point x="515" y="1219" type="curve" smooth="yes"/>
      <point x="403" y="1219"/>
      <point x="342" y="1122"/>
      <point x="342" y="945" type="curve" smooth="yes"/>
      <point x="342" y="0" type="line"/>
    </contour>
  </outline>
</glyph>
<glyph name="ae" format="1">
  <advance width="1203"/>
  <unicode hex="00E6"/>
  <outline>
    <contour>
      <point x="46" y="163" type="curve" smooth="yes"/>
      <point x="46" y="318"/>
      <point x="161" y="425"/>
      <point x="508" y="476" type="curve"/>
      <point x="508" y="539" type="line" smooth="yes"/>
      <point x="508" y="711"/>
      <point x="472" y="813"/>
      <point x="329" y="813" type="curve" smooth="yes"/>
      <point x="226" y="813"/>
      <point x="207" y="731"/>
      <point x="192" y="609" type="curve"/>
      <point x="144" y="609"/>
      <point x="84" y="621"/>
      <point x="84" y="693" type="curve" smooth="yes"/>
      <point x="84" y="799"/>
      <point x="258" y="888"/>
      <point x="397" y="888" type="curve" smooth="yes"/>
      <point x="502" y="888"/>
      <point x="577" y="844"/>
      <point x="605" y="748" type="curve"/>
      <point x="681" y="846"/>
      <point x="786" y="886"/>
      <point x="882" y="886" type="curve" smooth="yes"/>
      <point x="1028" y="886"/>
      <point x="1133" y="789"/>
      <point x="1133" y="578" type="curve" smooth="yes"/>
      <point x="1133" y="547"/>
      <point x="1124" y="483"/>
      <point x="1115" y="448" type="curve"/>
      <point x="632" y="428" type="line"/>
      <point x="636" y="240"/>
      <point x="720" y="70"/>
      <point x="918" y="70" type="curve" smooth="yes"/>
      <point x="1001" y="70"/>
      <point x="1064" y="95"/>
      <point x="1139" y="146" type="curve"/>
      <point x="1158" y="104" type="line"/>
      <point x="1090" y="25"/>
      <point x="982" y="-30"/>
      <point x="849" y="-30" type="curve" smooth="yes"/>
      <point x="746" y="-30"/>
      <point x="585" y="44"/>
      <point x="546" y="172" type="curve"/>
      <point x="516" y="74"/>
      <point x="397" y="-26"/>
      <point x="247" y="-26" type="curve" smooth="yes"/>
      <point x="141" y="-26"/>
      <point x="46" y="40"/>
    </contour>
    <contour>
      <point x="182" y="200" type="curve" smooth="yes"/>
      <point x="182" y="119"/>
      <point x="228" y="62"/>
      <point x="309" y="62" type="curve" smooth="yes"/>
      <point x="400" y="62"/>
      <point x="508" y="144"/>
      <point x="508" y="255" type="curve" smooth="yes"/>
      <point x="508" y="416" type="line"/>
      <point x="283" y="382"/>
      <point x="182" y="327"/>
    </contour>
    <contour>
      <point x="632" y="492" type="curve"/>
      <point x="982" y="529" type="line"/>
      <point x="988" y="548"/>
      <point x="992" y="595"/>
      <point x="992" y="611" type="curve" smooth="yes"/>
      <point x="992" y="729"/>
      <point x="928" y="809"/>
      <point x="832" y="809" type="curve" smooth="yes"/>
      <point x="727" y="809"/>
      <point x="637" y="693"/>
    </contour>
  </outline>
</glyph>
<glyph name="igrave" format="1">
  <advance width="547"/>
  <unicode hex="00EC"/>
  <outline>
    <contour>
      <point x="48" y="0" type="line"/>
      <point x="60" y="55" type="line"/>
      <point x="211" y="87" type="line"/>
      <point x="211" y="772" type="line"/>
      <point x="59" y="814" type="line"/>
      <point x="67" y="865" type="line"/>
      <point x="326" y="887" type="line"/>
      <point x="342" y="871" type="line"/>
      <point x="342" y="87" type="line"/>
      <point x="502" y="57" type="line"/>
      <point x="491" y="0" type="line"/>
    </contour>
    <component base="grave" xOffset="4" yOffset="-342"/>
  </outline>
</glyph>
<glyph name="iacute" format="1">
  <advance width="543"/>
  <unicode hex="00ED"/>
  <outline>
    <contour>
      <point x="44" y="0" type="line"/>
      <point x="56" y="55" type="line"/>
      <point x="207" y="87" type="line"/>
      <point x="207" y="772" type="line"/>
      <point x="55" y="814" type="line"/>
      <point x="63" y="865" type="line"/>
      <point x="322" y="887" type="line"/>
      <point x="338" y="871" type="line"/>
      <point x="338" y="87" type="line"/>
      <point x="498" y="57" type="line"/>
      <point x="487" y="0" type="line"/>
    </contour>
    <component base="acute" xOffset="134" yOffset="-356"/>
  </outline>
</glyph>
<glyph name="icircumflex" format="1">
  <advance width="545"/>
  <unicode hex="00EE"/>
  <outline>
    <contour>
      <point x="46" y="0" type="line"/>
      <point x="58" y="55" type="line"/>
      <point x="209" y="87" type="line"/>
      <point x="209" y="772" type="line"/>
      <point x="57" y="814" type="line"/>
      <point x="65" y="865" type="line"/>
      <point x="324" y="887" type="line"/>
      <point x="340" y="871" type="line"/>
      <point x="340" y="87" type="line"/>
      <point x="500" y="57" type="line"/>
      <point x="489" y="0" type="line"/>
    </contour>
    <component base="circumflex" xOffset="-32" yOffset="-368"/>
  </outline>
</glyph>
<glyph name="idieresis" format="1">
  <advance width="570"/>
  <unicode hex="00EF"/>
  <outline>
    <contour>
      <point x="46" y="0" type="line"/>
      <point x="58" y="55" type="line"/>
      <point x="209" y="87" type="line"/>
      <point x="209" y="772" type="line"/>
      <point x="57" y="814" type="line"/>
      <point x="65" y="865" type="line"/>
      <point x="324" y="887" type="line"/>
      <point x="340" y="871" type="line"/>
      <point x="340" y="87" type="line"/>
      <point x="500" y="57" type="line"/>
      <point x="489" y="0" type="line"/>
    </contour>
    <component base="dieresis" xOffset="-44" yOffset="-395.65"/>
  </outline>
</glyph>
<glyph name="eth" format="1">
  <advance width="851"/>
  <unicode hex="00F0"/>
  <outline>
    <contour>
      <point x="51" y="451" type="curve" smooth="yes"/>
      <point x="51" y="746"/>
      <point x="200" y="949"/>
      <point x="413" y="949" type="curve" smooth="yes"/>
      <point x="492" y="949"/>
      <point x="581" y="896"/>
      <point x="611" y="820" type="curve"/>
      <point x="618" y="821" type="line"/>
      <point x="593" y="915"/>
      <point x="539" y="1007"/>
      <point x="485" y="1086" type="curve"/>
      <point x="253" y="1040" type="line"/>
      <point x="264" y="1103" type="line"/>
      <point x="451" y="1141" type="line"/>
      <point x="396" y="1214"/>
      <point x="340" y="1271"/>
      <point x="305" y="1303" type="curve"/>
      <point x="397" y="1303" type="line"/>
      <point x="442" y="1275"/>
      <point x="499" y="1227"/>
      <point x="555" y="1164" type="curve"/>
      <point x="711" y="1197" type="line"/>
      <point x="702" y="1133" type="line"/>
      <point x="599" y="1112" type="line"/>
      <point x="710" y="965"/>
      <point x="802" y="751"/>
      <point x="802" y="465" type="curve" smooth="yes"/>
      <point x="802" y="157"/>
      <point x="642" y="-27"/>
      <point x="427" y="-27" type="curve" smooth="yes"/>
      <point x="167" y="-27"/>
      <point x="51" y="208"/>
    </contour>
    <contour>
      <point x="190" y="499" type="curve"/>
      <point x="192" y="207"/>
      <point x="305" y="50"/>
      <point x="450" y="50" type="curve" smooth="yes"/>
      <point x="605" y="50"/>
      <point x="665" y="210"/>
      <point x="665" y="425" type="curve" smooth="yes"/>
      <point x="665" y="700"/>
      <point x="526" y="873"/>
      <point x="400" y="875" type="curve"/>
      <point x="395" y="875" type="line"/>
      <point x="247" y="873"/>
      <point x="190" y="702"/>
    </contour>
  </outline>
</glyph>
<glyph name="divide" format="1">
  <advance width="918"/>
  <unicode hex="00F7"/>
  <outline>
    <contour>
      <point x="46" y="465" type="line"/>
      <point x="59" y="550" type="line"/>
      <point x="871" y="550" type="line"/>
      <point x="860" y="465" type="line"/>
    </contour>
    <contour>
      <point x="361" y="226" type="curve" smooth="yes"/>
      <point x="361" y="290"/>
      <point x="397" y="330"/>
      <point x="451" y="330" type="curve" smooth="yes"/>
      <point x="505" y="330"/>
      <point x="545" y="289"/>
      <point x="545" y="225" type="curve" smooth="yes"/>
      <point x="545" y="158"/>
      <point x="508" y="112"/>
      <point x="452" y="112" type="curve" smooth="yes"/>
      <point x="396" y="112"/>
      <point x="361" y="160"/>
    </contour>
    <contour>
      <point x="361" y="790" type="curve" smooth="yes"/>
      <point x="361" y="854"/>
      <point x="397" y="894"/>
      <point x="451" y="894" type="curve" smooth="yes"/>
      <point x="505" y="894"/>
      <point x="545" y="854"/>
      <point x="545" y="790" type="curve" smooth="yes"/>
      <point x="545" y="723"/>
      <point x="508" y="676"/>
      <point x="452" y="676" type="curve" smooth="yes"/>
      <point x="396" y="676"/>
      <point x="361" y="724"/>
    </contour>
  </outline>
</glyph>
<glyph name="oslash" format="1">
  <advance width="946"/>
  <unicode hex="00F8"/>
  <outline>
    <contour>
      <point x="43" y="0" type="line"/>
      <point x="186" y="162" type="line"/>
      <point x="229" y="183" type="line"/>
      <point x="673" y="724" type="line"/>
      <point x="687" y="765" type="line"/>
      <point x="770" y="873" type="line"/>
      <point x="905" y="880" type="line"/>
      <point x="763" y="709" type="line"/>
      <point x="710" y="675" type="line"/>
      <point x="267" y="141" type="line"/>
      <point x="256" y="99" type="line"/>
      <point x="180" y="6" type="line"/>
    </contour>
    <contour>
      <point x="218" y="489" type="curve" smooth="yes"/>
      <point x="218" y="268"/>
      <point x="312" y="54"/>
      <point x="504" y="54" type="curve" smooth="yes"/>
      <point x="647" y="54"/>
      <point x="728" y="211"/>
      <point x="728" y="386" type="curve" smooth="yes"/>
      <point x="728" y="588"/>
      <point x="638" y="819"/>
      <point x="451" y="819" type="curve" smooth="yes"/>
      <point x="300" y="819"/>
      <point x="218" y="665"/>
    </contour>
    <contour>
      <point x="75" y="417" type="curve" smooth="yes"/>
      <point x="75" y="723"/>
      <point x="270" y="903"/>
      <point x="494" y="903" type="curve" smooth="yes"/>
      <point x="726" y="903"/>
      <point x="870" y="700"/>
      <point x="870" y="445" type="curve" smooth="yes"/>
      <point x="870" y="166"/>
      <point x="688" y="-27"/>
      <point x="469" y="-27" type="curve" smooth="yes"/>
      <point x="228" y="-27"/>
      <point x="75" y="156"/>
    </contour>
  </outline>
</glyph>
<glyph name="thorn" format="1">
  <advance width="955"/>
  <unicode hex="00FE"/>
  <outline>
    <contour>
      <point x="41" y="-370" type="line"/>
      <point x="47" y="-311" type="line"/>
      <point x="199" y="-282" type="line"/>
      <point x="196" y="1184" type="line"/>
      <point x="46" y="1226" type="line"/>
      <point x="54" y="1280" type="line"/>
      <point x="315" y="1300" type="line"/>
      <point x="331" y="1284" type="line"/>
      <point x="331" y="849" type="line"/>
      <point x="319" y="740" type="line"/>
      <point x="328" y="740" type="line"/>
      <point x="383" y="808"/>
      <point x="474" y="898"/>
      <point x="605" y="898" type="curve" smooth="yes"/>
      <point x="776" y="898"/>
      <point x="907" y="750"/>
      <point x="907" y="468" type="curve" smooth="yes"/>
      <point x="907" y="186"/>
      <point x="728" y="-17"/>
      <point x="485" y="-17" type="curve" smooth="yes"/>
      <point x="454" y="-17"/>
      <point x="412" y="-13"/>
      <point x="379" y="-4" type="curve"/>
      <point x="375" y="82" type="line"/>
      <point x="413" y="70"/>
      <point x="450" y="66"/>
      <point x="503" y="66" type="curve" smooth="yes"/>
      <point x="677" y="66"/>
      <point x="762" y="216"/>
      <point x="762" y="411" type="curve" smooth="yes"/>
      <point x="762" y="645"/>
      <point x="693" y="792"/>
      <point x="539" y="792" type="curve" smooth="yes"/>
      <point x="446" y="792"/>
      <point x="378" y="730"/>
      <point x="328" y="678" type="curve"/>
      <point x="328" y="-283" type="line"/>
      <point x="484" y="-309" type="line"/>
      <point x="474" y="-370" type="line"/>
    </contour>
  </outline>
</glyph>
<glyph name="Ccaron" format="1">
  <advance width="1096"/>
  <unicode hex="010C"/>
  <outline>
    <contour>
      <point x="507" y="1545" type="line"/>
      <point x="575" y="1600" type="line"/>
      <point x="732" y="1444" type="line"/>
      <point x="742" y="1444" type="line"/>
      <point x="874" y="1597" type="line"/>
      <point x="915" y="1568" type="line"/>
      <point x="742" y="1386" type="line"/>
      <point x="686" y="1372" type="line"/>
    </contour>
    <component base="C"/>
  </outline>
</glyph>
<glyph name="ccaron" format="1">
  <advance width="765"/>
  <unicode hex="010D"/>
  <outline>
    <contour>
      <point x="288" y="1163" type="line"/>
      <point x="356" y="1218" type="line"/>
      <point x="513" y="1062" type="line"/>
      <point x="523" y="1062" type="line"/>
      <point x="655" y="1215" type="line"/>
      <point x="696" y="1186" type="line"/>
      <point x="523" y="1004" type="line"/>
      <point x="467" y="990" type="line"/>
    </contour>
    <component base="c"/>
  </outline>
</glyph>
<glyph name="Ecaron" format="1">
  <advance width="1098"/>
  <unicode hex="011A"/>
  <outline>
    <contour>
      <point x="413" y="1545" type="line"/>
      <point x="481" y="1600" type="line"/>
      <point x="638" y="1444" type="line"/>
      <point x="648" y="1444" type="line"/>
      <point x="780" y="1597" type="line"/>
      <point x="821" y="1568" type="line"/>
      <point x="648" y="1386" type="line"/>
      <point x="592" y="1372" type="line"/>
    </contour>
    <component base="E"/>
  </outline>
</glyph>
<glyph name="ecaron" format="1">
  <advance width="765"/>
  <unicode hex="011B"/>
  <outline>
    <contour>
      <point x="266" y="1163" type="line"/>
      <point x="334" y="1218" type="line"/>
      <point x="491" y="1062" type="line"/>
      <point x="501" y="1062" type="line"/>
      <point x="633" y="1215" type="line"/>
      <point x="674" y="1186" type="line"/>
      <point x="501" y="1004" type="line"/>
      <point x="445" y="990" type="line"/>
    </contour>
    <component base="e"/>
  </outline>
</glyph>
<glyph name="OE" format="1">
  <advance width="1679"/>
  <unicode hex="0152"/>
  <outline>
    <contour>
      <point x="64" y="620" type="curve" smooth="yes"/>
      <point x="64" y="1007"/>
      <point x="278" y="1274"/>
      <point x="657" y="1274" type="curve" smooth="yes"/>
      <point x="722" y="1274"/>
      <point x="786" y="1265"/>
      <point x="839" y="1245" type="curve"/>
      <point x="1553" y="1244" type="line"/>
      <point x="1522" y="925" type="line"/>
      <point x="1456" y="934" type="line"/>
      <point x="1426" y="1173" type="line"/>
      <point x="945" y="1173" type="line"/>
      <point x="945" y="668" type="line"/>
      <point x="1238" y="668" type="line"/>
      <point x="1278" y="797" type="line"/>
      <point x="1351" y="808" type="line"/>
      <point x="1317" y="419" type="line"/>
      <point x="1250" y="408" type="line"/>
      <point x="1225" y="594" type="line"/>
      <point x="945" y="594" type="line"/>
      <point x="945" y="75" type="line"/>
      <point x="1452" y="75" type="line"/>
      <point x="1537" y="324" type="line"/>
      <point x="1600" y="313" type="line"/>
      <point x="1569" y="0" type="line"/>
      <point x="792" y="0" type="line"/>
      <point x="726" y="-16"/>
      <point x="656" y="-27"/>
      <point x="588" y="-27" type="curve" smooth="yes"/>
      <point x="260" y="-27"/>
      <point x="64" y="258"/>
    </contour>
    <contour>
      <point x="229" y="678" type="curve" smooth="yes"/>
      <point x="229" y="363"/>
      <point x="360" y="55"/>
      <point x="633" y="55" type="curve" smooth="yes"/>
      <point x="693" y="55"/>
      <point x="746" y="67"/>
      <point x="795" y="93" type="curve"/>
      <point x="795" y="1139" type="line"/>
      <point x="740" y="1178"/>
      <point x="679" y="1197"/>
      <point x="610" y="1197" type="curve" smooth="yes"/>
      <point x="355" y="1197"/>
      <point x="229" y="976"/>
    </contour>
  </outline>
</glyph>
<glyph name="oe" format="1">
  <advance width="1416"/>
  <unicode hex="0153"/>
  <outline>
    <contour>
      <point x="70" y="417" type="curve" smooth="yes"/>
      <point x="70" y="721"/>
      <point x="261" y="890"/>
      <point x="466" y="890" type="curve" smooth="yes"/>
      <point x="594" y="890"/>
      <point x="727" y="823"/>
      <point x="778" y="701" type="curve"/>
      <point x="835" y="797"/>
      <point x="948" y="886"/>
      <point x="1090" y="886" type="curve" smooth="yes"/>
      <point x="1236" y="886"/>
      <point x="1340" y="801"/>
      <point x="1340" y="590" type="curve" smooth="yes"/>
      <point x="1340" y="559"/>
      <point x="1332" y="482"/>
      <point x="1323" y="447" type="curve"/>
      <point x="840" y="442" type="line"/>
      <point x="840" y="250"/>
      <point x="931" y="73"/>
      <point x="1126" y="73" type="curve" smooth="yes"/>
      <point x="1209" y="73"/>
      <point x="1271" y="97"/>
      <point x="1346" y="148" type="curve"/>
      <point x="1368" y="104" type="line"/>
      <point x="1300" y="25"/>
      <point x="1190" y="-30"/>
      <point x="1057" y="-30" type="curve" smooth="yes"/>
      <point x="919" y="-30"/>
      <point x="818" y="49"/>
      <point x="760" y="161" type="curve"/>
      <point x="681" y="30"/>
      <point x="571" y="-27"/>
      <point x="443" y="-27" type="curve" smooth="yes"/>
      <point x="216" y="-27"/>
      <point x="70" y="156"/>
    </contour>
    <contour>
      <point x="213" y="489" type="curve" smooth="yes"/>
      <point x="213" y="268"/>
      <point x="310" y="57"/>
      <point x="486" y="57" type="curve" smooth="yes"/>
      <point x="612" y="57"/>
      <point x="698" y="212"/>
      <point x="698" y="386" type="curve" smooth="yes"/>
      <point x="698" y="587"/>
      <point x="613" y="807"/>
      <point x="435" y="807" type="curve" smooth="yes"/>
      <point x="284" y="807"/>
      <point x="213" y="665"/>
    </contour>
    <contour>
      <point x="841" y="505" type="curve"/>
      <point x="1192" y="527" type="line"/>
      <point x="1197" y="545"/>
      <point x="1200" y="607"/>
      <point x="1200" y="623" type="curve" smooth="yes"/>
      <point x="1200" y="742"/>
      <point x="1137" y="805"/>
      <point x="1041" y="805" type="curve" smooth="yes"/>
      <point x="949" y="805"/>
      <point x="846" y="707"/>
    </contour>
  </outline>
</glyph>
<glyph name="Rcaron" format="1">
  <advance width="1223"/>
  <unicode hex="0158"/>
  <outline>
    <contour>
      <point x="381" y="1545" type="line"/>
      <point x="449" y="1600" type="line"/>
      <point x="606" y="1444" type="line"/>
      <point x="616" y="1444" type="line"/>
      <point x="748" y="1597" type="line"/>
      <point x="789" y="1568" type="line"/>
      <point x="616" y="1386" type="line"/>
      <point x="560" y="1372" type="line"/>
    </contour>
    <component base="R"/>
  </outline>
</glyph>
<glyph name="rcaron" format="1">
  <advance width="733"/>
  <unicode hex="0159"/>
  <outline>
    <contour>
      <point x="224" y="1162" type="line"/>
      <point x="292" y="1217" type="line"/>
      <point x="449" y="1061" type="line"/>
      <point x="459" y="1061" type="line"/>
      <point x="591" y="1214" type="line"/>
      <point x="632" y="1185" type="line"/>
      <point x="459" y="1003" type="line"/>
      <point x="403" y="989" type="line"/>
    </contour>
    <component base="r"/>
  </outline>
</glyph>
<glyph name="Scaron" format="1">
  <advance width="850"/>
  <unicode hex="0160"/>
  <outline>
    <contour>
      <point x="273" y="1545" type="line"/>
      <point x="341" y="1600" type="line"/>
      <point x="498" y="1444" type="line"/>
      <point x="508" y="1444" type="line"/>
      <point x="640" y="1597" type="line"/>
      <point x="681" y="1568" type="line"/>
      <point x="508" y="1386" type="line"/>
      <point x="452" y="1372" type="line"/>
    </contour>
    <component base="S"/>
  </outline>
</glyph>
<glyph name="scaron" format="1">
  <advance width="667"/>
  <unicode hex="0161"/>
  <outline>
    <contour>
      <point x="181" y="1163" type="line"/>
      <point x="249" y="1218" type="line"/>
      <point x="406" y="1062" type="line"/>
      <point x="416" y="1062" type="line"/>
      <point x="548" y="1215" type="line"/>
      <point x="589" y="1186" type="line"/>
      <point x="416" y="1004" type="line"/>
      <point x="360" y="990" type="line"/>
    </contour>
    <component base="s"/>
  </outline>
</glyph>
<glyph name="Zcaron" format="1">
  <advance width="1070"/>
  <unicode hex="017D"/>
  <outline>
    <contour>
      <point x="347" y="1545" type="line"/>
      <point x="415" y="1600" type="line"/>
      <point x="572" y="1444" type="line"/>
      <point x="582" y="1444" type="line"/>
      <point x="714" y="1597" type="line"/>
      <point x="755" y="1568" type="line"/>
      <point x="582" y="1386" type="line"/>
      <point x="526" y="1372" type="line"/>
    </contour>
    <component base="Z"/>
  </outline>
</glyph>
<glyph name="zcaron" format="1">
  <advance width="796"/>
  <unicode hex="017E"/>
  <outline>
    <contour>
      <point x="245" y="1163" type="line"/>
      <point x="313" y="1218" type="line"/>
      <point x="470" y="1062" type="line"/>
      <point x="480" y="1062" type="line"/>
      <point x="612" y="1215" type="line"/>
      <point x="653" y="1186" type="line"/>
      <point x="480" y="1004" type="line"/>
      <point x="424" y="990" type="line"/>
    </contour>
    <component base="z"/>
  </outline>
</glyph>
<glyph name="circumflex" format="1">
  <advance width="559"/>
  <unicode hex="02C6"/>
  <outline>
    <contour>
      <point x="79" y="1388" type="line"/>
      <point x="247" y="1568" type="line"/>
      <point x="302" y="1582" type="line"/>
      <point x="480" y="1396" type="line"/>
      <point x="440" y="1359" type="line"/>
      <point x="267" y="1481" type="line"/>
      <point x="258" y="1481" type="line"/>
      <point x="109" y="1358" type="line"/>
    </contour>
  </outline>
</glyph>
<glyph name="dotaccent" format="1">
  <advance width="296"/>
  <unicode hex="02D9"/>
  <outline>
    <contour>
      <point x="65" y="204" type="curve" smooth="yes"/>
      <point x="65" y="265"/>
      <point x="98" y="306"/>
      <point x="149" y="306" type="curve" smooth="yes"/>
      <point x="200" y="306"/>
      <point x="235" y="266"/>
      <point x="235" y="204" type="curve" smooth="yes"/>
      <point x="235" y="140"/>
      <point x="203" y="98"/>
      <point x="149" y="98" type="curve" smooth="yes"/>
      <point x="96" y="98"/>
      <point x="65" y="142"/>
    </contour>
  </outline>
</glyph>
<glyph name="ring" format="1">
  <advance width="482"/>
  <unicode hex="02DA"/>
  <outline>
    <contour>
      <point x="79" y="1528" type="curve" smooth="yes"/>
      <point x="79" y="1620"/>
      <point x="152" y="1700"/>
      <point x="246" y="1700" type="curve" smooth="yes"/>
      <point x="342" y="1700"/>
      <point x="403" y="1631"/>
      <point x="403" y="1537" type="curve" smooth="yes"/>
      <point x="403" y="1447"/>
      <point x="336" y="1362"/>
      <point x="234" y="1362" type="curve" smooth="yes"/>
      <point x="142" y="1362"/>
      <point x="79" y="1426"/>
    </contour>
    <contour>
      <point x="146" y="1540" type="curve" smooth="yes"/>
      <point x="146" y="1478"/>
      <point x="179" y="1407"/>
      <point x="245" y="1407" type="curve" smooth="yes"/>
      <point x="301" y="1407"/>
      <point x="335" y="1449"/>
      <point x="335" y="1524" type="curve" smooth="yes"/>
      <point x="335" y="1588"/>
      <point x="299" y="1656"/>
      <point x="235" y="1656" type="curve" smooth="yes"/>
      <point x="173" y="1656"/>
      <point x="146" y="1598"/>
    </contour>
  </outline>
</glyph>
<glyph name="tilde" format="1">
  <advance width="625"/>
  <unicode hex="02DC"/>
  <outline>
    <contour>
      <point x="79" y="1381" type="line"/>
      <point x="79" y="1381"/>
      <point x="116" y="1544"/>
      <point x="226" y="1520" type="curve" smooth="yes"/>
      <point x="429" y="1478" type="line" smooth="yes"/>
      <point x="478" y="1465"/>
      <point x="505" y="1532"/>
      <point x="505" y="1532" type="curve"/>
      <point x="547" y="1530" type="line"/>
      <point x="547" y="1530"/>
      <point x="504" y="1366"/>
      <point x="392" y="1391" type="curve" smooth="yes"/>
      <point x="191" y="1433" type="line" smooth="yes"/>
      <point x="145" y="1445"/>
      <point x="112" y="1371"/>
      <point x="112" y="1371" type="curve"/>
    </contour>
  </outline>
</glyph>
<glyph name="Germandbls" format="1">
  <advance width="1264"/>
  <unicode hex="1E9E"/>
  <outline>
    <contour>
      <point x="46" y="0" type="line"/>
      <point x="53" y="57" type="line"/>
      <point x="220" y="96" type="line"/>
      <point x="220" y="758" type="line" smooth="yes"/>
      <point x="220" y="1112"/>
      <point x="401" y="1261"/>
      <point x="699" y="1261" type="curve" smooth="yes"/>
      <point x="887" y="1261"/>
      <point x="1158" y="1198"/>
      <point x="1158" y="1048" type="curve" smooth="yes"/>
      <point x="1158" y="983"/>
      <point x="1122" y="954"/>
      <point x="1056" y="932" type="curve"/>
      <point x="1028" y="1038"/>
      <point x="970" y="1153"/>
      <point x="845" y="1153" type="curve" smooth="yes"/>
      <point x="760" y="1153"/>
      <point x="655" y="1074"/>
      <point x="655" y="946" type="curve" smooth="yes"/>
      <point x="655" y="645"/>
      <point x="1219" y="647"/>
      <point x="1219" y="312" type="curve" smooth="yes"/>
      <point x="1219" y="105"/>
      <point x="1050" y="-25"/>
      <point x="814" y="-25" type="curve" smooth="yes"/>
      <point x="671" y="-25"/>
      <point x="544" y="33"/>
      <point x="484" y="118" type="curve"/>
      <point x="505" y="388" type="line"/>
      <point x="577" y="377" type="line"/>
      <point x="608" y="179" type="line"/>
      <point x="648" y="107"/>
      <point x="749" y="57"/>
      <point x="852" y="57" type="curve" smooth="yes"/>
      <point x="966" y="57"/>
      <point x="1073" y="112"/>
      <point x="1073" y="256" type="curve" smooth="yes"/>
      <point x="1073" y="524"/>
      <point x="522" y="528"/>
      <point x="522" y="874" type="curve" smooth="yes"/>
      <point x="522" y="1013"/>
      <point x="606" y="1151"/>
      <point x="747" y="1184" type="curve"/>
      <point x="749" y="1188" type="line"/>
      <point x="729" y="1190"/>
      <point x="681" y="1191"/>
      <point x="661" y="1191" type="curve" smooth="yes"/>
      <point x="464" y="1191"/>
      <point x="366" y="1035"/>
      <point x="366" y="780" type="curve" smooth="yes"/>
      <point x="366" y="0" type="line"/>
    </contour>
  </outline>
</glyph>
<glyph name="endash" format="1">
  <advance width="752"/>
  <unicode hex="2013"/>
  <outline>
    <contour>
      <point x="65" y="420" type="line"/>
      <point x="78" y="503" type="line"/>
      <point x="689" y="509" type="line"/>
      <point x="676" y="426" type="line"/>
    </contour>
  </outline>
</glyph>
<glyph name="dagger" format="1">
  <advance width="792"/>
  <unicode hex="2020"/>
  <outline>
    <contour>
      <point x="42" y="723" type="line"/>
      <point x="51" y="819" type="line"/>
      <point x="348" y="811" type="line"/>
      <point x="340" y="1256" type="line"/>
      <point x="453" y="1244" type="line"/>
      <point x="442" y="811" type="line"/>
      <point x="748" y="819" type="line"/>
      <point x="742" y="718" type="line"/>
      <point x="442" y="728" type="line"/>
      <point x="458" y="-363" type="line"/>
      <point x="333" y="-351" type="line"/>
      <point x="348" y="730" type="line"/>
    </contour>
  </outline>
</glyph>
<glyph name="daggerdbl" format="1">
  <advance width="799"/>
  <unicode hex="2021"/>
  <outline>
    <contour>
      <point x="45" y="723" type="line"/>
      <point x="53" y="818" type="line"/>
      <point x="348" y="811" type="line"/>
      <point x="340" y="1256" type="line"/>
      <point x="454" y="1244" type="line"/>
      <point x="443" y="811" type="line"/>
      <point x="748" y="818" type="line"/>
      <point x="741" y="717" type="line"/>
      <point x="443" y="728" type="line"/>
      <point x="435" y="429" type="line"/>
      <point x="440" y="165" type="line"/>
      <point x="752" y="171" type="line"/>
      <point x="746" y="75" type="line"/>
      <point x="440" y="85" type="line"/>
      <point x="448" y="-363" type="line"/>
      <point x="335" y="-353" type="line"/>
      <point x="345" y="85" type="line"/>
      <point x="58" y="75" type="line"/>
      <point x="65" y="178" type="line"/>
      <point x="345" y="166" type="line"/>
      <point x="352" y="499" type="line"/>
      <point x="348" y="730" type="line"/>
    </contour>
  </outline>
</glyph>
<glyph name="fraction" format="1">
  <advance width="1738"/>
  <unicode hex="2044"/>
  <outline>
    <contour>
      <point x="164" y="-26" type="line"/>
      <point x="540" y="588" type="line"/>
      <point x="895" y="1211" type="line"/>
      <point x="1025" y="1207" type="line"/>
      <point x="1025" y="1192" type="line"/>
      <point x="657" y="591" type="line"/>
      <point x="310" y="-40" type="line"/>
    </contour>
  </outline>
</glyph>
<glyph name="Euro" format="1">
  <advance width="1174"/>
  <unicode hex="20AC"/>
  <outline>
    <contour>
      <point x="47" y="493" type="line"/>
      <point x="53" y="576" type="line"/>
      <point x="878" y="576" type="line"/>
      <point x="861" y="493" type="line"/>
    </contour>
    <contour>
      <point x="56" y="672" type="line"/>
      <point x="61" y="754" type="line"/>
      <point x="925" y="754" type="line"/>
      <point x="908" y="672" type="line"/>
    </contour>
    <contour>
      <point x="214" y="610" type="curve" smooth="yes"/>
      <point x="214" y="939"/>
      <point x="402" y="1270"/>
      <point x="790" y="1270" type="curve" smooth="yes"/>
      <point x="923" y="1270"/>
      <point x="1012" y="1244"/>
      <point x="1108" y="1171" type="curve"/>
      <point x="1076" y="836" type="line"/>
      <point x="1011" y="846" type="line"/>
      <point x="974" y="1086" type="line"/>
      <point x="931" y="1149"/>
      <point x="881" y="1190"/>
      <point x="760" y="1190" type="curve" smooth="yes"/>
      <point x="511" y="1190"/>
      <point x="381" y="972"/>
      <point x="381" y="641" type="curve"/>
      <point x="381" y="287"/>
      <point x="534" y="63"/>
      <point x="788" y="63" type="curve" smooth="yes"/>
      <point x="851" y="63"/>
      <point x="933" y="94"/>
      <point x="990" y="173" type="curve"/>
      <point x="1027" y="417" type="line"/>
      <point x="1093" y="426" type="line"/>
      <point x="1124" y="107" type="line"/>
      <point x="1002" y="16"/>
      <point x="901" y="-25"/>
      <point x="737" y="-25" type="curve" smooth="yes"/>
      <point x="425" y="-25"/>
      <point x="214" y="224"/>
    </contour>
  </outline>
</glyph>
<glyph name="trademark" format="1">
  <advance width="1138"/>
  <unicode hex="2122"/>
  <outline>
    <contour>
      <point x="580" y="684" type="line"/>
      <point x="584" y="723" type="line"/>
      <point x="659" y="741" type="line"/>
      <point x="694" y="1187" type="line"/>
      <point x="611" y="1204" type="line"/>
      <point x="615" y="1244" type="line"/>
      <point x="817" y="1244" type="line"/>
      <point x="850" y="1158" type="line"/>
      <point x="961" y="824" type="line"/>
      <point x="1095" y="1175" type="line"/>
      <point x="1125" y="1244" type="line"/>
      <point x="1322" y="1244" type="line"/>
      <point x="1318" y="1204" type="line"/>
      <point x="1242" y="1188" type="line"/>
      <point x="1266" y="738" type="line"/>
      <point x="1347" y="726" type="line"/>
      <point x="1345" y="684" type="line"/>
      <point x="1100" y="684" type="line"/>
      <point x="1104" y="723" type="line"/>
      <point x="1180" y="741" type="line"/>
      <point x="1154" y="1168" type="line"/>
      <point x="985" y="710" type="line"/>
      <point x="915" y="704" type="line"/>
      <point x="751" y="1156" type="line"/>
      <point x="719" y="738" type="line"/>
      <point x="801" y="726" type="line"/>
      <point x="796" y="684" type="line"/>
    </contour>
    <contour>
      <point x="45" y="1244" type="line"/>
      <point x="577" y="1244" type="line"/>
      <point x="562" y="1083" type="line"/>
      <point x="509" y="1088" type="line"/>
      <point x="497" y="1197" type="line"/>
      <point x="352" y="1197" type="line"/>
      <point x="352" y="741" type="line"/>
      <point x="434" y="728" type="line"/>
      <point x="428" y="684" type="line"/>
      <point x="180" y="684" type="line"/>
      <point x="183" y="725" type="line"/>
      <point x="260" y="743" type="line"/>
      <point x="260" y="1197" type="line"/>
      <point x="121" y="1197" type="line"/>
      <point x="101" y="1084" type="line"/>
      <point x="49" y="1089" type="line"/>
    </contour>
  </outline>
</glyph>
<glyph name="lozenge" format="1">
  <advance width="941"/>
  <unicode hex="25CA"/>
  <outline>
    <contour>
      <point x="230" y="474" type="line"/>
      <point x="472" y="759" type="line"/>
      <point x="715" y="472" type="line"/>
      <point x="474" y="180" type="line"/>
    </contour>
  </outline>
</glyph>
<glyph name="Germandbls.alt" format="1">
  <advance width="1277"/>
  <outline>
    <contour>
      <point x="43" y="0" type="line"/>
      <point x="50" y="58" type="line"/>
      <point x="219" y="97" type="line"/>
      <point x="219" y="727" type="line" smooth="yes"/>
      <point x="219" y="1090"/>
      <point x="371" y="1274"/>
      <point x="703" y="1274" type="curve" smooth="yes"/>
      <point x="885" y="1274"/>
      <point x="1057" y="1256"/>
      <point x="1128" y="1235" type="curve"/>
      <point x="1129" y="1184" type="line"/>
      <point x="802" y="751" type="line"/>
      <point x="951" y="664"/>
      <point x="1228" y="566"/>
      <point x="1228" y="323" type="curve" smooth="yes"/>
      <point x="1228" y="112"/>
      <point x="1060" y="-25"/>
      <point x="819" y="-25" type="curve" smooth="yes"/>
      <point x="674" y="-25"/>
      <point x="546" y="39"/>
      <point x="486" y="123" type="curve"/>
      <point x="507" y="400" type="line"/>
      <point x="583" y="389" type="line"/>
      <point x="616" y="185" type="line"/>
      <point x="657" y="112"/>
      <point x="754" y="57"/>
      <point x="857" y="57" type="curve" smooth="yes"/>
      <point x="981" y="57"/>
      <point x="1080" y="129"/>
      <point x="1080" y="267" type="curve" smooth="yes"/>
      <point x="1080" y="466"/>
      <point x="788" y="579"/>
      <point x="633" y="666" type="curve"/>
      <point x="611" y="711" type="line"/>
      <point x="943" y="1159" type="line"/>
      <point x="943" y="1163" type="line"/>
      <point x="894" y="1182"/>
      <point x="729" y="1203"/>
      <point x="665" y="1203" type="curve" smooth="yes"/>
      <point x="438" y="1203"/>
      <point x="366" y="1013"/>
      <point x="366" y="750" type="curve" smooth="yes"/>
      <point x="366" y="0" type="line"/>
    </contour>
  </outline>
</glyph>
<glyph name="acircumflex.sc" format="1">
  <advance width="944"/>
  <outline>
    <contour>
      <point x="22.5" y="0" type="line"/>
      <point x="29.5" y="58" type="line"/>
      <point x="145" y="100.5" type="line"/>
      <point x="465.5" y="918.5" type="line"/>
      <point x="567.5" y="941" type="line"/>
      <point x="870" y="95" type="line"/>
      <point x="974.5" y="63.5" type="line"/>
      <point x="966" y="0.5" type="line"/>
      <point x="569" y="0.5" type="line"/>
      <point x="579.5" y="58.5" type="line"/>
      <point x="713" y="97" type="line"/>
      <point x="484.5" y="747" type="line"/>
      <point x="251" y="94.5" type="line"/>
      <point x="401" y="63" type="line"/>
      <point x="391" y="0" type="line"/>
    </contour>
    <contour>
      <point x="289" y="308" type="line"/>
      <point x="318" y="387" type="line"/>
      <point x="675.5" y="387" type="line"/>
      <point x="699.5" y="308" type="line"/>
    </contour>
    <contour>
      <point x="328" y="1034.5" type="line"/>
      <point x="495.5" y="1214.5" type="line"/>
      <point x="550" y="1228.5" type="line"/>
      <point x="728.5" y="1042.5" type="line"/>
      <point x="688" y="1005.5" type="line"/>
      <point x="516" y="1128" type="line"/>
      <point x="506" y="1128" type="line"/>
      <point x="358" y="1004.5" type="line"/>
    </contour>
  </outline>
</glyph>
<glyph name="adieresis.sc" format="1">
  <advance width="944"/>
  <outline>
    <contour>
      <point x="22.5" y="0" type="line"/>
      <point x="29.5" y="58" type="line"/>
      <point x="145" y="100.5" type="line"/>
      <point x="465.5" y="918.5" type="line"/>
      <point x="567.5" y="941" type="line"/>
      <point x="870" y="95" type="line"/>
      <point x="974.5" y="63.5" type="line"/>
      <point x="966" y="0.5" type="line"/>
      <point x="569" y="0.5" type="line"/>
      <point x="579.5" y="58.5" type="line"/>
      <point x="713" y="97" type="line"/>
      <point x="484.5" y="747" type="line"/>
      <point x="251" y="94.5" type="line"/>
      <point x="401" y="63" type="line"/>
      <point x="391" y="0" type="line"/>
    </contour>
    <contour>
      <point x="289" y="308" type="line"/>
      <point x="318" y="387" type="line"/>
      <point x="675.5" y="387" type="line"/>
      <point x="699.5" y="308" type="line"/>
    </contour>
    <contour>
      <point x="311.5" y="1086" type="curve" smooth="yes"/>
      <point x="311.5" y="1134.5"/>
      <point x="342" y="1163.5"/>
      <point x="381.5" y="1163.5" type="curve" smooth="yes"/>
      <point x="422" y="1163.5"/>
      <point x="453.5" y="1134.5"/>
      <point x="453.5" y="1086" type="curve" smooth="yes"/>
      <point x="453.5" y="1035"/>
      <point x="425.5" y="1004.5"/>
      <point x="382.5" y="1004.5" type="curve" smooth="yes"/>
      <point x="340" y="1004.5"/>
      <point x="311.5" y="1036"/>
    </contour>
    <contour>
      <point x="580" y="1086" type="curve" smooth="yes"/>
      <point x="580" y="1134.5"/>
      <point x="610" y="1163.5"/>
      <point x="649.5" y="1163.5" type="curve" smooth="yes"/>
      <point x="690" y="1163.5"/>
      <point x="722" y="1134.5"/>
      <point x="722" y="1086" type="curve" smooth="yes"/>
      <point x="722" y="1035"/>
      <point x="693" y="1004.5"/>
      <point x="650" y="1004.5" type="curve" smooth="yes"/>
      <point x="607.5" y="1004.5"/>
      <point x="580" y="1036"/>
    </contour>
  </outline>
</glyph>
<glyph name="ae.sc" format="1">
  <advance width="1583"/>
  <outline>
    <contour>
      <point x="62.5" y="2" type="line"/>
      <point x="69" y="59.5" type="line"/>
      <point x="193.5" y="102" type="line"/>
      <point x="685" y="831" type="line"/>
      <point x="491.5" y="863" type="line"/>
      <point x="499.5" y="920.5" type="line"/>
      <point x="1336" y="920.5" type="line"/>
      <point x="1310" y="649.5" type="line"/>
      <point x="1237.5" y="659" type="line"/>
      <point x="1217.5" y="849" type="line"/>
      <point x="883" y="849" type="line"/>
      <point x="883" y="490" type="line"/>
      <point x="1097" y="490" type="line"/>
      <point x="1122" y="574.5" type="line"/>
      <point x="1198" y="585.5" type="line"/>
      <point x="1164.5" y="301.5" type="line"/>
      <point x="1093.5" y="290.5" type="line"/>
      <point x="1084.5" y="416.5" type="line"/>
      <point x="883" y="416.5" type="line"/>
      <point x="883" y="75" type="line"/>
      <point x="1247.5" y="75" type="line"/>
      <point x="1308" y="274.5" type="line"/>
      <point x="1375.5" y="263" type="line"/>
      <point x="1355.5" y="0" type="line"/>
      <point x="578" y="0" type="line"/>
      <point x="585" y="58" type="line"/>
      <point x="735.5" y="96.5" type="line"/>
      <point x="735.5" y="332.5" type="line"/>
      <point x="460" y="332.5" type="line"/>
      <point x="306" y="96" type="line"/>
      <point x="457" y="65.5" type="line"/>
      <point x="445.5" y="2" type="line"/>
    </contour>
    <contour>
      <point x="510.5" y="410.5" type="line"/>
      <point x="735" y="410.5" type="line"/>
      <point x="736.5" y="758.5" type="line"/>
    </contour>
  </outline>
</glyph>
<glyph name="agrave.sc" format="1">
  <advance width="1430"/>
  <outline>
    <contour>
      <point x="12.5" y="0" type="line"/>
      <point x="19.5" y="58" type="line"/>
      <point x="135" y="100.5" type="line"/>
      <point x="455.5" y="918.5" type="line"/>
      <point x="557.5" y="941" type="line"/>
      <point x="860" y="95" type="line"/>
      <point x="964.5" y="63.5" type="line"/>
      <point x="956" y="0.5" type="line"/>
      <point x="559" y="0.5" type="line"/>
      <point x="569.5" y="58.5" type="line"/>
      <point x="703" y="97" type="line"/>
      <point x="474.5" y="747" type="line"/>
      <point x="241" y="94.5" type="line"/>
      <point x="391" y="63" type="line"/>
      <point x="381" y="0" type="line"/>
    </contour>
    <contour>
      <point x="279" y="308" type="line"/>
      <point x="308" y="387" type="line"/>
      <point x="665.5" y="387" type="line"/>
      <point x="689.5" y="308" type="line"/>
    </contour>
    <contour>
      <point x="308.5" y="1326" type="line"/>
      <point x="413" y="1363.5" type="line"/>
      <point x="545.5" y="1029" type="line"/>
      <point x="494.5" y="998" type="line"/>
    </contour>
  </outline>
</glyph>
<glyph name="aring.sc" format="1">
  <advance width="944"/>
  <outline>
    <contour>
      <point x="22" y="0" type="line"/>
      <point x="29" y="58" type="line"/>
      <point x="144.5" y="100.5" type="line"/>
      <point x="465" y="918.5" type="line"/>
      <point x="567" y="941" type="line"/>
      <point x="869.5" y="95" type="line"/>
      <point x="974" y="63.5" type="line"/>
      <point x="965.5" y="0.5" type="line"/>
      <point x="568.5" y="0.5" type="line"/>
      <point x="579" y="58.5" type="line"/>
      <point x="712.5" y="97" type="line"/>
      <point x="484" y="747" type="line"/>
      <point x="250.5" y="94.5" type="line"/>
      <point x="400.5" y="63" type="line"/>
      <point x="390.5" y="0" type="line"/>
    </contour>
    <contour>
      <point x="288.5" y="308" type="line"/>
      <point x="317.5" y="387" type="line"/>
      <point x="675" y="387" type="line"/>
      <point x="699" y="308" type="line"/>
    </contour>
    <contour>
      <point x="353" y="1156" type="curve" smooth="yes"/>
      <point x="353" y="1248"/>
      <point x="427" y="1327.5"/>
      <point x="520.5" y="1327.5" type="curve" smooth="yes"/>
      <point x="617" y="1327.5"/>
      <point x="677.5" y="1258.5"/>
      <point x="677.5" y="1165" type="curve" smooth="yes"/>
      <point x="677.5" y="1074.5"/>
      <point x="610" y="990"/>
      <point x="508" y="990" type="curve" smooth="yes"/>
      <point x="416" y="990"/>
      <point x="353" y="1054"/>
    </contour>
    <contour>
      <point x="421" y="1167" type="curve" smooth="yes"/>
      <point x="421" y="1104.5"/>
      <point x="452.5" y="1035"/>
      <point x="519" y="1035" type="curve" smooth="yes"/>
      <point x="575.5" y="1035"/>
      <point x="609" y="1077"/>
      <point x="609" y="1151.5" type="curve" smooth="yes"/>
      <point x="609" y="1215.5"/>
      <point x="573" y="1283"/>
      <point x="509" y="1283" type="curve" smooth="yes"/>
      <point x="447.5" y="1283"/>
      <point x="421" y="1225"/>
    </contour>
  </outline>
</glyph>
<glyph name="c.sc" format="1">
  <advance width="834"/>
  <outline>
    <contour>
      <point x="43" y="432.5" type="curve" smooth="yes"/>
      <point x="43" y="670.5"/>
      <point x="183.5" y="940.5"/>
      <point x="504" y="940.5" type="curve" smooth="yes"/>
      <point x="599.5" y="940.5"/>
      <point x="687.5" y="923.5"/>
      <point x="757" y="877" type="curve"/>
      <point x="731" y="614.5" type="line"/>
      <point x="658.5" y="625" type="line"/>
      <point x="642.5" y="789.5" type="line"/>
      <point x="615.5" y="828.5"/>
      <point x="570.5" y="865"/>
      <point x="462" y="865" type="curve" smooth="yes"/>
      <point x="309" y="865"/>
      <point x="193" y="731.5"/>
      <point x="193" y="480" type="curve" smooth="yes"/>
      <point x="193" y="218.5"/>
      <point x="330.5" y="75"/>
      <point x="505" y="75" type="curve" smooth="yes"/>
      <point x="626.5" y="75"/>
      <point x="709" y="116.5"/>
      <point x="770" y="160" type="curve"/>
      <point x="799" y="108.5" type="line"/>
      <point x="743.5" y="50.5"/>
      <point x="628" y="-25"/>
      <point x="447.5" y="-25" type="curve" smooth="yes"/>
      <point x="222.5" y="-25"/>
      <point x="43" y="144.5"/>
    </contour>
  </outline>
</glyph>
<glyph name="ccedilla.sc" format="1">
  <advance width="811"/>
  <outline>
    <contour>
      <point x="31.5" y="432.5" type="curve" smooth="yes"/>
      <point x="31.5" y="670.5"/>
      <point x="172" y="940.5"/>
      <point x="492.5" y="940.5" type="curve" smooth="yes"/>
      <point x="588" y="940.5"/>
      <point x="676" y="923.5"/>
      <point x="745.5" y="877" type="curve"/>
      <point x="719.5" y="614.5" type="line"/>
      <point x="647" y="625" type="line"/>
      <point x="631" y="789.5" type="line"/>
      <point x="604" y="828.5"/>
      <point x="559" y="865"/>
      <point x="450.5" y="865" type="curve" smooth="yes"/>
      <point x="297.5" y="865"/>
      <point x="181.5" y="731.5"/>
      <point x="181.5" y="480" type="curve" smooth="yes"/>
      <point x="181.5" y="218.5"/>
      <point x="319" y="75"/>
      <point x="493.5" y="75" type="curve" smooth="yes"/>
      <point x="615" y="75"/>
      <point x="697.5" y="116.5"/>
      <point x="758.5" y="160" type="curve"/>
      <point x="787.5" y="108.5" type="line"/>
      <point x="732" y="50.5"/>
      <point x="616.5" y="-25"/>
      <point x="436" y="-25" type="curve" smooth="yes"/>
      <point x="211" y="-25"/>
      <point x="31.5" y="144.5"/>
    </contour>
    <contour>
      <point x="355.5" y="-340.967" type="line"/>
      <point x="413" y="-321.467"/>
      <point x="457.5" y="-278.967"/>
      <point x="457.5" y="-249.467" type="curve" smooth="yes"/>
      <point x="457.5" y="-199.967"/>
      <point x="413.5" y="-164.967"/>
      <point x="377.5" y="-129.967" type="curve"/>
      <point x="469" y="1.0332" type="line"/>
      <point x="535.5" y="1.0332" type="line"/>
      <point x="481.5" y="-77.9668" type="line"/>
      <point x="518.5" y="-110.967"/>
      <point x="570.5" y="-162.467"/>
      <point x="570.5" y="-228.967" type="curve" smooth="yes"/>
      <point x="570.5" y="-307.967"/>
      <point x="487.5" y="-356.467"/>
      <point x="370.5" y="-391.467" type="curve"/>
    </contour>
  </outline>
</glyph>
<glyph name="dollar.osf" format="1">
  <advance width="750"/>
  <outline>
    <contour>
      <point x="292.5" y="1041.5" type="line"/>
      <point x="414.5" y="1059" type="line"/>
      <point x="400.5" y="890" type="line"/>
      <point x="308.5" y="890" type="line"/>
    </contour>
    <contour>
      <point x="47" y="137.5" type="curve" smooth="yes"/>
      <point x="47" y="193.5"/>
      <point x="83" y="239"/>
      <point x="152" y="244" type="curve"/>
      <point x="186.5" y="103"/>
      <point x="259" y="39.5"/>
      <point x="357" y="39.5" type="curve" smooth="yes"/>
      <point x="442" y="39.5"/>
      <point x="506" y="82"/>
      <point x="506" y="158.5" type="curve" smooth="yes"/>
      <point x="506" y="326"/>
      <point x="85" y="373.5"/>
      <point x="85" y="638" type="curve" smooth="yes"/>
      <point x="85" y="760"/>
      <point x="187" y="899.5"/>
      <point x="366" y="899.5" type="curve" smooth="yes"/>
      <point x="497.5" y="899.5"/>
      <point x="598.5" y="831.5"/>
      <point x="598.5" y="735" type="curve" smooth="yes"/>
      <point x="598.5" y="662"/>
      <point x="551.5" y="627"/>
      <point x="490.5" y="622.5" type="curve"/>
      <point x="471.5" y="763.5"/>
      <point x="400.787" y="833.5"/>
      <point x="323" y="833.5" type="curve" smooth="yes"/>
      <point x="246" y="833.5"/>
      <point x="195" y="779.5"/>
      <point x="195" y="697" type="curve" smooth="yes"/>
      <point x="195" y="492"/>
      <point x="623.5" y="453.5"/>
      <point x="623.5" y="209.5" type="curve" smooth="yes"/>
      <point x="623.5" y="71"/>
      <point x="488.5" y="-35"/>
      <point x="320" y="-35" type="curve" smooth="yes"/>
      <point x="162.5" y="-35"/>
      <point x="47" y="42"/>
    </contour>
    <contour>
      <point x="287.5" y="-197" type="line"/>
      <point x="302" y="-15" type="line"/>
      <point x="400.5" y="-6" type="line"/>
      <point x="414.5" y="-179" type="line"/>
    </contour>
  </outline>
</glyph>
<glyph name="e.sc" format="1">
  <advance width="894"/>
  <outline>
    <contour>
      <point x="43.5" y="861.5" type="line"/>
      <point x="52.5" y="920.5" type="line"/>
      <point x="817.5" y="920.5" type="line"/>
      <point x="791.5" y="649.5" type="line"/>
      <point x="719" y="659" type="line"/>
      <point x="699" y="849" type="line"/>
      <point x="343" y="849" type="line"/>
      <point x="343" y="490" type="line"/>
      <point x="573.5" y="490" type="line"/>
      <point x="598.5" y="574.5" type="line"/>
      <point x="674.5" y="585.5" type="line"/>
      <point x="641" y="301.5" type="line"/>
      <point x="570" y="290.5" type="line"/>
      <point x="561" y="416.5" type="line"/>
      <point x="343" y="416.5" type="line"/>
      <point x="343" y="75" type="line"/>
      <point x="729" y="75" type="line"/>
      <point x="789.5" y="274.5" type="line"/>
      <point x="857" y="263" type="line"/>
      <point x="837" y="0" type="line"/>
      <point x="48.5" y="0" type="line"/>
      <point x="55.5" y="58" type="line"/>
      <point x="194" y="96.5" type="line"/>
      <point x="194" y="827" type="line"/>
    </contour>
  </outline>
</glyph>
<glyph name="ecircumflex.sc" format="1">
  <advance width="832"/>
  <outline>
    <contour>
      <point x="32" y="861.5" type="line"/>
      <point x="41" y="920.5" type="line"/>
      <point x="806" y="920.5" type="line"/>
      <point x="780" y="649.5" type="line"/>
      <point x="707.5" y="659" type="line"/>
      <point x="687.5" y="849" type="line"/>
      <point x="331.5" y="849" type="line"/>
      <point x="331.5" y="490" type="line"/>
      <point x="562" y="490" type="line"/>
      <point x="587" y="574.5" type="line"/>
      <point x="663" y="585.5" type="line"/>
      <point x="629.5" y="301.5" type="line"/>
      <point x="558.5" y="290.5" type="line"/>
      <point x="549.5" y="416.5" type="line"/>
      <point x="331.5" y="416.5" type="line"/>
      <point x="331.5" y="75" type="line"/>
      <point x="717.5" y="75" type="line"/>
      <point x="778" y="274.5" type="line"/>
      <point x="845.5" y="263" type="line"/>
      <point x="825.5" y="0" type="line"/>
      <point x="37" y="0" type="line"/>
      <point x="44" y="58" type="line"/>
      <point x="182.5" y="96.5" type="line"/>
      <point x="182.5" y="827" type="line"/>
    </contour>
    <contour>
      <point x="262.5" y="1033.5" type="line"/>
      <point x="430" y="1213.5" type="line"/>
      <point x="484.5" y="1227.5" type="line"/>
      <point x="663" y="1041.5" type="line"/>
      <point x="622.5" y="1004.5" type="line"/>
      <point x="450.5" y="1127" type="line"/>
      <point x="440.5" y="1127" type="line"/>
      <point x="292.5" y="1003.5" type="line"/>
    </contour>
  </outline>
</glyph>
<glyph name="eth.sc" format="1">
  <advance width="1150"/>
  <outline>
    <contour>
      <point x="60.5" y="0" type="line"/>
      <point x="71.5" y="58" type="line"/>
      <point x="212" y="100.5" type="line"/>
      <point x="212" y="814" type="line"/>
      <point x="65" y="840" type="line"/>
      <point x="74.5" y="896" type="line"/>
      <point x="233" y="924"/>
      <point x="355.5" y="939.5"/>
      <point x="472.5" y="939.5" type="curve" smooth="yes"/>
      <point x="865.5" y="939.5"/>
      <point x="978.5" y="721.5"/>
      <point x="978.5" y="497.5" type="curve" smooth="yes"/>
      <point x="978.5" y="196.5"/>
      <point x="749.5" y="0"/>
      <point x="392.5" y="0" type="curve" smooth="yes"/>
    </contour>
    <contour>
      <point x="65.5" y="399" type="line"/>
      <point x="75.5" y="475.5" type="line"/>
      <point x="567" y="510.5" type="line"/>
      <point x="557" y="435" type="line"/>
    </contour>
    <contour>
      <point x="358" y="79" type="line"/>
      <point x="430" y="79" type="line" smooth="yes"/>
      <point x="693.5" y="79"/>
      <point x="824.5" y="227"/>
      <point x="824.5" y="462" type="curve" smooth="yes"/>
      <point x="824.5" y="720.5"/>
      <point x="689" y="861"/>
      <point x="435.5" y="861" type="curve" smooth="yes"/>
      <point x="414.5" y="861"/>
      <point x="377.5" y="859.5"/>
      <point x="358" y="857" type="curve"/>
    </contour>
  </outline>
</glyph>
<glyph name="euro.osf" format="1">
  <advance width="1028"/>
  <outline>
    <contour>
      <point x="22.5" y="315" type="line"/>
      <point x="31.5" y="398" type="line"/>
      <point x="619" y="398" type="line"/>
      <point x="602" y="315" type="line"/>
    </contour>
    <contour>
      <point x="26.5" y="478" type="line"/>
      <point x="34.5" y="560" type="line"/>
      <point x="655" y="560" type="line"/>
      <point x="638.5" y="478" type="line"/>
    </contour>
    <contour>
      <point x="157" y="429" type="curve" smooth="yes"/>
      <point x="157" y="695.5"/>
      <point x="320.5" y="940.5"/>
      <point x="620" y="940.5" type="curve" smooth="yes"/>
      <point x="742.5" y="940.5"/>
      <point x="819" y="899"/>
      <point x="851" y="877" type="curve"/>
      <point x="825" y="614.5" type="line"/>
      <point x="752.5" y="625" type="line"/>
      <point x="736.5" y="789.5" type="line"/>
      <point x="712" y="831.5"/>
      <point x="662" y="865"/>
      <point x="556.5" y="865" type="curve" smooth="yes"/>
      <point x="419.5" y="865"/>
      <point x="327" y="744"/>
      <point x="327" y="462.5" type="curve"/>
      <point x="327" y="209.5"/>
      <point x="451.5" y="73.5"/>
      <point x="616.5" y="73.5" type="curve" smooth="yes"/>
      <point x="747" y="73.5"/>
      <point x="818.5" y="126.5"/>
      <point x="862" y="168" type="curve"/>
      <point x="895" y="111" type="line"/>
      <point x="861" y="62.5"/>
      <point x="765" y="-25"/>
      <point x="568" y="-25" type="curve" smooth="yes"/>
      <point x="324.5" y="-25"/>
      <point x="157" y="140.5"/>
    </contour>
  </outline>
</glyph>
<glyph name="f.sc" format="1">
  <advance width="868"/>
  <outline>
    <contour>
      <point x="43.5" y="863" type="line"/>
      <point x="52.5" y="922" type="line"/>
      <point x="824" y="922" type="line"/>
      <point x="793" y="650.5" type="line"/>
      <point x="717" y="661.5" type="line"/>
      <point x="701" y="850.5" type="line"/>
      <point x="341.5" y="850.5" type="line"/>
      <point x="341.5" y="460" type="line"/>
      <point x="589.5" y="460" type="line"/>
      <point x="615.5" y="551.5" type="line"/>
      <point x="691" y="562" type="line"/>
      <point x="662" y="273.5" type="line"/>
      <point x="589.5" y="262.5" type="line"/>
      <point x="577.5" y="387.5" type="line"/>
      <point x="341.5" y="387.5" type="line"/>
      <point x="340" y="96" type="line"/>
      <point x="537" y="68" type="line"/>
      <point x="524.5" y="0" type="line"/>
      <point x="49" y="0" type="line"/>
      <point x="54.5" y="58" type="line"/>
      <point x="193" y="96.5" type="line"/>
      <point x="193" y="828.5" type="line"/>
    </contour>
  </outline>
</glyph>
<glyph name="five.osf" format="1">
  <advance width="761"/>
  <outline>
    <contour>
      <point x="-12" y="-147.5" type="curve" smooth="yes"/>
      <point x="-12" y="-87.5"/>
      <point x="30" y="-27.5"/>
      <point x="83.5" y="-20.5" type="curve"/>
      <point x="118.5" y="-126.5"/>
      <point x="192" y="-220.5"/>
      <point x="311.5" y="-220.5" type="curve" smooth="yes"/>
      <point x="441" y="-220.5"/>
      <point x="567.5" y="-132"/>
      <point x="567.5" y="72" type="curve" smooth="yes"/>
      <point x="567.5" y="271"/>
      <point x="413" y="388.5"/>
      <point x="140.5" y="413.5" type="curve"/>
      <point x="235" y="923" type="line"/>
      <point x="680" y="961" type="line"/>
      <point x="659" y="821" type="line"/>
      <point x="293" y="796" type="line"/>
      <point x="250" y="536.5" type="line"/>
      <point x="545.5" y="509.5"/>
      <point x="718" y="361.5"/>
      <point x="718" y="132.5" type="curve" smooth="yes"/>
      <point x="718" y="-91.5"/>
      <point x="528.5" y="-297"/>
      <point x="265" y="-297" type="curve" smooth="yes"/>
      <point x="106.5" y="-297"/>
      <point x="-12" y="-233"/>
    </contour>
  </outline>
</glyph>
<glyph name="g.sc" format="1">
  <advance width="1005"/>
  <outline>
    <contour>
      <point x="42.5" y="421" type="curve" smooth="yes"/>
      <point x="42.5" y="717.5"/>
      <point x="265" y="940.5"/>
      <point x="551.5" y="940.5" type="curve" smooth="yes"/>
      <point x="670" y="940.5"/>
      <point x="784" y="921.5"/>
      <point x="859" y="881" type="curve"/>
      <point x="832" y="606" type="line"/>
      <point x="756" y="616" type="line"/>
      <point x="737.5" y="786.5" type="line"/>
      <point x="704" y="822"/>
      <point x="620.5" y="863.5"/>
      <point x="504" y="863.5" type="curve" smooth="yes"/>
      <point x="331" y="863.5"/>
      <point x="199.5" y="722"/>
      <point x="199.5" y="475" type="curve" smooth="yes"/>
      <point x="199.5" y="245"/>
      <point x="296.5" y="56.5"/>
      <point x="518" y="56.5" type="curve" smooth="yes"/>
      <point x="610" y="56.5"/>
      <point x="669.5" y="68"/>
      <point x="715" y="100" type="curve"/>
      <point x="715" y="302.5" type="line"/>
      <point x="516.5" y="334" type="line"/>
      <point x="525.5" y="395" type="line"/>
      <point x="968.5" y="395" type="line"/>
      <point x="958" y="333.5" type="line"/>
      <point x="860" y="307" type="line"/>
      <point x="860" y="34" type="line"/>
      <point x="767.5" y="-1"/>
      <point x="636.5" y="-25.5"/>
      <point x="474.5" y="-25.5" type="curve" smooth="yes"/>
      <point x="205" y="-25.5"/>
      <point x="42.5" y="153"/>
    </contour>
  </outline>
</glyph>
<glyph name="germandbls.sc.alt" format="1">
  <advance width="1047"/>
  <outline>
    <contour>
      <point x="14" y="0" type="line"/>
      <point x="20.5" y="57.5" type="line"/>
      <point x="157.5" y="91" type="line"/>
      <point x="157.5" y="540" type="line" smooth="yes"/>
      <point x="157.5" y="822"/>
      <point x="332.5" y="941.5"/>
      <point x="607" y="941.5" type="curve" smooth="yes"/>
      <point x="751" y="941.5"/>
      <point x="903.5" y="917.5"/>
      <point x="964" y="898.5" type="curve"/>
      <point x="964.5" y="841" type="line"/>
      <point x="709" y="541.5" type="line"/>
      <point x="863.5" y="456"/>
      <point x="1034" y="379.5"/>
      <point x="1034" y="222.5" type="curve" smooth="yes"/>
      <point x="1034" y="77.5"/>
      <point x="883.5" y="-25"/>
      <point x="690.5" y="-25" type="curve" smooth="yes"/>
      <point x="564" y="-25"/>
      <point x="472.5" y="7.5"/>
      <point x="422.5" y="54" type="curve"/>
      <point x="453.5" y="301.5" type="line"/>
      <point x="529" y="290.5" type="line"/>
      <point x="546.5" y="125.5" type="line"/>
      <point x="581.5" y="82"/>
      <point x="637.5" y="56"/>
      <point x="724" y="56" type="curve" smooth="yes"/>
      <point x="822.5" y="56"/>
      <point x="897.5" y="99"/>
      <point x="897.5" y="177" type="curve" smooth="yes"/>
      <point x="897.5" y="284"/>
      <point x="713.5" y="368.5"/>
      <point x="558" y="455" type="curve"/>
      <point x="536" y="499.5" type="line"/>
      <point x="817" y="822" type="line"/>
      <point x="817" y="826" type="line"/>
      <point x="746" y="860"/>
      <point x="660" y="878"/>
      <point x="551" y="878" type="curve" smooth="yes"/>
      <point x="384.5" y="878"/>
      <point x="303.5" y="771"/>
      <point x="303.5" y="563" type="curve" smooth="yes"/>
      <point x="303.5" y="0" type="line"/>
    </contour>
  </outline>
</glyph>
<glyph name="iacute.sc" format="1">
  <advance width="543"/>
  <outline>
    <contour>
      <point x="42" y="864.5" type="line"/>
      <point x="50.5" y="922" type="line"/>
      <point x="91" y="922"/>
      <point x="414.5" y="922"/>
      <point x="491" y="922" type="curve"/>
      <point x="482.5" y="864.5" type="line"/>
      <point x="340.5" y="834" type="line"/>
      <point x="340.5" y="89.5" type="line"/>
      <point x="497.5" y="63" type="line"/>
      <point x="488" y="0" type="line"/>
      <point x="50.5" y="0" type="line"/>
      <point x="57" y="58" type="line"/>
      <point x="189.5" y="96.5" type="line"/>
      <point x="189.5" y="831" type="line"/>
    </contour>
    <contour>
      <point x="206.5" y="1031.05" type="line"/>
      <point x="334" y="1362.05" type="line"/>
      <point x="437.5" y="1323.05" type="line"/>
      <point x="255" y="1002.05" type="line"/>
    </contour>
  </outline>
</glyph>
<glyph name="icircumflex.sc" format="1">
  <advance width="543"/>
  <outline>
    <contour>
      <point x="42" y="864.5" type="line"/>
      <point x="50.5" y="922" type="line"/>
      <point x="91" y="922"/>
      <point x="414.5" y="922"/>
      <point x="491" y="922" type="curve"/>
      <point x="482.5" y="864.5" type="line"/>
      <point x="340.5" y="834" type="line"/>
      <point x="340.5" y="89.5" type="line"/>
      <point x="497.5" y="63" type="line"/>
      <point x="488" y="0" type="line"/>
      <point x="50.5" y="0" type="line"/>
      <point x="57" y="58" type="line"/>
      <point x="189.5" y="96.5" type="line"/>
      <point x="189.5" y="831" type="line"/>
    </contour>
    <contour>
      <point x="71" y="1032" type="line"/>
      <point x="238" y="1212" type="line"/>
      <point x="292.5" y="1226" type="line"/>
      <point x="471.5" y="1040" type="line"/>
      <point x="431" y="1003" type="line"/>
      <point x="258.5" y="1125.5" type="line"/>
      <point x="249" y="1125.5" type="line"/>
      <point x="100.5" y="1002" type="line"/>
    </contour>
  </outline>
</glyph>
<glyph name="j.sc" format="1">
  <advance width="573"/>
  <outline>
    <contour>
      <point x="-9" y="-259" type="line"/>
      <point x="152" y="-132"/>
      <point x="234.5" y="-15.5"/>
      <point x="234.5" y="175.5" type="curve" smooth="yes"/>
      <point x="234.5" y="831" type="line"/>
      <point x="84" y="864.5" type="line"/>
      <point x="91.5" y="922" type="line"/>
      <point x="533.5" y="922" type="line"/>
      <point x="525.5" y="864.5" type="line"/>
      <point x="387" y="834" type="line"/>
      <point x="385" y="283.5" type="line" smooth="yes"/>
      <point x="384" y="-65"/>
      <point x="297.5" y="-167.5"/>
      <point x="29" y="-325.5" type="curve"/>
    </contour>
  </outline>
</glyph>
<glyph name="n.sc" format="1">
  <advance width="1101"/>
  <outline>
    <contour>
      <point x="42" y="866" type="line"/>
      <point x="51.5" y="922" type="line"/>
      <point x="333" y="922" type="line"/>
      <point x="826" y="231" type="line"/>
      <point x="826" y="831" type="line"/>
      <point x="673.5" y="864.5" type="line"/>
      <point x="682.5" y="922" type="line"/>
      <point x="1085.5" y="922" type="line"/>
      <point x="1075" y="864.5" type="line"/>
      <point x="923.5" y="834" type="line"/>
      <point x="923.5" y="2" type="line"/>
      <point x="820" y="-19" type="line"/>
      <point x="296.5" y="715" type="line"/>
      <point x="296.5" y="89.5" type="line"/>
      <point x="450.5" y="63" type="line"/>
      <point x="440" y="0" type="line"/>
      <point x="51.5" y="0" type="line"/>
      <point x="58.5" y="58" type="line"/>
      <point x="195.5" y="96.5" type="line"/>
      <point x="195.5" y="824" type="line"/>
    </contour>
  </outline>
</glyph>
<glyph name="nine.osf" format="1">
  <advance width="779"/>
  <outline>
    <contour>
      <point x="38.5" y="576" type="curve" smooth="yes"/>
      <point x="38.5" y="788.5"/>
      <point x="196" y="958.5"/>
      <point x="394.5" y="958.5" type="curve" smooth="yes"/>
      <point x="653.5" y="958.5"/>
      <point x="734.5" y="744.5"/>
      <point x="734.5" y="511" type="curve" smooth="yes"/>
      <point x="734.5" y="176"/>
      <point x="476.5" y="-160.5"/>
      <point x="143.5" y="-271.5" type="curve"/>
      <point x="121" y="-212.5" type="line"/>
      <point x="407.5" y="-82.5"/>
      <point x="519.5" y="123"/>
      <point x="569.5" y="322" type="curve"/>
      <point x="560.5" y="322" type="line"/>
      <point x="506" y="265.5"/>
      <point x="433" y="222.5"/>
      <point x="321.5" y="222.5" type="curve" smooth="yes"/>
      <point x="135" y="222.5"/>
      <point x="38.5" y="372.5"/>
    </contour>
    <contour>
      <point x="189" y="602" type="curve" smooth="yes"/>
      <point x="189" y="423.5"/>
      <point x="257" y="315"/>
      <point x="395" y="315" type="curve" smooth="yes"/>
      <point x="481.5" y="315"/>
      <point x="545" y="355"/>
      <point x="574" y="398" type="curve"/>
      <point x="581.5" y="439"/>
      <point x="581" y="502.5"/>
      <point x="581" y="540.5" type="curve" smooth="yes"/>
      <point x="581" y="745"/>
      <point x="494.5" y="893"/>
      <point x="375" y="893" type="curve" smooth="yes"/>
      <point x="256" y="893"/>
      <point x="189" y="799"/>
    </contour>
  </outline>
</glyph>
